<?xml version="1.0" encoding="UTF-8"?><svg width="297px" height="297px" viewBox="0 0 297 297" version="1.1" xmlns="http://www.w3.org/2000/svg" xmlns:xlink="http://www.w3.org/1999/xlink"><title>31.9</title><g id="Screen-Design" stroke="none" stroke-width="1" fill="none" fill-rule="evenodd"><g id="Lesson-1-ClientR2-Exports" transform="translate(-884, -1155)"><g id="31.9" transform="translate(923, 1194)"><g id="Group" transform="translate(-16, -16)"><circle id="Oval" stroke="#BB16A3" stroke-width="6.33165829" fill="#FFFFFF" cx="126" cy="126" r="122.834171"/><g id="31.9%" transform="translate(52, 40)" fill="#2E008B" fill-rule="nonzero"><path d="M20.54032,22.8533818 L14.1924497,22.8533818 C14.5228221,20.2890625 15.4431453,18.2281678 16.9534193,16.6706978 C19.0615101,14.4996789 21.7123555,13.4141695 24.9059557,13.4141695 C27.7534514,13.4141695 30.1407855,14.3187607 32.067958,16.1279431 C33.9951306,17.9371254 34.9587168,20.0845462 34.9587168,22.5702055 C34.9587168,24.1119435 34.5378853,25.5199593 33.6962222,26.794253 C32.8545591,28.0685467 31.6313945,29.098994 30.0267284,29.885595 C32.1348191,30.5148759 33.7827483,31.6121843 34.9705158,33.1775203 C36.1582834,34.7428564 36.7521672,36.5874358 36.7521672,38.7112586 C36.7521672,41.8261986 35.6037297,44.4652451 33.3068547,46.6283979 C31.0099797,48.7915507 28.0838238,49.8731271 24.5283872,49.8731271 C21.1617348,49.8731271 18.4164972,48.8544788 16.2926744,46.8171821 C14.1688517,44.7798855 13.0046821,42.0071169 12.8001659,38.4988763 L19.3368204,38.4988763 C19.6199968,40.2923266 20.2453446,41.6256154 21.2128639,42.4987425 C22.1803831,43.3718696 23.4035477,43.8084332 24.8823577,43.8084332 C26.4240957,43.8084332 27.7023223,43.3128746 28.7170377,42.3217573 C29.731753,41.33064 30.2391107,40.1192744 30.2391107,38.6876605 C30.2391107,37.1144585 29.5547678,35.7851027 28.186082,34.6995933 C26.8173962,33.6140839 24.8430276,33.0555972 22.2629762,33.0241331 L22.2629762,27.3606057 C23.8519103,27.2347496 25.0357449,26.9869702 25.8144799,26.6172678 C26.5932149,26.2475653 27.1988977,25.7402076 27.6315283,25.0951948 C28.0641588,24.4501819 28.2804741,23.765839 28.2804741,23.0421661 C28.2804741,22.0982449 27.9501017,21.3155768 27.2893568,20.694162 C26.6286119,20.0727472 25.7633508,19.7620398 24.6935734,19.7620398 C23.7496522,19.7620398 22.8922571,20.0491492 22.1213881,20.6233679 C21.350519,21.1975867 20.8234964,21.9409247 20.54032,22.8533818 Z" id="Path"/><polygon id="Path" points="44.3801637 14.2872967 54.2677387 14.2872967 54.2677387 49 47.7074861 49 47.7074861 20.4935788 40.5572827 20.4935788"/><path d="M65.2672036,42.2745612 C66.2897849,42.2745612 67.162912,42.6324647 67.886585,43.3482716 C68.6102579,44.0640786 68.9720944,44.9332727 68.9720944,45.955854 C68.9720944,46.9784354 68.6102579,47.8515625 67.886585,48.5752354 C67.162912,49.2989084 66.2897849,49.6607449 65.2672036,49.6607449 C64.2446222,49.6607449 63.3714951,49.2989084 62.6478221,48.5752354 C61.9241492,47.8515625 61.5623127,46.9784354 61.5623127,45.955854 C61.5623127,44.9332727 61.9241492,44.0640786 62.6478221,43.3482716 C63.3714951,42.6324647 64.2446222,42.2745612 65.2672036,42.2745612 Z" id="Path"/><path d="M81.0659514,49.8731271 L75.4496201,47.0885595 L81.514314,35.2895441 C78.5724262,35.2895441 76.0710349,34.2354987 74.0101402,32.127408 C71.9492455,30.0193172 70.9187982,27.3999358 70.9187982,24.2692637 C70.9187982,21.2329837 71.9767765,18.6647314 74.0927333,16.5645066 C76.2086901,14.4642819 78.7612104,13.4141695 81.7502943,13.4141695 C84.8809664,13.4141695 87.4885488,14.5036119 89.5730415,16.6824968 C91.6575342,18.8613816 92.6997806,21.3667059 92.6997806,24.1984696 C92.6997806,25.268247 92.5385274,26.3419574 92.216021,27.4196008 C91.8935146,28.4972442 91.1501766,30.1609054 89.9860071,32.4105843 L81.0659514,49.8731271 Z M81.8918825,29.0360659 C83.1189801,29.0360659 84.1494274,28.5877033 84.9832245,27.6909782 C85.8170216,26.794253 86.2339202,25.6851455 86.2339202,24.3636558 C86.2339202,23.0107021 85.7973566,21.8779966 84.9242295,20.9655394 C84.0511023,20.0530822 83.032454,19.5968536 81.8682845,19.5968536 C80.6411869,19.5968536 79.5871415,20.0491492 78.7061483,20.9537404 C77.8251552,21.8583315 77.3846586,22.987104 77.3846586,24.3400578 C77.3846586,25.6772795 77.8133562,26.794253 78.6707513,27.6909782 C79.5281464,28.5877033 80.6018568,29.0360659 81.8918825,29.0360659 Z" id="Shape"/><path d="M126.987719,12.7534247 L131.754522,12.7534247 L104.239218,51.3598031 L99.4724155,51.3598031 L122.999652,18.2045698 C121.58377,18.4405501 120.254415,18.6175353 119.011585,18.7355255 C117.768755,18.8535156 116.620318,18.9125107 115.566272,18.9125107 C114.480763,18.9125107 113.332326,18.8574486 112.12096,18.7473245 C112.467064,19.8485659 112.640117,20.8475492 112.640117,21.7442744 C112.640117,24.0411494 111.841717,25.9919199 110.244917,27.596586 C108.648116,29.2012521 106.701279,30.0035852 104.404404,30.0035852 C102.091797,30.0035852 100.125294,29.2012521 98.5048962,27.596586 C96.8844981,25.9919199 96.074299,24.0490154 96.074299,21.7678724 C96.074299,20.2890625 96.4361355,18.9164437 97.1598084,17.6500161 C97.8834814,16.3835884 98.9021297,15.3610071 100.215753,14.582272 C101.529377,13.803537 102.831202,13.4141695 104.121228,13.4141695 C105.096613,13.4141695 106.441701,13.6029538 108.156491,13.9805223 C111.192771,14.6412671 113.867214,14.9716396 116.179821,14.9716396 C118.27218,14.9716396 120.219018,14.7867883 122.020334,14.4170858 C123.82165,14.0473833 125.477445,13.4928296 126.987719,12.7534247 Z M104.357208,17.7326092 C103.255966,17.7326092 102.315978,18.1219767 101.537243,18.9007117 C100.758508,19.6794467 100.369141,20.6115689 100.369141,21.6970783 C100.369141,22.7983198 100.758508,23.738308 101.537243,24.517043 C102.315978,25.295778 103.255966,25.6851455 104.357208,25.6851455 C105.458449,25.6851455 106.398438,25.295778 107.177173,24.517043 C107.955908,23.738308 108.345275,22.7983198 108.345275,21.6970783 C108.345275,20.5958369 107.955908,19.6597817 107.177173,18.8889127 C106.398438,18.1180437 105.458449,17.7326092 104.357208,17.7326092 Z M127.365288,33.3545056 C129.646431,33.3545056 131.597201,34.1647046 133.2176,35.7851027 C134.837998,37.4055009 135.648197,39.3641374 135.648197,41.6610124 C135.648197,43.9421554 134.837998,45.8929259 133.2176,47.5133241 C131.597201,49.1337222 129.646431,49.9439212 127.365288,49.9439212 C125.068413,49.9439212 123.113709,49.1337222 121.501177,47.5133241 C119.888645,45.8929259 119.082379,43.9421554 119.082379,41.6610124 C119.082379,39.3641374 119.888645,37.4055009 121.501177,35.7851027 C123.113709,34.1647046 125.068413,33.3545056 127.365288,33.3545056 Z M127.34169,37.6257491 C126.224716,37.6257491 125.276862,38.0190497 124.498127,38.8056507 C123.719392,39.5922517 123.330025,40.5361729 123.330025,41.6374144 C123.330025,42.7386558 123.719392,43.6825771 124.498127,44.4691781 C125.276862,45.2557791 126.224716,45.6490796 127.34169,45.6490796 C128.442931,45.6490796 129.38292,45.2557791 130.161655,44.4691781 C130.94039,43.6825771 131.329757,42.7386558 131.329757,41.6374144 C131.329757,40.5361729 130.94039,39.5922517 130.161655,38.8056507 C129.38292,38.0190497 128.442931,37.6257491 127.34169,37.6257491 Z" id="Shape"/></g><g id="were-physically-inac" transform="translate(55.5753, 97.8082)" fill="#2E008B" fill-rule="nonzero"><path d="M45.5343536,25.9178082 L41.1518622,11.5971747 L43.6599957,11.5971747 L45.9388913,19.8632277 L46.7884204,22.937714 C46.8243793,22.7848887 47.0715967,21.8005137 47.5300728,19.984589 L49.8089683,11.5971747 L52.3036173,11.5971747 L54.447667,19.9036815 L55.1623502,22.6410531 L55.9849101,19.8767123 L58.4391053,11.5971747 L60.7989084,11.5971747 L56.3220248,25.9178082 L53.8004067,25.9178082 L51.5215111,17.3416096 L50.968643,14.900899 L48.0694563,25.9178082 L45.5343536,25.9178082 Z" id="Path"/><path d="M72.6383776,21.3060788 L75.1465111,21.6162243 C74.7509632,23.0815497 74.0183005,24.21875 72.9485231,25.0278253 C71.8787457,25.8369007 70.5123074,26.2414384 68.849208,26.2414384 C66.7546019,26.2414384 65.09375,25.5964255 63.8666524,24.3063998 C62.6395548,23.0163741 62.026006,21.2071918 62.026006,18.8788527 C62.026006,16.4696062 62.6462971,14.5997432 63.8868793,13.2692637 C65.1274615,11.9387842 66.7366224,11.2735445 68.7143622,11.2735445 C70.6291738,11.2735445 72.1933861,11.9252997 73.4069991,13.2288099 C74.6206122,14.5323202 75.2274187,16.3662243 75.2274187,18.7305223 C75.2274187,18.8743579 75.2229238,19.0901113 75.2139341,19.3777825 L64.5341396,19.3777825 C64.6240368,20.9509846 65.0690283,22.1556079 65.8691139,22.9916524 C66.6691995,23.8276969 67.6670591,24.2457192 68.8626926,24.2457192 C69.7526755,24.2457192 70.5123074,24.0119863 71.1415882,23.5445205 C71.770869,23.0770548 72.2697988,22.3309075 72.6383776,21.3060788 Z M64.6689854,17.3820634 L72.6653467,17.3820634 C72.55747,16.1774401 72.2518193,15.2739726 71.7483947,14.671661 C70.9752783,13.7367295 69.9729238,13.2692637 68.7413313,13.2692637 C67.6266053,13.2692637 66.6894264,13.6423373 65.9297945,14.3884846 C65.1701627,15.1346318 64.749893,16.1324914 64.6689854,17.3820634 Z" id="Shape"/><path d="M78.1670591,25.9178082 L78.1670591,11.5971747 L80.3515625,11.5971747 L80.3515625,13.7681935 C80.9089255,12.7523545 81.4235873,12.0826199 81.8955479,11.7589897 C82.3675086,11.4353596 82.8866652,11.2735445 83.453018,11.2735445 C84.271083,11.2735445 85.1026327,11.5342466 85.947667,12.0556507 L85.1116224,14.3075771 C84.5183005,13.9569777 83.9249786,13.7816781 83.3316567,13.7816781 C82.8012628,13.7816781 82.3248074,13.9412457 81.9022902,14.260381 C81.4797731,14.5795163 81.1786173,15.0222603 80.9988228,15.588613 C80.729131,16.4516267 80.5942851,17.3955479 80.5942851,18.4203767 L80.5942851,25.9178082 L78.1670591,25.9178082 Z" id="Path"/><path d="M97.1938142,21.3060788 L99.7019478,21.6162243 C99.3063998,23.0815497 98.5737372,24.21875 97.5039598,25.0278253 C96.4341824,25.8369007 95.067744,26.2414384 93.4046447,26.2414384 C91.3100385,26.2414384 89.6491866,25.5964255 88.422089,24.3063998 C87.1949914,23.0163741 86.5814426,21.2071918 86.5814426,18.8788527 C86.5814426,16.4696062 87.2017337,14.5997432 88.4423159,13.2692637 C89.6828981,11.9387842 91.2920591,11.2735445 93.2697988,11.2735445 C95.1846104,11.2735445 96.7488228,11.9252997 97.9624358,13.2288099 C99.1760488,14.5323202 99.7828553,16.3662243 99.7828553,18.7305223 C99.7828553,18.8743579 99.7783604,19.0901113 99.7693707,19.3777825 L89.0895762,19.3777825 C89.1794735,20.9509846 89.6244649,22.1556079 90.4245505,22.9916524 C91.2246361,23.8276969 92.2224957,24.2457192 93.4181293,24.2457192 C94.3081122,24.2457192 95.067744,24.0119863 95.6970248,23.5445205 C96.3263057,23.0770548 96.8252354,22.3309075 97.1938142,21.3060788 Z M89.2244221,17.3820634 L97.2207834,17.3820634 C97.1129067,16.1774401 96.807256,15.2739726 96.3038313,14.671661 C95.5307149,13.7367295 94.5283604,13.2692637 93.296768,13.2692637 C92.182042,13.2692637 91.244863,13.6423373 90.4852312,14.3884846 C89.7255993,15.1346318 89.3053296,16.1324914 89.2244221,17.3820634 Z" id="Shape"/><path d="M6.09867295,41.5149829 L9.63163527,41.5149829 L9.63163527,43.6185788 C10.0901113,42.8994007 10.7104024,42.3150685 11.4925086,41.8655822 C12.2746147,41.4160959 13.1421233,41.1913527 14.0950342,41.1913527 C15.7581336,41.1913527 17.1695205,41.8431079 18.3291952,43.1466182 C19.4888699,44.4501284 20.0687072,46.2660531 20.0687072,48.5943921 C20.0687072,50.9856592 19.484375,52.8442851 18.3157106,54.1702697 C17.1470462,55.4962543 15.7311644,56.1592466 14.0680651,56.1592466 C13.2769692,56.1592466 12.5600385,56.0019264 11.9172731,55.687286 C11.2745077,55.3726455 10.5980308,54.833262 9.88784247,54.0691353 L9.88784247,61.2833904 L6.09867295,61.2833904 L6.09867295,41.5149829 Z M9.8473887,48.4325771 C9.8473887,50.041738 10.166524,51.2306293 10.8047945,51.9992509 C11.4430651,52.7678724 12.2206764,53.1521832 13.1376284,53.1521832 C14.0186216,53.1521832 14.7512842,52.7993365 15.3356164,52.093643 C15.9199486,51.3879495 16.2121147,50.2305223 16.2121147,48.6213613 C16.2121147,47.1200771 15.9109589,46.005351 15.3086473,45.2771832 C14.7063356,44.5490154 13.9601884,44.1849315 13.0702055,44.1849315 C12.1442637,44.1849315 11.3756421,44.5422731 10.7643408,45.2569563 C10.1530394,45.9716396 9.8473887,47.0301798 9.8473887,48.4325771 Z" id="Shape"/><path d="M26.8514555,36.0672089 L26.8514555,43.3354024 C28.0740582,41.906036 29.5348887,41.1913527 31.2339469,41.1913527 C32.1059503,41.1913527 32.8925514,41.3531678 33.59375,41.6767979 C34.2949486,42.0004281 34.823095,42.4139555 35.1781892,42.9173801 C35.5332834,43.4208048 35.776006,43.9781678 35.906357,44.5894692 C36.036708,45.2007705 36.1018836,46.1491866 36.1018836,47.4347175 L36.1018836,55.8356164 L32.312714,55.8356164 L32.312714,48.270762 C32.312714,46.7694777 32.2407962,45.8165668 32.0969606,45.4120291 C31.953125,45.0074914 31.6991652,44.6861087 31.3350813,44.447881 C30.9709974,44.2096533 30.5147688,44.0905394 29.9663955,44.0905394 C29.3371147,44.0905394 28.7752568,44.2433647 28.2808219,44.5490154 C27.786387,44.8546661 27.4245505,45.3153896 27.1953125,45.9311858 C26.9660745,46.546982 26.8514555,47.4571918 26.8514555,48.6618151 L26.8514555,55.8356164 L23.062286,55.8356164 L23.062286,36.0672089 L26.8514555,36.0672089 Z" id="Path"/><path d="M38.1515411,41.5149829 L42.1834332,41.5149829 L45.6085188,51.682363 L48.9526969,41.5149829 L52.8767123,41.5149829 L47.8199914,55.2962329 L46.916524,57.7908818 C46.5839041,58.6269264 46.2670163,59.2651969 45.9658604,59.7056935 C45.6647046,60.1461901 45.3186002,60.5035317 44.9275471,60.7777183 C44.536494,61.051905 44.0555437,61.265411 43.4846961,61.4182363 C42.9138485,61.5710616 42.2688356,61.6474743 41.5496575,61.6474743 C40.8214897,61.6474743 40.1068065,61.5710616 39.4056079,61.4182363 L39.0684932,58.4516267 C39.6618151,58.5684932 40.1967038,58.6269264 40.6731592,58.6269264 C41.5541524,58.6269264 42.2059075,58.3684717 42.6284247,57.8515625 C43.0509418,57.3346533 43.3745719,56.6761558 43.5993151,55.8760702 L38.1515411,41.5149829 Z" id="Path"/><path d="M53.968964,51.749786 L57.7716182,51.1699486 C57.9334332,51.9071062 58.2615582,52.4667166 58.7559932,52.84878 C59.2504281,53.2308433 59.942637,53.421875 60.8326199,53.421875 C61.8125,53.421875 62.5496575,53.2420805 63.0440925,52.8824914 C63.3767123,52.6307791 63.5430223,52.2936644 63.5430223,51.8711473 C63.5430223,51.583476 63.453125,51.3452483 63.2733305,51.156464 C63.0845462,50.9766695 62.6620291,50.8103596 62.0057791,50.6575342 C58.9492723,49.9833048 57.0119863,49.3675086 56.1939212,48.8101455 C55.0612158,48.0370291 54.494863,46.9627568 54.494863,45.5873288 C54.494863,44.3467466 54.9848031,43.3039384 55.9646832,42.4589041 C56.9445634,41.6138699 58.4638271,41.1913527 60.5224743,41.1913527 C62.4822346,41.1913527 63.9385702,41.510488 64.8914812,42.1487586 C65.8443921,42.7870291 66.5006421,43.7309503 66.8602312,44.9805223 L63.2868151,45.6412671 C63.1339897,45.0839041 62.8440711,44.6568921 62.4170591,44.3602312 C61.9900471,44.0635702 61.3809932,43.9152397 60.5898973,43.9152397 C59.5920377,43.9152397 58.8773545,44.0545805 58.4458476,44.333262 C58.1581764,44.531036 58.0143408,44.7872432 58.0143408,45.1018836 C58.0143408,45.3715753 58.1401969,45.6008134 58.3919092,45.7895976 C58.7335188,46.0413099 59.9134204,46.3964041 61.9316139,46.8548801 C63.9498074,47.3133562 65.3589469,47.875214 66.1590325,48.5404538 C66.9501284,49.2146832 67.3456764,50.1541096 67.3456764,51.3587329 C67.3456764,52.6712329 66.7973031,53.7994435 65.7005565,54.7433647 C64.6038099,55.687286 62.9811644,56.1592466 60.8326199,56.1592466 C58.8818493,56.1592466 57.3378639,55.7636986 56.2006635,54.9726027 C55.0634632,54.1815068 54.3195634,53.1072346 53.968964,51.749786 Z" id="Path"/><path d="M70.6628853,39.5732021 L70.6628853,36.0672089 L74.4520548,36.0672089 L74.4520548,39.5732021 L70.6628853,39.5732021 Z M70.6628853,55.8356164 L70.6628853,41.5149829 L74.4520548,41.5149829 L74.4520548,55.8356164 L70.6628853,55.8356164 Z" id="Shape"/><path d="M90.8223459,45.7491438 L87.0871147,46.4233733 C86.9612586,45.677226 86.6758348,45.1153682 86.2308433,44.7377997 C85.7858519,44.3602312 85.208262,44.1714469 84.4980736,44.1714469 C83.5541524,44.1714469 82.8012628,44.4973245 82.239405,45.1490796 C81.6775471,45.8008348 81.3966182,46.890839 81.3966182,48.4190925 C81.3966182,50.1181507 81.682042,51.3182791 82.2528896,52.0194777 C82.8237372,52.7206764 83.5901113,53.0712757 84.552012,53.0712757 C85.2711901,53.0712757 85.8600171,52.8667594 86.3184932,52.4577269 C86.7769692,52.0486943 87.1005993,51.3452483 87.2893836,50.3473887 L91.0111301,50.9811644 C90.6245719,52.6892123 89.8829195,53.979238 88.7861729,54.8512414 C87.6894264,55.7232449 86.2196062,56.1592466 84.3767123,56.1592466 C82.2821062,56.1592466 80.6122646,55.4985017 79.3671875,54.177012 C78.1221104,52.8555223 77.4995719,51.026113 77.4995719,48.6887842 C77.4995719,46.3244863 78.1243579,44.4838399 79.3739298,43.166845 C80.6235017,41.8498502 82.3135702,41.1913527 84.4441353,41.1913527 C86.1881421,41.1913527 87.5748074,41.5666738 88.604131,42.3173159 C89.6334546,43.067958 90.3728596,44.2119007 90.8223459,45.7491438 Z" id="Path"/><path d="M96.5263271,45.8839897 L93.0877568,45.2636986 C93.4743151,43.8792808 94.1395548,42.8544521 95.083476,42.1892123 C96.0273973,41.5239726 97.4297945,41.1913527 99.2906678,41.1913527 C100.980736,41.1913527 102.239298,41.3913741 103.066353,41.791417 C103.893408,42.1914598 104.475492,42.6993793 104.812607,43.3151755 C105.149722,43.9309717 105.318279,45.0614298 105.318279,46.7065497 L105.277825,51.1294949 C105.277825,52.3880565 105.338506,53.3162457 105.459867,53.9140625 C105.581229,54.5118793 105.808219,55.1523973 106.140839,55.8356164 L102.392123,55.8356164 C102.293236,55.5839041 102.171875,55.2108305 102.028039,54.7163955 C101.965111,54.4916524 101.920163,54.3433219 101.893193,54.2714041 C101.245933,54.9006849 100.553724,55.3726455 99.8165668,55.687286 C99.0794092,56.0019264 98.2928082,56.1592466 97.4567637,56.1592466 C95.9824486,56.1592466 94.8205265,55.7592038 93.9709974,54.9591182 C93.1214683,54.1590325 92.6967038,53.1476884 92.6967038,51.9250856 C92.6967038,51.1160103 92.8899829,50.3945848 93.2765411,49.7608091 C93.6630993,49.1270334 94.2047303,48.6415882 94.9014341,48.3044735 C95.5981378,47.9673587 96.6027397,47.6729452 97.9152397,47.4212329 C99.6862158,47.088613 100.913313,46.7784675 101.596533,46.4907962 L101.596533,46.1132277 C101.596533,45.3850599 101.416738,44.8659033 101.057149,44.5557577 C100.69756,44.2456122 100.018836,44.0905394 99.020976,44.0905394 C98.3467466,44.0905394 97.8208476,44.2231378 97.4432791,44.4883348 C97.0657106,44.7535317 96.7600599,45.21875 96.5263271,45.8839897 Z M101.596533,48.958476 C101.111087,49.1202911 100.342466,49.3135702 99.2906678,49.5383134 C98.2388699,49.7630565 97.5511558,49.9833048 97.2275257,50.1990582 C96.7330908,50.5496575 96.4858733,50.994649 96.4858733,51.5340325 C96.4858733,52.0644264 96.6836473,52.5229024 97.0791952,52.9094606 C97.4747432,53.2960188 97.9781678,53.4892979 98.5894692,53.4892979 C99.2726884,53.4892979 99.9244435,53.2645548 100.544735,52.8150685 C101.003211,52.4734589 101.304366,52.0554366 101.448202,51.5610017 C101.547089,51.2373716 101.596533,50.6215753 101.596533,49.713613 L101.596533,48.958476 Z" id="Shape"/><polygon id="Path" points="109.05351 55.8356164 109.05351 36.0672089 112.84268 36.0672089 112.84268 55.8356164"/><polygon id="Path" points="116.726241 55.8356164 116.726241 36.0672089 120.515411 36.0672089 120.515411 55.8356164"/><path d="M122.605522,41.5149829 L126.637414,41.5149829 L130.0625,51.682363 L133.406678,41.5149829 L137.330693,41.5149829 L132.273973,55.2962329 L131.370505,57.7908818 C131.037885,58.6269264 130.720997,59.2651969 130.419842,59.7056935 C130.118686,60.1461901 129.772581,60.5035317 129.381528,60.7777183 C128.990475,61.051905 128.509525,61.265411 127.938677,61.4182363 C127.36783,61.5710616 126.722817,61.6474743 126.003639,61.6474743 C125.275471,61.6474743 124.560788,61.5710616 123.859589,61.4182363 L123.522474,58.4516267 C124.115796,58.5684932 124.650685,58.6269264 125.12714,58.6269264 C126.008134,58.6269264 126.659889,58.3684717 127.082406,57.8515625 C127.504923,57.3346533 127.828553,56.6761558 128.053296,55.8760702 L122.605522,41.5149829 Z" id="Path"/><path d="M21.5587543,69.4910103 L21.5587543,65.9850171 L25.3479238,65.9850171 L25.3479238,69.4910103 L21.5587543,69.4910103 Z M21.5587543,85.7534247 L21.5587543,71.4327911 L25.3479238,71.4327911 L25.3479238,85.7534247 L21.5587543,85.7534247 Z" id="Shape"/><path d="M42.2575985,85.7534247 L38.4684289,85.7534247 L38.4684289,78.4447774 C38.4684289,76.8985445 38.3875214,75.8984375 38.2257063,75.4444563 C38.0638913,74.9904752 37.8009418,74.6376284 37.4368579,74.3859161 C37.072774,74.1342038 36.6345248,74.0083476 36.1221104,74.0083476 C35.4658604,74.0083476 34.8770334,74.1881421 34.3556293,74.5477312 C33.8342252,74.9073202 33.4768836,75.3837757 33.2836045,75.9770976 C33.0903253,76.5704195 32.9936858,77.6671661 32.9936858,79.2673373 L32.9936858,85.7534247 L29.2045163,85.7534247 L29.2045163,71.4327911 L32.723994,71.4327911 L32.723994,73.536387 C33.9735659,71.9182363 35.546768,71.109161 37.4436002,71.109161 C38.2796447,71.109161 39.0437714,71.2597389 39.7359803,71.5608947 C40.4281892,71.8620505 40.9518408,72.2463613 41.3069349,72.7138271 C41.6620291,73.1812928 41.9092466,73.7116866 42.0485873,74.3050086 C42.1879281,74.8983305 42.2575985,75.7478596 42.2575985,76.8535959 L42.2575985,85.7534247 Z" id="Path"/><path d="M48.93247,75.8017979 L45.4938998,75.1815068 C45.880458,73.797089 46.5456978,72.7722603 47.489619,72.1070205 C48.4335402,71.4417808 49.8359375,71.109161 51.6968108,71.109161 C53.3868793,71.109161 54.6454409,71.3091824 55.4724957,71.7092252 C56.2995505,72.109268 56.8816353,72.6171875 57.21875,73.2329837 C57.5558647,73.84878 57.7244221,74.979238 57.7244221,76.6243579 L57.6839683,81.0473031 C57.6839683,82.3058647 57.744649,83.2340539 57.8660103,83.8318707 C57.9873716,84.4296875 58.2143622,85.0702055 58.546982,85.7534247 L54.7982663,85.7534247 C54.6993793,85.5017123 54.578018,85.1286387 54.4341824,84.6342038 C54.3712543,84.4094606 54.3263057,84.2611301 54.2993365,84.1892123 C53.6520762,84.8184932 52.9598673,85.2904538 52.2227098,85.6050942 C51.4855522,85.9197346 50.6989512,86.0770548 49.8629067,86.0770548 C48.3885916,86.0770548 47.2266695,85.677012 46.3771404,84.8769264 C45.5276113,84.0768408 45.1028467,83.0654966 45.1028467,81.8428938 C45.1028467,81.0338185 45.2961259,80.312393 45.6826841,79.6786173 C46.0692423,79.0448416 46.6108733,78.5593964 47.3075771,78.2222817 C48.0042808,77.885167 49.0088827,77.5907534 50.3213827,77.3390411 C52.0923587,77.0064212 53.3194563,76.6962757 54.0026755,76.4086045 L54.0026755,76.031036 C54.0026755,75.3028682 53.822881,74.7837115 53.463292,74.4735659 C53.1037029,74.1634204 52.4249786,74.0083476 51.427119,74.0083476 C50.7528896,74.0083476 50.2269906,74.1409461 49.8494221,74.406143 C49.4718536,74.6713399 49.1662029,75.1365582 48.93247,75.8017979 Z M54.0026755,78.8762842 C53.5172303,79.0380993 52.7486087,79.2313784 51.6968108,79.4561216 C50.6450128,79.6808647 49.9572988,79.901113 49.6336687,80.1168664 C49.1392337,80.4674658 48.8920163,80.9124572 48.8920163,81.4518408 C48.8920163,81.9822346 49.0897902,82.4407106 49.4853382,82.8272688 C49.8808861,83.2138271 50.3843108,83.4071062 50.9956122,83.4071062 C51.6788313,83.4071062 52.3305865,83.182363 52.9508776,82.7328767 C53.4093536,82.3912671 53.7105094,81.9732449 53.854345,81.4788099 C53.953232,81.1551798 54.0026755,80.5393836 54.0026755,79.6314212 L54.0026755,78.8762842 Z" id="Shape"/><path d="M73.9463827,75.6669521 L70.2111515,76.3411815 C70.0852954,75.5950342 69.7998716,75.0331764 69.3548801,74.6556079 C68.9098887,74.2780394 68.3322988,74.0892551 67.6221104,74.0892551 C66.6781892,74.0892551 65.9252997,74.4151327 65.3634418,75.0668878 C64.8015839,75.718643 64.520655,76.8086473 64.520655,78.3369007 C64.520655,80.0359589 64.8060788,81.2360873 65.3769264,81.937286 C65.947774,82.6384846 66.7141481,82.9890839 67.6760488,82.9890839 C68.3952269,82.9890839 68.9840539,82.7845676 69.44253,82.3755351 C69.901006,81.9665026 70.2246361,81.2630565 70.4134204,80.2651969 L74.135167,80.8989726 C73.7486087,82.6070205 73.0069563,83.8970462 71.9102098,84.7690497 C70.8134632,85.6410531 69.343643,86.0770548 67.5007491,86.0770548 C65.406143,86.0770548 63.7363014,85.4163099 62.4912243,84.0948202 C61.2461473,82.7733305 60.6236087,80.9439212 60.6236087,78.6065925 C60.6236087,76.2422945 61.2483947,74.4016481 62.4979666,73.0846533 C63.7475385,71.7676584 65.437607,71.109161 67.5681721,71.109161 C69.3121789,71.109161 70.6988442,71.484482 71.7281678,72.2351241 C72.7574914,72.9857663 73.4968964,74.1297089 73.9463827,75.6669521 Z" id="Path"/><path d="M83.385595,71.4327911 L83.385595,74.453339 L80.7965539,74.453339 L80.7965539,80.2247432 C80.7965539,81.3934075 80.8212757,82.0743793 80.8707192,82.2676584 C80.9201627,82.4609375 81.0325342,82.6205051 81.2078339,82.7463613 C81.3831336,82.8722175 81.5966396,82.9351455 81.8483519,82.9351455 C82.1989512,82.9351455 82.7068707,82.8137842 83.3721104,82.5710616 L83.6957406,85.5107021 C82.8147474,85.8882705 81.8168878,86.0770548 80.7021618,86.0770548 C80.0189426,86.0770548 79.4031464,85.9624358 78.8547731,85.7331978 C78.3063998,85.5039598 77.9041096,85.2072988 77.6479024,84.8432149 C77.3916952,84.479131 77.2141481,83.9869435 77.1152611,83.3666524 C77.0343536,82.9261558 76.9938998,82.0361729 76.9938998,80.6967038 L76.9938998,74.453339 L75.2543878,74.453339 L75.2543878,71.4327911 L76.9938998,71.4327911 L76.9938998,68.5875428 L80.7965539,66.3760702 L80.7965539,71.4327911 L83.385595,71.4327911 Z" id="Path"/><path d="M86.0150899,69.4910103 L86.0150899,65.9850171 L89.8042594,65.9850171 L89.8042594,69.4910103 L86.0150899,69.4910103 Z M86.0150899,85.7534247 L86.0150899,71.4327911 L89.8042594,71.4327911 L89.8042594,85.7534247 L86.0150899,85.7534247 Z" id="Shape"/><path d="M97.6253211,85.7534247 L91.853917,71.4327911 L95.8318707,71.4327911 L98.5287885,78.7414384 L99.3108947,81.182149 C99.5176584,80.5618579 99.6480094,80.1528253 99.7019478,79.9550514 C99.8278039,79.5505137 99.9626498,79.145976 100.106485,78.7414384 L102.830372,71.4327911 L106.727419,71.4327911 L101.036922,85.7534247 L97.6253211,85.7534247 Z" id="Path"/><path d="M117.33979,81.1956336 L121.115475,81.8294092 C120.63003,83.2138271 119.863656,84.2678724 118.816353,84.9915454 C117.76905,85.7152183 116.458797,86.0770548 114.885595,86.0770548 C112.395441,86.0770548 110.552547,85.2634846 109.356914,83.6363442 C108.412992,82.3328339 107.941032,80.687714 107.941032,78.7009846 C107.941032,76.3276969 108.561323,74.4690711 109.801905,73.125107 C111.042487,71.781143 112.611194,71.109161 114.508027,71.109161 C116.638592,71.109161 118.31967,71.812607 119.551263,73.2194991 C120.782855,74.6263913 121.371682,76.7816781 121.317744,79.6853596 L111.824593,79.6853596 C111.851562,80.8090753 112.157213,81.6833262 112.741545,82.3081122 C113.325878,82.9328981 114.054045,83.2452911 114.926049,83.2452911 C115.519371,83.2452911 116.018301,83.083476 116.422838,82.7598459 C116.827376,82.4362158 117.133027,81.9148116 117.33979,81.1956336 Z M117.555544,77.3660103 C117.528574,76.2692637 117.245398,75.4354666 116.706015,74.864619 C116.166631,74.2937714 115.510381,74.0083476 114.737265,74.0083476 C113.91021,74.0083476 113.226991,74.3095034 112.687607,74.9118151 C112.148223,75.5141267 111.883027,76.3321918 111.892016,77.3660103 L117.555544,77.3660103 Z" id="Shape"/></g><g id="(&lt;10-mins/wk-of-acti" transform="translate(69.0753, 189.863)" fill="#2E008B" fill-rule="nonzero"><path d="M7.32384418,21.5869007 C6.43086473,20.4601884 5.67572774,19.1416952 5.05843322,17.6314212 C4.4411387,16.1211473 4.13249144,14.5569349 4.13249144,12.9387842 C4.13249144,11.5124144 4.36322774,10.145976 4.82470034,8.83946918 C5.3640839,7.32320205 6.19713185,5.81292808 7.32384418,4.30864726 L8.48351884,4.30864726 C7.7583476,5.5552226 7.27889555,6.44520548 7.04516267,6.97859589 C6.67958048,7.80565068 6.39190925,8.66866438 6.18214897,9.56763699 C5.92444349,10.6883562 5.79559075,11.8150685 5.79559075,12.947774 C5.79559075,15.8304795 6.69156678,18.7101884 8.48351884,21.5869007 L7.32384418,21.5869007 Z" id="Path"/><polygon id="Path" points="10.1556079 11.9499144 10.1556079 10.4396404 18.8846318 6.75385274 18.8846318 8.3630137 11.9625428 11.2037671 18.8846318 14.0714897 18.8846318 15.6806507"/><path d="M26.7596318,17.7123288 L25.1414812,17.7123288 L25.1414812,7.40111301 C24.7519264,7.77268836 24.2410103,8.1442637 23.6087329,8.51583904 C22.9764555,8.88741438 22.4086045,9.16609589 21.9051798,9.35188356 L21.9051798,7.78767123 C22.8101455,7.36215753 23.6012414,6.84674658 24.2784675,6.24143836 C24.9556935,5.63613014 25.4351455,5.04880137 25.7168236,4.47945205 L26.7596318,4.47945205 L26.7596318,17.7123288 Z" id="Path"/><path d="M30.9038955,11.2127568 C30.9038955,9.65453767 31.0642123,8.40047089 31.3848459,7.45055651 C31.7054795,6.50064212 32.1819349,5.76797945 32.8142123,5.25256849 C33.4464897,4.73715753 34.2420805,4.47945205 35.2009846,4.47945205 C35.9081764,4.47945205 36.5284675,4.62178938 37.0618579,4.90646404 C37.5952483,5.1911387 38.0357449,5.60166952 38.3833476,6.13805651 C38.7309503,6.67444349 39.0036387,7.32769692 39.2014127,8.09781678 C39.3991866,8.86793664 39.4980736,9.90625 39.4980736,11.2127568 C39.4980736,12.7589897 39.3392551,14.0070634 39.0216182,14.9569777 C38.7039812,15.9068921 38.229024,16.6410531 37.5967466,17.1594606 C36.9644692,17.6778682 36.1658818,17.9370719 35.2009846,17.9370719 C33.9304366,17.9370719 32.9325771,17.4815925 32.2074058,16.5706336 C31.338399,15.473887 30.9038955,13.6879281 30.9038955,11.2127568 Z M32.5669949,11.2127568 C32.5669949,13.3762842 32.8202055,14.8161387 33.3266267,15.5323202 C33.8330479,16.2485017 34.4578339,16.6065925 35.2009846,16.6065925 C35.9441353,16.6065925 36.5689212,16.2470034 37.0753425,15.5278253 C37.5817637,14.8086473 37.8349743,13.3702911 37.8349743,11.2127568 C37.8349743,9.0432363 37.5817637,7.60188356 37.0753425,6.88869863 C36.5689212,6.1755137 35.9381421,5.81892123 35.1830051,5.81892123 C34.4398545,5.81892123 33.8465325,6.13356164 33.4030394,6.76284247 C32.8456764,7.56592466 32.5669949,9.04922945 32.5669949,11.2127568 Z" id="Shape"/><path d="M46.7078339,17.7123288 L46.7078339,8.16523973 L48.1551798,8.16523973 L48.1551798,9.5047089 C48.4548373,9.03724315 48.8533818,8.66117295 49.3508134,8.37649829 C49.8482449,8.09182363 50.4145976,7.9494863 51.0498716,7.9494863 C51.7570634,7.9494863 52.3369007,8.09631849 52.7893836,8.38998288 C53.2418664,8.68364726 53.5610017,9.09417808 53.7467894,9.62157534 C54.5019264,8.50684932 55.4848031,7.9494863 56.6954195,7.9494863 C57.6423373,7.9494863 58.3705051,8.21168664 58.8799229,8.73608733 C59.3893408,9.26048801 59.6440497,10.0680651 59.6440497,11.1588185 L59.6440497,17.7123288 L58.0348887,17.7123288 L58.0348887,11.6982021 C58.0348887,11.0509418 57.9824486,10.5849743 57.8775685,10.3002997 C57.7726884,10.015625 57.5824058,9.78638699 57.3067209,9.61258562 C57.031036,9.43878425 56.7074058,9.35188356 56.3358305,9.35188356 C55.6645976,9.35188356 55.1072346,9.57512842 54.6637414,10.0216182 C54.2202483,10.4681079 53.9985017,11.1827911 53.9985017,12.1656678 L53.9985017,17.7123288 L52.380351,17.7123288 L52.380351,11.5094178 C52.380351,10.7902397 52.2485017,10.2508562 51.9848031,9.89126712 C51.7211045,9.53167808 51.2895976,9.35188356 50.6902825,9.35188356 C50.2348031,9.35188356 49.8137842,9.47174658 49.427226,9.7114726 C49.0406678,9.95119863 48.760488,10.3017979 48.5866866,10.7632705 C48.4128853,11.2247432 48.3259846,11.8899829 48.3259846,12.7589897 L48.3259846,17.7123288 L46.7078339,17.7123288 Z" id="Path"/><path d="M62.0532962,6.3942637 L62.0532962,4.53339041 L63.6714469,4.53339041 L63.6714469,6.3942637 L62.0532962,6.3942637 Z M62.0532962,17.7123288 L62.0532962,8.16523973 L63.6714469,8.16523973 L63.6714469,17.7123288 L62.0532962,17.7123288 Z" id="Shape"/><path d="M66.1346318,17.7123288 L66.1346318,8.16523973 L67.5909675,8.16523973 L67.5909675,9.52268836 C68.2921661,8.47388699 69.3050086,7.9494863 70.6294949,7.9494863 C71.2048373,7.9494863 71.7337329,8.05286815 72.2161815,8.25963185 C72.6986301,8.46639555 73.0597175,8.73758562 73.2994435,9.07320205 C73.5391695,9.40881849 73.7069777,9.80736301 73.8028682,10.2688356 C73.8627997,10.5684932 73.8927654,11.0928938 73.8927654,11.8420377 L73.8927654,17.7123288 L72.2746147,17.7123288 L72.2746147,11.9049658 C72.2746147,11.2457192 72.2116866,10.7527825 72.0858305,10.4261558 C71.9599743,10.0995291 71.7367295,9.83882705 71.4160959,9.64404966 C71.0954623,9.44927226 70.7193921,9.35188356 70.2878853,9.35188356 C69.5986729,9.35188356 69.0038527,9.57063356 68.5034247,10.0081336 C68.0029966,10.4456336 67.7527825,11.2756849 67.7527825,12.4982877 L67.7527825,17.7123288 L66.1346318,17.7123288 Z" id="Path"/><path d="M75.7266695,14.8625856 L77.3268408,14.6108733 C77.416738,15.2521404 77.6669521,15.7435788 78.0774829,16.0851884 C78.4880137,16.4267979 79.0618579,16.5976027 79.7990154,16.5976027 C80.5421661,16.5976027 81.093536,16.4462757 81.453125,16.1436216 C81.812714,15.8409675 81.9925086,15.4858733 81.9925086,15.078339 C81.9925086,14.7127568 81.8336901,14.4250856 81.5160531,14.2153253 C81.2943065,14.0714897 80.7429366,13.8886986 79.8619435,13.6669521 C78.6752997,13.3672945 77.8527397,13.1080908 77.3942637,12.8893408 C76.9357877,12.6705908 76.5881849,12.3679366 76.3514555,11.9813784 C76.114726,11.5948202 75.9963613,11.1678082 75.9963613,10.7003425 C75.9963613,10.2748288 76.09375,9.88077911 76.2885274,9.51819349 C76.4833048,9.15560788 76.7485017,8.85445205 77.0841182,8.61472603 C77.3358305,8.42893836 77.6789384,8.27161815 78.1134418,8.14276541 C78.5479452,8.01391267 79.0139127,7.9494863 79.5113442,7.9494863 C80.260488,7.9494863 80.9182363,8.05736301 81.484589,8.27311644 C82.0509418,8.48886986 82.468964,8.78103596 82.7386558,9.14961473 C83.0083476,9.51819349 83.1941353,10.0111301 83.2960188,10.6284247 L81.7138271,10.8441781 C81.6419092,10.3527397 81.4336473,9.96917808 81.0890411,9.69349315 C80.7444349,9.41780822 80.2574914,9.27996575 79.6282106,9.27996575 C78.8850599,9.27996575 78.3546661,9.40282534 78.0370291,9.64854452 C77.7193921,9.8942637 77.5605736,10.1819349 77.5605736,10.5115582 C77.5605736,10.7213185 77.6264983,10.9101027 77.7583476,11.077911 C77.8901969,11.2517123 78.0969606,11.3955479 78.3786387,11.5094178 C78.5404538,11.5693493 79.0169092,11.7071918 79.8080051,11.9229452 C80.9526969,12.2285959 81.7512842,12.4788099 82.2037671,12.6735873 C82.65625,12.8683647 83.0113442,13.1515411 83.2690497,13.5231164 C83.5267551,13.8946918 83.6556079,14.3561644 83.6556079,14.9075342 C83.6556079,15.4469178 83.4982877,15.9548373 83.1836473,16.4312928 C82.8690068,16.9077483 82.4150257,17.2763271 81.8217038,17.5370291 C81.2283818,17.7977312 80.557149,17.9280822 79.8080051,17.9280822 C78.5674229,17.9280822 77.6220034,17.6703767 76.9717466,17.1549658 C76.3214897,16.6395548 75.906464,15.8754281 75.7266695,14.8625856 Z" id="Path"/><polygon id="Path" points="84.3657962 17.9370719 88.1864298 4.30864726 89.4809503 4.30864726 85.6693065 17.9370719"/><path d="M92.4565497,17.7123288 L89.5348887,8.16523973 L91.2069777,8.16523973 L92.7262414,13.6759418 L93.2925942,15.7255993 C93.3165668,15.6237158 93.4813784,14.9674658 93.7870291,13.7568493 L95.3062928,8.16523973 L96.9693921,8.16523973 L98.3987586,13.702911 L98.875214,15.5278253 L99.4235873,13.6849315 L101.059717,8.16523973 L102.63292,8.16523973 L99.6483305,17.7123288 L97.9672517,17.7123288 L96.447988,11.994863 L96.0794092,10.3677226 L94.1466182,17.7123288 L92.4565497,17.7123288 Z" id="Path"/><polygon id="Path" points="103.999358 17.7123288 103.999358 4.53339041 105.617509 4.53339041 105.617509 12.0488014 109.447132 8.16523973 111.541738 8.16523973 107.891909 11.7071918 111.910317 17.7123288 109.914598 17.7123288 106.759204 12.8309075 105.617509 13.9276541 105.617509 17.7123288"/><path d="M16.6776541,33.651113 C16.6776541,31.8831336 17.1690925,30.5736301 18.1519692,29.7226027 C18.9730308,29.015411 19.973887,28.6618151 21.1545377,28.6618151 C22.4670377,28.6618151 23.5398116,29.0918236 24.3728596,29.9518408 C25.2059075,30.8118579 25.6224315,32 25.6224315,33.5162671 C25.6224315,34.744863 25.4381421,35.7112586 25.0695634,36.4154538 C24.7009846,37.119649 24.1645976,37.666524 23.4604024,38.0560788 C22.7562072,38.4456336 21.9875856,38.640411 21.1545377,38.640411 C19.8180651,38.640411 18.7377997,38.2119007 17.9137414,37.3548801 C17.0896832,36.4978596 16.6776541,35.2632705 16.6776541,33.651113 Z M18.3407534,33.651113 C18.3407534,34.8737158 18.6074486,35.7891695 19.140839,36.3974743 C19.6742295,37.0057791 20.3454623,37.3099315 21.1545377,37.3099315 C21.9576199,37.3099315 22.6258562,37.0042808 23.1592466,36.3929795 C23.692637,35.7816781 23.9593322,34.8497432 23.9593322,33.5971747 C23.9593322,32.416524 23.6911387,31.5220462 23.1547517,30.9137414 C22.6183647,30.3054366 21.9516267,30.0012842 21.1545377,30.0012842 C20.3454623,30.0012842 19.6742295,30.3039384 19.140839,30.9092466 C18.6074486,31.5145548 18.3407534,32.4285103 18.3407534,33.651113 Z" id="Shape"/><path d="M27.9058219,38.4246575 L27.9058219,30.1361301 L26.4764555,30.1361301 L26.4764555,28.8775685 L27.9058219,28.8775685 L27.9058219,27.8617295 C27.9058219,27.2204623 27.9627568,26.7440068 28.0766267,26.432363 C28.2324486,26.0128425 28.5066353,25.6727312 28.8991866,25.4120291 C29.291738,25.1513271 29.8416096,25.020976 30.5488014,25.020976 C31.0042808,25.020976 31.5077055,25.0749144 32.0590753,25.1827911 L31.8163527,26.5941781 C31.4807363,26.5342466 31.1630993,26.5042808 30.8634418,26.5042808 C30.3720034,26.5042808 30.0244007,26.609161 29.8206336,26.8189212 C29.6168664,27.0286815 29.5149829,27.4212329 29.5149829,27.9965753 L29.5149829,28.8775685 L31.3758562,28.8775685 L31.3758562,30.1361301 L29.5149829,30.1361301 L29.5149829,38.4246575 L27.9058219,38.4246575 Z" id="Path"/><path d="M43.9794521,37.2470034 C43.380137,37.7564212 42.8032962,38.1160103 42.2489298,38.3257705 C41.6945634,38.5355308 41.0997432,38.640411 40.4644692,38.640411 C39.4156678,38.640411 38.609589,38.3842038 38.0462329,37.8717894 C37.4828767,37.359375 37.2011986,36.7046233 37.2011986,35.9075342 C37.2011986,35.4400685 37.3075771,35.0130565 37.5203339,34.6264983 C37.7330908,34.2399401 38.0117723,33.9297945 38.3563784,33.6960616 C38.7009846,33.4623288 39.0890411,33.2855308 39.5205479,33.1656678 C39.8381849,33.0817637 40.317637,33.0008562 40.9589041,32.9229452 C42.265411,32.7671233 43.2273116,32.5813356 43.8446062,32.3655822 C43.8505993,32.1438356 43.8535959,32.0029966 43.8535959,31.9430651 C43.8535959,31.2838185 43.7007705,30.8193493 43.3951199,30.5496575 C42.9815925,30.1840753 42.3672945,30.0012842 41.552226,30.0012842 C40.7910959,30.0012842 40.229238,30.1346318 39.8666524,30.4013271 C39.5040668,30.6680223 39.2358733,31.1399829 39.0620719,31.8172089 L37.4798801,31.6014555 C37.6237158,30.9242295 37.8604452,30.3773545 38.1900685,29.9608305 C38.5196918,29.5443065 38.9961473,29.2236729 39.6194349,28.9989298 C40.2427226,28.7741866 40.9648973,28.6618151 41.7859589,28.6618151 C42.6010274,28.6618151 43.2632705,28.7577055 43.7726884,28.9494863 C44.2821062,29.1412671 44.6566781,29.3824914 44.8964041,29.6731592 C45.1361301,29.9638271 45.3039384,30.3309075 45.3998288,30.7744007 C45.4537671,31.0500856 45.4807363,31.5475171 45.4807363,32.2666952 L45.4807363,34.4242295 C45.4807363,35.9285103 45.5151969,36.8799229 45.5841182,37.2784675 C45.6530394,37.677012 45.7893836,38.0590753 45.9931507,38.4246575 L44.3030822,38.4246575 C44.135274,38.0890411 44.0273973,37.6964897 43.9794521,37.2470034 Z M43.8446062,33.6331336 C43.2572774,33.8728596 42.3762842,34.0766267 41.2016267,34.2444349 C40.536387,34.3403253 40.0659247,34.4482021 39.7902397,34.5680651 C39.5145548,34.6879281 39.3017979,34.8632277 39.1519692,35.093964 C39.0021404,35.3247003 38.927226,35.5809075 38.927226,35.8625856 C38.927226,36.2940925 39.0905394,36.6536815 39.4171661,36.9413527 C39.7437928,37.229024 40.2217466,37.3728596 40.8510274,37.3728596 C41.4743151,37.3728596 42.0286815,37.2365154 42.5141267,36.9638271 C42.9995719,36.6911387 43.3561644,36.3180651 43.5839041,35.8446062 C43.7577055,35.479024 43.8446062,34.9396404 43.8446062,34.2264555 L43.8446062,33.6331336 Z" id="Shape"/><path d="M54.21875,34.9276541 L55.8099315,35.1344178 C55.6361301,36.2311644 55.1911387,37.0896832 54.4749572,37.7099743 C53.7587757,38.3302654 52.8792808,38.640411 51.8364726,38.640411 C50.5299658,38.640411 49.4796661,38.213399 48.6855736,37.359375 C47.8914812,36.505351 47.4944349,35.28125 47.4944349,33.6870719 C47.4944349,32.65625 47.6652397,31.7542808 48.0068493,30.9811644 C48.3484589,30.2080479 48.8683647,29.6282106 49.5665668,29.2416524 C50.2647688,28.8550942 51.0244007,28.6618151 51.8454623,28.6618151 C52.8822774,28.6618151 53.7303082,28.9240154 54.3895548,29.4484161 C55.0488014,29.9728168 55.4713185,30.7174658 55.6571062,31.682363 L54.0839041,31.9250856 C53.9340753,31.2838185 53.6688784,30.8013699 53.2883134,30.4777397 C52.9077483,30.1541096 52.447774,29.9922945 51.9083904,29.9922945 C51.0933219,29.9922945 50.4310788,30.2844606 49.921661,30.8687928 C49.4122432,31.453125 49.1575342,32.3775685 49.1575342,33.6421233 C49.1575342,34.9246575 49.4032534,35.8565925 49.8946918,36.4379281 C50.3861301,37.0192637 51.0273973,37.3099315 51.8184932,37.3099315 C52.4537671,37.3099315 52.984161,37.1151541 53.4096747,36.7255993 C53.8351884,36.3360445 54.1048801,35.7367295 54.21875,34.9276541 Z" id="Path"/><path d="M60.7273116,36.9773116 L60.9610445,38.4066781 C60.5055651,38.5025685 60.0980308,38.5505137 59.7384418,38.5505137 C59.151113,38.5505137 58.6956336,38.4576199 58.3720034,38.2718322 C58.0483733,38.0860445 57.8206336,37.8418236 57.6887842,37.5391695 C57.5569349,37.2365154 57.4910103,36.5997432 57.4910103,35.6288527 L57.4910103,30.1361301 L56.3043664,30.1361301 L56.3043664,28.8775685 L57.4910103,28.8775685 L57.4910103,26.5132705 L59.1001712,25.5423801 L59.1001712,28.8775685 L60.7273116,28.8775685 L60.7273116,30.1361301 L59.1001712,30.1361301 L59.1001712,35.71875 C59.1001712,36.1802226 59.1286387,36.4768836 59.1855736,36.6087329 C59.2425086,36.7405822 59.3354024,36.8454623 59.4642551,36.9233733 C59.5931079,37.0012842 59.7773973,37.0402397 60.0171233,37.0402397 C60.1969178,37.0402397 60.4336473,37.0192637 60.7273116,36.9773116 Z" id="Path"/><path d="M62.3184932,27.1065925 L62.3184932,25.2457192 L63.9366438,25.2457192 L63.9366438,27.1065925 L62.3184932,27.1065925 Z M62.3184932,38.4246575 L62.3184932,28.8775685 L63.9366438,28.8775685 L63.9366438,38.4246575 L62.3184932,38.4246575 Z" id="Shape"/><path d="M69.0517979,38.4246575 L65.4199486,28.8775685 L67.1279966,28.8775685 L69.1776541,34.5950342 C69.3994007,35.2123288 69.6031678,35.8535959 69.7889555,36.5188356 C69.9327911,36.015411 70.1335616,35.4101027 70.3912671,34.702911 L72.5128425,28.8775685 L74.1759418,28.8775685 L70.5620719,38.4246575 L69.0517979,38.4246575 Z" id="Path"/><path d="M75.6142979,27.1065925 L75.6142979,25.2457192 L77.2324486,25.2457192 L77.2324486,27.1065925 L75.6142979,27.1065925 Z M75.6142979,38.4246575 L75.6142979,28.8775685 L77.2324486,28.8775685 L77.2324486,38.4246575 L75.6142979,38.4246575 Z" id="Shape"/><path d="M83.2285959,36.9773116 L83.4623288,38.4066781 C83.0068493,38.5025685 82.5993151,38.5505137 82.239726,38.5505137 C81.6523973,38.5505137 81.1969178,38.4576199 80.8732877,38.2718322 C80.5496575,38.0860445 80.3219178,37.8418236 80.1900685,37.5391695 C80.0582192,37.2365154 79.9922945,36.5997432 79.9922945,35.6288527 L79.9922945,30.1361301 L78.8056507,30.1361301 L78.8056507,28.8775685 L79.9922945,28.8775685 L79.9922945,26.5132705 L81.6014555,25.5423801 L81.6014555,28.8775685 L83.2285959,28.8775685 L83.2285959,30.1361301 L81.6014555,30.1361301 L81.6014555,35.71875 C81.6014555,36.1802226 81.6299229,36.4768836 81.6868579,36.6087329 C81.7437928,36.7405822 81.8366866,36.8454623 81.9655394,36.9233733 C82.0943921,37.0012842 82.2786815,37.0402397 82.5184075,37.0402397 C82.6982021,37.0402397 82.9349315,37.0192637 83.2285959,36.9773116 Z" id="Path"/><path d="M84.7388699,42.1014555 L84.5590753,40.5821918 C84.9126712,40.6780822 85.2213185,40.7260274 85.4850171,40.7260274 C85.8446062,40.7260274 86.1322774,40.6660959 86.3480308,40.5462329 C86.5637842,40.4263699 86.7405822,40.2585616 86.8784247,40.0428082 C86.9803082,39.8809932 87.1451199,39.4794521 87.3728596,38.8381849 C87.4028253,38.7482877 87.4507705,38.6164384 87.5166952,38.442637 L83.8938356,28.8775685 L85.6378425,28.8775685 L87.6245719,34.40625 C87.8822774,35.1074486 88.1130137,35.8446062 88.3167808,36.6177226 C88.5025685,35.8745719 88.7243151,35.1494007 88.9820205,34.4422089 L91.0226884,28.8775685 L92.640839,28.8775685 L89.0089897,38.5864726 C88.6194349,39.635274 88.3167808,40.3574486 88.1010274,40.7529966 C87.8133562,41.286387 87.4837329,41.6774401 87.1121575,41.9261558 C86.7405822,42.1748716 86.297089,42.2992295 85.7816781,42.2992295 C85.4700342,42.2992295 85.1224315,42.2333048 84.7388699,42.1014555 Z" id="Path"/><path d="M95.0770548,42.2992295 L93.9173801,42.2992295 C95.7093322,39.4225171 96.6053082,36.5428082 96.6053082,33.6601027 C96.6053082,32.5333904 96.4764555,31.4156678 96.21875,30.3069349 C96.0149829,29.4079623 95.7303082,28.5449486 95.364726,27.7178938 C95.1309932,27.1785103 94.6485445,26.2795377 93.9173801,25.020976 L95.0770548,25.020976 C96.2037671,26.5252568 97.0368151,28.0355308 97.5761986,29.5517979 C98.0376712,30.8583048 98.2684075,32.2247432 98.2684075,33.651113 C98.2684075,35.2692637 97.958262,36.833476 97.3379709,38.34375 C96.7176798,39.854024 95.9640411,41.1725171 95.0770548,42.2992295 Z" id="Path"/></g></g></g></g></g></svg>