<?xml version="1.0" encoding="UTF-8"?><svg width="297px" height="297px" viewBox="0 0 297 297" version="1.1" xmlns="http://www.w3.org/2000/svg" xmlns:xlink="http://www.w3.org/1999/xlink"><title>47.4</title><g id="Screen-Design" stroke="none" stroke-width="1" fill="none" fill-rule="evenodd"><g id="Lesson-1-ClientR2-Exports" transform="translate(-260, -1155)"><g id="47.4" transform="translate(299, 1194)"><g id="Group" transform="translate(-16, -16)"><circle id="Oval" stroke="#BB16A3" stroke-width="6.33165829" fill="#FFFFFF" cx="126" cy="126" r="122.834171"/><g id="47.4%" transform="translate(61, 40)" fill="#2E008B" fill-rule="nonzero"><path d="M16.3601509,13.4141695 L22.9675995,13.4141695 L22.9675995,35.7615047 L26.0589416,35.7615047 L26.0589416,41.8733947 L22.9675995,41.8733947 L22.9675995,49 L16.5017391,49 L16.5017391,41.8733947 L1.3518033,41.8733947 L1.3518033,35.7615047 L16.3601509,13.4141695 Z M16.5017391,35.7615047 L16.5017391,24.1276755 L8.57280073,35.7615047 L16.5017391,35.7615047 Z" id="Shape"/><polygon id="Path" points="30.3301851 14.2872967 53.1022849 14.2872967 53.1022849 17.7562072 37.4331924 49.8731271 31.8404591 47.1593536 44.8665721 20.4935788 30.3301851 20.4935788"/><path d="M54.2672036,42.2745612 C55.2897849,42.2745612 56.162912,42.6324647 56.886585,43.3482716 C57.6102579,44.0640786 57.9720944,44.9332727 57.9720944,45.955854 C57.9720944,46.9784354 57.6102579,47.8515625 56.886585,48.5752354 C56.162912,49.2989084 55.2897849,49.6607449 54.2672036,49.6607449 C53.2446222,49.6607449 52.3714951,49.2989084 51.6478221,48.5752354 C50.9241492,47.8515625 50.5623127,46.9784354 50.5623127,45.955854 C50.5623127,44.9332727 50.9241492,44.0640786 51.6478221,43.3482716 C52.3714951,42.6324647 53.2446222,42.2745612 54.2672036,42.2745612 Z" id="Path"/><path d="M77.0157053,13.4141695 L83.6231539,13.4141695 L83.6231539,35.7615047 L86.7144959,35.7615047 L86.7144959,41.8733947 L83.6231539,41.8733947 L83.6231539,49 L77.1572935,49 L77.1572935,41.8733947 L62.0073577,41.8733947 L62.0073577,35.7615047 L77.0157053,13.4141695 Z M77.1572935,35.7615047 L77.1572935,24.1276755 L69.2283551,35.7615047 L77.1572935,35.7615047 Z" id="Shape"/><path d="M119.987719,12.7534247 L124.754522,12.7534247 L97.2392177,51.3598031 L92.4724155,51.3598031 L115.999652,18.2045698 C114.58377,18.4405501 113.254415,18.6175353 112.011585,18.7355255 C110.768755,18.8535156 109.620318,18.9125107 108.566272,18.9125107 C107.480763,18.9125107 106.332326,18.8574486 105.12096,18.7473245 C105.467064,19.8485659 105.640117,20.8475492 105.640117,21.7442744 C105.640117,24.0411494 104.841717,25.9919199 103.244917,27.596586 C101.648116,29.2012521 99.7012789,30.0035852 97.4044039,30.0035852 C95.0917969,30.0035852 93.1252943,29.2012521 91.5048962,27.596586 C89.8844981,25.9919199 89.074299,24.0490154 89.074299,21.7678724 C89.074299,20.2890625 89.4361355,18.9164437 90.1598084,17.6500161 C90.8834814,16.3835884 91.9021297,15.3610071 93.2157534,14.582272 C94.5293771,13.803537 95.8312018,13.4141695 97.1212275,13.4141695 C98.0966128,13.4141695 99.4417006,13.6029538 101.156491,13.9805223 C104.192771,14.6412671 106.867214,14.9716396 109.179821,14.9716396 C111.27218,14.9716396 113.219018,14.7867883 115.020334,14.4170858 C116.82165,14.0473833 118.477445,13.4928296 119.987719,12.7534247 Z M97.3572078,17.7326092 C96.2559664,17.7326092 95.3159782,18.1219767 94.5372432,18.9007117 C93.7585081,19.6794467 93.3691406,20.6115689 93.3691406,21.6970783 C93.3691406,22.7983198 93.7585081,23.738308 94.5372432,24.517043 C95.3159782,25.295778 96.2559664,25.6851455 97.3572078,25.6851455 C98.4584493,25.6851455 99.3984375,25.295778 100.177173,24.517043 C100.955908,23.738308 101.345275,22.7983198 101.345275,21.6970783 C101.345275,20.5958369 100.955908,19.6597817 100.177173,18.8889127 C99.3984375,18.1180437 98.4584493,17.7326092 97.3572078,17.7326092 Z M120.365288,33.3545056 C122.646431,33.3545056 124.597201,34.1647046 126.2176,35.7851027 C127.837998,37.4055009 128.648197,39.3641374 128.648197,41.6610124 C128.648197,43.9421554 127.837998,45.8929259 126.2176,47.5133241 C124.597201,49.1337222 122.646431,49.9439212 120.365288,49.9439212 C118.068413,49.9439212 116.113709,49.1337222 114.501177,47.5133241 C112.888645,45.8929259 112.082379,43.9421554 112.082379,41.6610124 C112.082379,39.3641374 112.888645,37.4055009 114.501177,35.7851027 C116.113709,34.1647046 118.068413,33.3545056 120.365288,33.3545056 Z M120.34169,37.6257491 C119.224716,37.6257491 118.276862,38.0190497 117.498127,38.8056507 C116.719392,39.5922517 116.330025,40.5361729 116.330025,41.6374144 C116.330025,42.7386558 116.719392,43.6825771 117.498127,44.4691781 C118.276862,45.2557791 119.224716,45.6490796 120.34169,45.6490796 C121.442931,45.6490796 122.38292,45.2557791 123.161655,44.4691781 C123.94039,43.6825771 124.329757,42.7386558 124.329757,41.6374144 C124.329757,40.5361729 123.94039,39.5922517 123.161655,38.8056507 C122.38292,38.0190497 121.442931,37.6257491 120.34169,37.6257491 Z" id="Shape"/></g><g id="had-an-A1C-of-7.0%-o" transform="translate(42.5753, 97.8082)" fill="#2E008B" fill-rule="nonzero"><path d="M43.5866866,25.9178082 L43.5866866,6.14940068 L46.0139127,6.14940068 L46.0139127,13.2422945 C47.1466182,11.9297945 48.5759846,11.2735445 50.302012,11.2735445 C51.3627997,11.2735445 52.2842466,11.4825557 53.0663527,11.9005779 C53.8484589,12.3186002 54.4080693,12.8961901 54.7451841,13.6333476 C55.0822988,14.3705051 55.2508562,15.4402825 55.2508562,16.8426798 L55.2508562,25.9178082 L52.8236301,25.9178082 L52.8236301,16.8426798 C52.8236301,15.6290668 52.5606807,14.7458262 52.0347817,14.192958 C51.5088827,13.6400899 50.7649829,13.3636558 49.8030822,13.3636558 C49.0839041,13.3636558 48.4074272,13.5501926 47.7736515,13.9232663 C47.1398759,14.2963399 46.6881421,14.802012 46.4184503,15.4402825 C46.1487586,16.0785531 46.0139127,16.9595462 46.0139127,18.083262 L46.0139127,25.9178082 L43.5866866,25.9178082 Z" id="Path"/><path d="M68.2904538,24.1513271 C67.3914812,24.9154538 66.52622,25.4548373 65.6946704,25.7694777 C64.8631207,26.0841182 63.9708904,26.2414384 63.0179795,26.2414384 C61.4447774,26.2414384 60.2356592,25.8571276 59.390625,25.088506 C58.5455908,24.3198844 58.1230736,23.3377568 58.1230736,22.1421233 C58.1230736,21.4409247 58.2826413,20.8004067 58.6017765,20.2205693 C58.9209118,19.640732 59.3389341,19.1755137 59.8558433,18.8249144 C60.3727526,18.4743151 60.9548373,18.2091182 61.6020976,18.0293236 C62.0785531,17.9034675 62.7977312,17.7821062 63.7596318,17.6652397 C65.7193921,17.4315068 67.1622432,17.1528253 68.0881849,16.8291952 C68.0971747,16.4965753 68.1016695,16.2853168 68.1016695,16.1954195 C68.1016695,15.2065497 67.8724315,14.5098459 67.4139555,14.1053082 C66.7936644,13.5569349 65.8722175,13.2827483 64.6496147,13.2827483 C63.5079195,13.2827483 62.6651327,13.4827697 62.1212543,13.8828125 C61.5773759,14.2828553 61.1750856,14.9907962 60.9143836,16.0066353 L58.5410959,15.6830051 C58.7568493,14.6671661 59.1119435,13.8468536 59.6063784,13.2220676 C60.1008134,12.5972817 60.8154966,12.1163313 61.7504281,11.7792166 C62.6853596,11.4421019 63.7686216,11.2735445 65.000214,11.2735445 C66.2228168,11.2735445 67.2161815,11.4173801 67.9803082,11.7050514 C68.7444349,11.9927226 69.3062928,12.3545591 69.6658818,12.7905608 C70.0254709,13.2265625 70.2771832,13.7771832 70.4210188,14.4424229 C70.5019264,14.8559503 70.5423801,15.6020976 70.5423801,16.6808647 L70.5423801,19.9171661 C70.5423801,22.1735873 70.5940711,23.6007063 70.6974529,24.1985231 C70.8008348,24.7963399 71.005351,25.3694349 71.3110017,25.9178082 L68.775899,25.9178082 C68.5241866,25.4143836 68.3623716,24.8255565 68.2904538,24.1513271 Z M68.0881849,18.7305223 C67.2071918,19.0901113 65.8857021,19.395762 64.1237158,19.6474743 C63.1258562,19.7913099 62.4201627,19.953125 62.0066353,20.1329195 C61.5931079,20.312714 61.2739726,20.5756635 61.0492295,20.921768 C60.8244863,21.2678724 60.7121147,21.6521832 60.7121147,22.0747003 C60.7121147,22.7219606 60.9570848,23.2613442 61.4470248,23.692851 C61.9369649,24.1243579 62.6538955,24.3401113 63.5978168,24.3401113 C64.5327483,24.3401113 65.3642979,24.135595 66.0924658,23.7265625 C66.8206336,23.31753 67.3555223,22.7579195 67.6971318,22.0477312 C67.9578339,21.4993579 68.0881849,20.6902825 68.0881849,19.6205051 L68.0881849,18.7305223 Z" id="Shape"/><path d="M83.5954623,25.9178082 L83.5954623,24.1108733 C82.6875,25.53125 81.3525257,26.2414384 79.5905394,26.2414384 C78.4488442,26.2414384 77.3992937,25.9267979 76.4418878,25.2975171 C75.484482,24.6682363 74.7428296,23.7894906 74.2169307,22.66128 C73.6910317,21.5330693 73.4280822,20.2363014 73.4280822,18.770976 C73.4280822,17.3416096 73.6663099,16.0448416 74.1427654,14.8806721 C74.6192209,13.7165026 75.3339041,12.8242723 76.2868151,12.2039812 C77.239726,11.5836901 78.3050086,11.2735445 79.4826627,11.2735445 C80.3456764,11.2735445 81.1142979,11.4555865 81.7885274,11.8196704 C82.4627568,12.1837543 83.0111301,12.6579623 83.4336473,13.2422945 L83.4336473,6.14940068 L85.8473887,6.14940068 L85.8473887,25.9178082 L83.5954623,25.9178082 Z M75.9227312,18.770976 C75.9227312,20.6048801 76.3092894,21.9758134 77.0824058,22.8837757 C77.8555223,23.791738 78.7679795,24.2457192 79.8197774,24.2457192 C80.8805651,24.2457192 81.7817851,23.8119649 82.5234375,22.9444563 C83.2650899,22.0769478 83.6359161,20.7532106 83.6359161,18.9732449 C83.6359161,17.0134846 83.2583476,15.5751284 82.5032106,14.6581764 C81.7480736,13.7412243 80.817637,13.2827483 79.7119007,13.2827483 C78.6331336,13.2827483 77.7319135,13.7232449 77.0082406,14.604238 C76.2845676,15.4852312 75.9227312,16.8741438 75.9227312,18.770976 Z" id="Shape"/><path d="M106.681079,24.1513271 C105.782106,24.9154538 104.916845,25.4548373 104.085295,25.7694777 C103.253746,26.0841182 102.361515,26.2414384 101.408604,26.2414384 C99.8354024,26.2414384 98.6262842,25.8571276 97.78125,25.088506 C96.9362158,24.3198844 96.5136986,23.3377568 96.5136986,22.1421233 C96.5136986,21.4409247 96.6732663,20.8004067 96.9924015,20.2205693 C97.3115368,19.640732 97.7295591,19.1755137 98.2464683,18.8249144 C98.7633776,18.4743151 99.3454623,18.2091182 99.9927226,18.0293236 C100.469178,17.9034675 101.188356,17.7821062 102.150257,17.6652397 C104.110017,17.4315068 105.552868,17.1528253 106.47881,16.8291952 C106.4878,16.4965753 106.492295,16.2853168 106.492295,16.1954195 C106.492295,15.2065497 106.263057,14.5098459 105.80458,14.1053082 C105.184289,13.5569349 104.262842,13.2827483 103.04024,13.2827483 C101.898545,13.2827483 101.055758,13.4827697 100.511879,13.8828125 C99.9680009,14.2828553 99.5657106,14.9907962 99.3050086,16.0066353 L96.9317209,15.6830051 C97.1474743,14.6671661 97.5025685,13.8468536 97.9970034,13.2220676 C98.4914384,12.5972817 99.2061216,12.1163313 100.141053,11.7792166 C101.075985,11.4421019 102.159247,11.2735445 103.390839,11.2735445 C104.613442,11.2735445 105.606807,11.4173801 106.370933,11.7050514 C107.13506,11.9927226 107.696918,12.3545591 108.056507,12.7905608 C108.416096,13.2265625 108.667808,13.7771832 108.811644,14.4424229 C108.892551,14.8559503 108.933005,15.6020976 108.933005,16.6808647 L108.933005,19.9171661 C108.933005,22.1735873 108.984696,23.6007063 109.088078,24.1985231 C109.19146,24.7963399 109.395976,25.3694349 109.701627,25.9178082 L107.166524,25.9178082 C106.914812,25.4143836 106.752997,24.8255565 106.681079,24.1513271 Z M106.47881,18.7305223 C105.597817,19.0901113 104.276327,19.395762 102.514341,19.6474743 C101.516481,19.7913099 100.810788,19.953125 100.39726,20.1329195 C99.9837329,20.312714 99.6645976,20.5756635 99.4398545,20.921768 C99.2151113,21.2678724 99.1027397,21.6521832 99.1027397,22.0747003 C99.1027397,22.7219606 99.3477098,23.2613442 99.8376498,23.692851 C100.32759,24.1243579 101.044521,24.3401113 101.988442,24.3401113 C102.923373,24.3401113 103.754923,24.135595 104.483091,23.7265625 C105.211259,23.31753 105.746147,22.7579195 106.087757,22.0477312 C106.348459,21.4993579 106.47881,20.6902825 106.47881,19.6205051 L106.47881,18.7305223 Z" id="Shape"/><path d="M112.695205,25.9178082 L112.695205,11.5971747 L114.879709,11.5971747 L114.879709,13.6333476 C115.931507,12.0601455 117.450771,11.2735445 119.4375,11.2735445 C120.300514,11.2735445 121.093857,11.4286173 121.81753,11.7387628 C122.541203,12.0489084 123.082834,12.4556935 123.442423,12.9591182 C123.802012,13.4625428 124.053724,14.0603596 124.19756,14.7525685 C124.287457,15.2020548 124.332406,15.9886558 124.332406,17.1123716 L124.332406,25.9178082 L121.90518,25.9178082 L121.90518,17.2067637 C121.90518,16.2178938 121.810788,15.4784889 121.622003,14.9885488 C121.433219,14.4986087 121.098352,14.1075557 120.617402,13.8153896 C120.136451,13.5232235 119.572346,13.3771404 118.925086,13.3771404 C117.891267,13.3771404 116.999037,13.7052654 116.248395,14.3615154 C115.497753,15.0177654 115.122432,16.2628425 115.122432,18.0967466 L115.122432,25.9178082 L112.695205,25.9178082 Z" id="Path"/><path d="M24.0340325,55.8356164 L19.6919949,55.8356164 L17.9659675,51.3452483 L10.0639983,51.3452483 L8.43236301,55.8356164 L4.19820205,55.8356164 L11.8979024,36.0672089 L16.1185788,36.0672089 L24.0340325,55.8356164 Z M16.6849315,48.0145548 L13.9610445,40.6789384 L11.2910959,48.0145548 L16.6849315,48.0145548 Z" id="Shape"/><path d="M35.010488,55.8356164 L31.2213185,55.8356164 L31.2213185,41.5554366 C29.8369007,42.8499572 28.2052654,43.807363 26.3264127,44.4276541 L26.3264127,40.9890839 C27.3152825,40.6654538 28.3895548,40.051905 29.5492295,39.1484375 C30.7089041,38.24497 31.5044949,37.1909247 31.9360017,35.9863014 L35.010488,35.9863014 L35.010488,55.8356164 Z" id="Path"/><path d="M54.1586045,48.5674229 L58.0286815,49.7945205 C57.4353596,51.9520548 56.4487372,53.5544735 55.0688142,54.6017765 C53.6888913,55.6490796 51.9381421,56.1727312 49.8165668,56.1727312 C47.1915668,56.1727312 45.0340325,55.276006 43.343964,53.4825557 C41.6538955,51.6891053 40.8088613,49.2371575 40.8088613,46.1267123 C40.8088613,42.8364726 41.6583904,40.281143 43.3574486,38.4607235 C45.0565068,36.6403039 47.2904538,35.7300942 50.0592894,35.7300942 C52.4775257,35.7300942 54.4417808,36.4447774 55.9520548,37.8741438 C56.8510274,38.7191781 57.5252568,39.9327911 57.9747432,41.5149829 L54.0237586,42.4589041 C53.7900257,41.4340753 53.302333,40.625 52.5606807,40.0316781 C51.8190283,39.4383562 50.9178082,39.1416952 49.8570205,39.1416952 C48.3916952,39.1416952 47.2028039,39.6675942 46.2903467,40.7193921 C45.3778896,41.7711901 44.921661,43.4747432 44.921661,45.8300514 C44.921661,48.3291952 45.3711473,50.109161 46.2701199,51.1699486 C47.1690925,52.2307363 48.3377568,52.7611301 49.776113,52.7611301 C50.8369007,52.7611301 51.7493579,52.4240154 52.5134846,51.749786 C53.2776113,51.0755565 53.8259846,50.0147688 54.1586045,48.5674229 Z" id="Path"/><path d="M68.2230308,48.4730308 C68.2230308,47.2144692 68.5331764,45.9963613 69.1534675,44.8187072 C69.7737586,43.6410531 70.6525043,42.7420805 71.7897046,42.1217894 C72.926905,41.5014983 74.1967038,41.1913527 75.599101,41.1913527 C77.765625,41.1913527 79.5410959,41.8947988 80.9255137,43.3016909 C82.3099315,44.708583 83.0021404,46.4863014 83.0021404,48.6348459 C83.0021404,50.8013699 82.3031892,52.5970676 80.9052868,54.0219392 C79.5073844,55.4468108 77.7476455,56.1592466 75.6260702,56.1592466 C74.3135702,56.1592466 73.0617509,55.8625856 71.8706122,55.2692637 C70.6794735,54.6759418 69.7737586,53.8061858 69.1534675,52.6599957 C68.5331764,51.5138057 68.2230308,50.1181507 68.2230308,48.4730308 Z M72.1065925,48.6752997 C72.1065925,50.0956764 72.4437072,51.1834332 73.1179366,51.9385702 C73.7921661,52.6937072 74.6237158,53.0712757 75.6125856,53.0712757 C76.6014555,53.0712757 77.4307577,52.6937072 78.1004923,51.9385702 C78.7702269,51.1834332 79.1050942,50.0866866 79.1050942,48.6483305 C79.1050942,47.2459332 78.7702269,46.1671661 78.1004923,45.4120291 C77.4307577,44.6568921 76.6014555,44.2793236 75.6125856,44.2793236 C74.6237158,44.2793236 73.7921661,44.6568921 73.1179366,45.4120291 C72.4437072,46.1671661 72.1065925,47.2549229 72.1065925,48.6752997 Z" id="Shape"/><path d="M84.3101455,41.5149829 L86.4137414,41.5149829 L86.4137414,40.4362158 C86.4137414,39.2315925 86.541845,38.3326199 86.7980522,37.7392979 C87.0542594,37.145976 87.52622,36.6627783 88.2139341,36.2897046 C88.9016481,35.916631 89.7714041,35.7300942 90.8232021,35.7300942 C91.9019692,35.7300942 92.958262,35.8919092 93.9920805,36.2155394 L93.4796661,38.8585188 C92.8773545,38.7146832 92.2975171,38.6427654 91.7401541,38.6427654 C91.1917808,38.6427654 90.7984803,38.770869 90.5602526,39.0270762 C90.3220248,39.2832834 90.202911,39.7754709 90.202911,40.5036387 L90.202911,41.5149829 L93.0346747,41.5149829 L93.0346747,44.4950771 L90.202911,44.4950771 L90.202911,55.8356164 L86.4137414,55.8356164 L86.4137414,44.4950771 L84.3101455,44.4950771 L84.3101455,41.5149829 Z" id="Path"/><path d="M102.028896,39.8563784 L102.028896,36.3369007 L114.987586,36.3369007 L114.987586,39.0877568 C113.917808,40.1395548 112.830051,41.6498288 111.724315,43.6185788 C110.618579,45.5873288 109.775792,47.6796875 109.195955,49.895655 C108.616117,52.1116224 108.330693,54.0916096 108.339683,55.8356164 L104.68536,55.8356164 C104.748288,53.1027397 105.312393,50.3159247 106.377676,47.4751712 C107.442958,44.6344178 108.865582,42.0948202 110.645548,39.8563784 L102.028896,39.8563784 Z" id="Path"/><polygon id="Path" points="118.196918 55.8356164 118.196918 52.0464469 121.986087 52.0464469 121.986087 55.8356164"/><path d="M131.465753,35.9863014 C133.380565,35.9863014 134.877354,36.6695205 135.956122,38.0359589 C137.241652,39.6541096 137.884418,42.3375428 137.884418,46.0862586 C137.884418,49.8259846 137.237158,52.5139127 135.942637,54.1500428 C134.87286,55.4985017 133.380565,56.1727312 131.465753,56.1727312 C129.541952,56.1727312 127.991224,55.4333262 126.81357,53.9545163 C125.635916,52.4757063 125.047089,49.8394692 125.047089,46.0458048 C125.047089,42.3240582 125.694349,39.6451199 126.98887,38.0089897 C128.058647,36.6605308 129.550942,35.9863014 131.465753,35.9863014 Z M131.465753,39.1282106 C131.007277,39.1282106 130.598245,39.2742937 130.238656,39.5664598 C129.879067,39.8586259 129.600385,40.3822774 129.402611,41.1374144 C129.141909,42.1172945 129.011558,43.7669092 129.011558,46.0862586 C129.011558,48.4056079 129.128425,49.9990368 129.362158,50.8665454 C129.59589,51.7340539 129.890304,52.3116438 130.245398,52.5993151 C130.600492,52.8869863 131.007277,53.0308219 131.465753,53.0308219 C131.924229,53.0308219 132.333262,52.8847389 132.692851,52.5925728 C133.05244,52.3004067 133.331122,51.7767551 133.528896,51.0216182 C133.789598,50.0507277 133.919949,48.4056079 133.919949,46.0862586 C133.919949,43.7669092 133.803082,42.1734803 133.569349,41.3059717 C133.335616,40.4384632 133.041203,39.8586259 132.686109,39.5664598 C132.331015,39.2742937 131.924229,39.1282106 131.465753,39.1282106 Z" id="Shape"/><path d="M140.44649,40.9486301 C140.44649,39.1776541 140.835295,37.8651541 141.612907,37.0111301 C142.390518,36.1571062 143.444563,35.7300942 144.775043,35.7300942 C146.150471,35.7300942 147.226991,36.1548587 148.004602,37.0043878 C148.782213,37.853917 149.171019,39.1686644 149.171019,40.9486301 C149.171019,42.7196062 148.782213,44.0321062 148.004602,44.8861301 C147.226991,45.7401541 146.172945,46.1671661 144.842466,46.1671661 C143.467038,46.1671661 142.390518,45.7424015 141.612907,44.8928724 C140.835295,44.0433433 140.44649,42.7285959 140.44649,40.9486301 Z M143.399615,40.921661 C143.399615,42.2071918 143.547945,43.0702055 143.844606,43.5107021 C144.069349,43.8343322 144.379495,43.9961473 144.775043,43.9961473 C145.17958,43.9961473 145.494221,43.8343322 145.718964,43.5107021 C146.006635,43.0702055 146.150471,42.2071918 146.150471,40.921661 C146.150471,39.6361301 146.006635,38.7776113 145.718964,38.3461045 C145.494221,38.0134846 145.17958,37.8471747 144.775043,37.8471747 C144.379495,37.8471747 144.069349,38.0089897 143.844606,38.3326199 C143.547945,38.7731164 143.399615,39.6361301 143.399615,40.921661 Z M147.660745,56.5907534 L144.85595,56.5907534 L155.387414,35.7300942 L158.111301,35.7300942 L147.660745,56.5907534 Z M153.782748,51.3991866 C153.782748,49.6282106 154.171554,48.3157106 154.949165,47.4616866 C155.726777,46.6076627 156.789812,46.1806507 158.138271,46.1806507 C159.495719,46.1806507 160.563249,46.6076627 161.34086,47.4616866 C162.118472,48.3157106 162.507277,49.6282106 162.507277,51.3991866 C162.507277,53.1791524 162.118472,54.4961473 161.34086,55.3501712 C160.563249,56.2041952 159.509204,56.6312072 158.178724,56.6312072 C156.803296,56.6312072 155.726777,56.2041952 154.949165,55.3501712 C154.171554,54.4961473 153.782748,53.1791524 153.782748,51.3991866 Z M156.735873,51.3857021 C156.735873,52.6712329 156.884204,53.5297517 157.180865,53.9612586 C157.405608,54.2938784 157.715753,54.4601884 158.111301,54.4601884 C158.515839,54.4601884 158.825985,54.2983733 159.041738,53.9747432 C159.338399,53.5342466 159.486729,52.6712329 159.486729,51.3857021 C159.486729,50.1001712 159.342894,49.2371575 159.055223,48.796661 C158.830479,48.4730308 158.515839,48.3112158 158.111301,48.3112158 C157.706764,48.3112158 157.396618,48.4730308 157.180865,48.796661 C156.884204,49.2371575 156.735873,50.1001712 156.735873,51.3857021 Z" id="Shape"/><path d="M25.2678724,78.390839 C25.2678724,77.1322774 25.578018,75.9141695 26.1983091,74.7365154 C26.8186002,73.5588613 27.6973459,72.6598887 28.8345462,72.0395976 C29.9717466,71.4193065 31.2415454,71.109161 32.6439426,71.109161 C34.8104666,71.109161 36.5859375,71.812607 37.9703553,73.2194991 C39.3547731,74.6263913 40.046982,76.4041096 40.046982,78.5526541 C40.046982,80.7191781 39.3480308,82.5148759 37.9501284,83.9397474 C36.552226,85.364619 34.7924872,86.0770548 32.6709118,86.0770548 C31.3584118,86.0770548 30.1065925,85.7803938 28.9154538,85.1870719 C27.7243151,84.59375 26.8186002,83.723994 26.1983091,82.5778039 C25.578018,81.4316139 25.2678724,80.0359589 25.2678724,78.390839 Z M29.1514341,78.5931079 C29.1514341,80.0134846 29.4885488,81.1012414 30.1627783,81.8563784 C30.8370077,82.6115154 31.6685574,82.9890839 32.6574272,82.9890839 C33.6462971,82.9890839 34.4755993,82.6115154 35.1453339,81.8563784 C35.8150685,81.1012414 36.1499358,80.0044949 36.1499358,78.5661387 C36.1499358,77.1637414 35.8150685,76.0849743 35.1453339,75.3298373 C34.4755993,74.5747003 33.6462971,74.1971318 32.6574272,74.1971318 C31.6685574,74.1971318 30.8370077,74.5747003 30.1627783,75.3298373 C29.4885488,76.0849743 29.1514341,77.1727312 29.1514341,78.5931079 Z" id="Shape"/><path d="M46.6409461,85.7534247 L42.8517765,85.7534247 L42.8517765,71.4327911 L46.3712543,71.4327911 L46.3712543,73.468964 C46.9735659,72.5070634 47.5151969,71.8732877 47.9961473,71.567637 C48.4770976,71.2619863 49.0232235,71.109161 49.6345248,71.109161 C50.4975385,71.109161 51.3290882,71.3473887 52.1291738,71.8238442 L50.9560146,75.1275685 C50.317744,74.7140411 49.7244221,74.5072774 49.1760488,74.5072774 C48.645655,74.5072774 48.1961687,74.6533604 47.8275899,74.9455265 C47.4590111,75.2376926 47.1690925,75.765839 46.9578339,76.5299658 C46.7465753,77.2940925 46.6409461,78.8942637 46.6409461,81.3304795 L46.6409461,85.7534247 Z" id="Path"/><path d="M65.2092252,65.9850171 L65.2092252,73.2532106 C66.4318279,71.8238442 67.8926584,71.109161 69.5917166,71.109161 C70.46372,71.109161 71.2503211,71.270976 71.9515197,71.5946062 C72.6527183,71.9182363 73.1808647,72.3317637 73.5359589,72.8351884 C73.8910531,73.338613 74.1337757,73.895976 74.2641267,74.5072774 C74.3944777,75.1185788 74.4596533,76.0669949 74.4596533,77.3525257 L74.4596533,85.7534247 L70.6704837,85.7534247 L70.6704837,78.1885702 C70.6704837,76.687286 70.5985659,75.734375 70.4547303,75.3298373 C70.3108947,74.9252997 70.0569349,74.603917 69.692851,74.3656892 C69.3287671,74.1274615 68.8725385,74.0083476 68.3241652,74.0083476 C67.6948844,74.0083476 67.1330265,74.1611729 66.6385916,74.4668236 C66.1441567,74.7724743 65.7823202,75.2331978 65.5530822,75.848994 C65.3238442,76.4647902 65.2092252,77.375 65.2092252,78.5796233 L65.2092252,85.7534247 L61.4200557,85.7534247 L61.4200557,65.9850171 L65.2092252,65.9850171 Z" id="Path"/><path d="M78.3027611,69.4910103 L78.3027611,65.9850171 L82.0919307,65.9850171 L82.0919307,69.4910103 L78.3027611,69.4910103 Z M78.3027611,85.7534247 L78.3027611,71.4327911 L82.0919307,71.4327911 L82.0919307,85.7534247 L78.3027611,85.7534247 Z" id="Shape"/><path d="M85.624893,86.6973459 L89.9534461,87.2232449 C90.0253639,87.7266695 90.1916738,88.072774 90.4523759,88.2615582 C90.8119649,88.53125 91.3783176,88.6660959 92.1514341,88.6660959 C93.1403039,88.6660959 93.8819563,88.5177654 94.3763913,88.2211045 C94.7090111,88.0233305 94.9607235,87.7041952 95.1315283,87.2636986 C95.2483947,86.9490582 95.3068279,86.3692209 95.3068279,85.5241866 L95.3068279,83.4340753 C94.1741224,84.9803082 92.744756,85.7534247 91.0187286,85.7534247 C89.0949272,85.7534247 87.5711687,84.9398545 86.4474529,83.312714 C85.5664598,82.0271832 85.1259632,80.427012 85.1259632,78.5122003 C85.1259632,76.1119435 85.7035531,74.2780394 86.8587329,73.010488 C88.0139127,71.7429366 89.4500214,71.109161 91.1670591,71.109161 C92.9380351,71.109161 94.3988656,71.8867723 95.5495505,73.4419949 L95.5495505,71.4327911 L99.0959974,71.4327911 L99.0959974,84.2836045 C99.0959974,85.9736729 98.9566567,87.2367295 98.6779752,88.072774 C98.3992937,88.9088185 98.0082406,89.5650685 97.5048159,90.041524 C97.0013913,90.5179795 96.3294092,90.8910531 95.4888699,91.1607449 C94.6483305,91.4304366 93.5852954,91.5652825 92.2997646,91.5652825 C89.8725385,91.5652825 88.151006,91.1495077 87.135167,90.317958 C86.1193279,89.4864084 85.6114084,88.432363 85.6114084,87.1558219 C85.6114084,87.0299658 85.6159033,86.8771404 85.624893,86.6973459 Z M89.0095248,78.2964469 C89.0095248,79.8157106 89.3039384,80.9281892 89.8927654,81.6338827 C90.4815925,82.3395762 91.2075128,82.6924229 92.0705265,82.6924229 C92.9964683,82.6924229 93.7785745,82.3305865 94.416845,81.6069135 C95.0551156,80.8832406 95.3742509,79.8112158 95.3742509,78.390839 C95.3742509,76.9075342 95.0686002,75.8062928 94.4572988,75.0871147 C93.8459974,74.3679366 93.072881,74.0083476 92.1379495,74.0083476 C91.2299872,74.0083476 90.4815925,74.3611943 89.8927654,75.0668878 C89.3039384,75.7725813 89.0095248,76.849101 89.0095248,78.2964469 Z" id="Shape"/><path d="M106.620398,65.9850171 L106.620398,73.2532106 C107.843001,71.8238442 109.303831,71.109161 111.00289,71.109161 C111.874893,71.109161 112.661494,71.270976 113.362693,71.5946062 C114.063891,71.9182363 114.592038,72.3317637 114.947132,72.8351884 C115.302226,73.338613 115.544949,73.895976 115.6753,74.5072774 C115.805651,75.1185788 115.870826,76.0669949 115.870826,77.3525257 L115.870826,85.7534247 L112.081657,85.7534247 L112.081657,78.1885702 C112.081657,76.687286 112.009739,75.734375 111.865903,75.3298373 C111.722068,74.9252997 111.468108,74.603917 111.104024,74.3656892 C110.73994,74.1274615 110.283711,74.0083476 109.735338,74.0083476 C109.106057,74.0083476 108.544199,74.1611729 108.049765,74.4668236 C107.55533,74.7724743 107.193493,75.2331978 106.964255,75.848994 C106.735017,76.4647902 106.620398,77.375 106.620398,78.5796233 L106.620398,85.7534247 L102.831229,85.7534247 L102.831229,65.9850171 L106.620398,65.9850171 Z" id="Path"/><path d="M128.006956,81.1956336 L131.782641,81.8294092 C131.297196,83.2138271 130.530822,84.2678724 129.483519,84.9915454 C128.436216,85.7152183 127.125963,86.0770548 125.552761,86.0770548 C123.062607,86.0770548 121.219713,85.2634846 120.02408,83.6363442 C119.080158,82.3328339 118.608198,80.687714 118.608198,78.7009846 C118.608198,76.3276969 119.228489,74.4690711 120.469071,73.125107 C121.709653,71.781143 123.27836,71.109161 125.175193,71.109161 C127.305758,71.109161 128.986836,71.812607 130.218429,73.2194991 C131.450021,74.6263913 132.038848,76.7816781 131.98491,79.6853596 L122.491759,79.6853596 C122.518729,80.8090753 122.824379,81.6833262 123.408711,82.3081122 C123.993044,82.9328981 124.721211,83.2452911 125.593215,83.2452911 C126.186537,83.2452911 126.685467,83.083476 127.090004,82.7598459 C127.494542,82.4362158 127.800193,81.9148116 128.006956,81.1956336 Z M128.22271,77.3660103 C128.195741,76.2692637 127.912564,75.4354666 127.373181,74.864619 C126.833797,74.2937714 126.177547,74.0083476 125.404431,74.0083476 C124.577376,74.0083476 123.894157,74.3095034 123.354773,74.9118151 C122.81539,75.5141267 122.550193,76.3321918 122.559182,77.3660103 L128.22271,77.3660103 Z" id="Shape"/><path d="M138.700235,85.7534247 L134.911066,85.7534247 L134.911066,71.4327911 L138.430544,71.4327911 L138.430544,73.468964 C139.032855,72.5070634 139.574486,71.8732877 140.055437,71.567637 C140.536387,71.2619863 141.082513,71.109161 141.693814,71.109161 C142.556828,71.109161 143.388378,71.3473887 144.188463,71.8238442 L143.015304,75.1275685 C142.377033,74.7140411 141.783711,74.5072774 141.235338,74.5072774 C140.704944,74.5072774 140.255458,74.6533604 139.886879,74.9455265 C139.518301,75.2376926 139.228382,75.765839 139.017123,76.5299658 C138.805865,77.2940925 138.700235,78.8942637 138.700235,81.3304795 L138.700235,85.7534247 Z" id="Path"/></g></g></g></g></g></svg>