<?xml version="1.0" encoding="UTF-8"?><svg width="524px" height="285px" viewBox="0 0 524 285" version="1.1" xmlns="http://www.w3.org/2000/svg" xmlns:xlink="http://www.w3.org/1999/xlink"><title>7.7Mil-Magnifying-glass</title><g id="Screen-Design" stroke="none" stroke-width="1" fill="none" fill-rule="evenodd"><g id="Lesson-2-ClientR2" transform="translate(-736, -769)"><g id="Image-Text-@50%" transform="translate(0, 729)"><g id="7.7Million-Graphic" transform="translate(736, 40)"><g id="Group" stroke-width="1" fill-rule="evenodd" transform="translate(206.15, 169.7)" fill="#2E008B"><path d="M0,8.45 L5.1,8.45 L5.1,10.8 C5.95,9.85 6.95,9.15 8,8.65 C9.05,8.2 10.2,7.95 11.5,7.95 C12.8,7.95 13.9,8.25 14.95,8.9 C15.95,9.5 16.8,10.45 17.4,11.6 C18.2,10.4 19.2,9.5 20.4,8.9 C21.55,8.3 22.85,7.95 24.25,7.95 C25.65,7.95 26.95,8.3 28.05,8.95 C29.15,9.6 29.95,10.5 30.4,11.6 C30.9,12.7 31.1,14.45 31.1,16.85 L31.1,28.75 L25.95,28.75 L25.95,18.45 C25.95,16.15 25.65,14.6 25.1,13.8 C24.55,13 23.65,12.6 22.55,12.6 C21.45,12.6 20.9,12.85 20.2,13.35 C19.5,13.85 19,14.55 18.65,15.4 C18.3,16.25 18.15,17.7 18.15,19.6 L18.15,28.75 L13,28.75 L13,18.95 C13,17.15 12.85,15.8 12.6,15 C12.35,14.2 11.95,13.6 11.4,13.2 C10.85,12.8 10.2,12.6 9.45,12.6 C8.7,12.6 7.85,12.85 7.15,13.35 C6.45,13.85 5.95,14.55 5.6,15.45 C5.25,16.35 5.1,17.8 5.1,19.75 L5.1,28.75 L0,28.75 L0,8.45 L0,8.45 Z" id="Path" fill-rule="nonzero"/><path d="M37.55,0.1 C38.45,0.1 39.2,0.4 39.85,1.05 C40.5,1.7 40.8,2.5 40.8,3.4 C40.8,4.3 40.5,5.1 39.85,5.7 C39.2,6.35 38.45,6.65 37.6,6.65 C36.75,6.65 35.9,6.3 35.3,5.65 C34.7,5 34.35,4.2 34.35,3.25 C34.35,2.3 34.65,1.6 35.3,0.95 C35.95,0.3 36.7,0 37.6,0 L37.55,0.1 Z M35,8.45 L40.1,8.45 L40.1,28.75 L35,28.75 L35,8.45 Z" id="Shape" fill-rule="nonzero"/><polygon id="Path" fill-rule="nonzero" points="43.75 0.65 48.85 0.65 48.85 28.75 43.75 28.75"/><polygon id="Path" fill-rule="nonzero" points="52.5 0.65 57.6 0.65 57.6 28.75 52.5 28.75"/><path d="M63.85,0.1 C64.75,0.1 65.5,0.4 66.15,1.05 C66.8,1.7 67.1,2.5 67.1,3.4 C67.1,4.3 66.8,5.1 66.15,5.7 C65.5,6.35 64.75,6.65 63.9,6.65 C63.05,6.65 62.2,6.3 61.6,5.65 C61,5 60.65,4.2 60.65,3.25 C60.65,2.3 60.95,1.6 61.6,0.95 C62.25,0.3 63,0 63.9,0 L63.85,0.1 Z M61.3,8.45 L66.4,8.45 L66.4,28.75 L61.3,28.75 L61.3,8.45 Z" id="Shape" fill-rule="nonzero"/><path d="M80.15,7.95 C82.05,7.95 83.85,8.45 85.55,9.4 C87.25,10.35 88.55,11.65 89.5,13.3 C90.45,14.95 90.9,16.7 90.9,18.6 C90.9,20.5 90.4,22.3 89.45,23.95 C88.5,25.6 87.2,26.9 85.55,27.85 C83.9,28.8 82.1,29.25 80.15,29.25 C77.25,29.25 74.75,28.2 72.7,26.15 C70.65,24.1 69.6,21.55 69.6,18.6 C69.6,15.65 70.75,12.8 73.1,10.7 C75.15,8.85 77.5,7.95 80.15,7.95 Z M80.25,12.7 C78.65,12.7 77.35,13.25 76.3,14.35 C75.25,15.45 74.7,16.85 74.7,18.55 C74.7,20.25 75.2,21.75 76.25,22.85 C77.3,23.95 78.6,24.5 80.2,24.5 C81.8,24.5 83.1,23.95 84.2,22.85 C85.25,21.75 85.8,20.3 85.8,18.6 C85.8,16.9 85.3,15.45 84.25,14.35 C83.2,13.25 81.9,12.7 80.25,12.7 Z" id="Shape" fill-rule="nonzero"/><path d="M94.65,8.45 L99.75,8.45 L99.75,10.55 C100.9,9.6 101.95,8.9 102.9,8.5 C103.85,8.1 104.8,7.95 105.8,7.95 C107.8,7.95 109.5,8.65 110.9,10.05 C112.1,11.25 112.65,13 112.65,15.35 L112.65,28.75 L107.6,28.75 L107.6,19.85 C107.6,17.45 107.5,15.8 107.25,15.05 C107.05,14.25 106.65,13.65 106.1,13.25 C105.55,12.85 104.9,12.65 104.1,12.65 C103.3,12.65 102.2,13 101.45,13.7 C100.7,14.4 100.2,15.35 99.9,16.55 C99.75,17.2 99.7,18.55 99.7,20.65 L99.7,28.8 L94.6,28.8 L94.6,8.5 L94.65,8.45 Z" id="Path" fill-rule="nonzero"/></g><g id="Group" stroke-width="1" fill-rule="evenodd" transform="translate(206.9, 88.2)" fill="#2E008B"><polygon id="Path" fill-rule="nonzero" points="0 0 46.35 0 46.35 7.05 14.45 72.45 3.1 66.95 29.65 12.65 0 12.65"/><path d="M48.25,57 C50.35,57 52.1,57.75 53.6,59.2 C55.05,60.65 55.8,62.45 55.8,64.5 C55.8,66.55 55.05,68.35 53.6,69.85 C52.15,71.35 50.35,72.05 48.25,72.05 C46.15,72.05 44.4,71.3 42.9,69.85 C41.45,68.4 40.7,66.6 40.7,64.5 C40.7,62.4 41.45,60.65 42.9,59.2 C44.35,57.75 46.15,57 48.25,57 Z" id="Path" fill-rule="nonzero"/><polygon id="Path" fill-rule="nonzero" points="67.9 0 114.25 0 114.25 7.05 82.35 72.45 71 66.95 97.55 12.65 67.9 12.65 67.9 0"/></g><g id="Group" stroke-width="1" fill-rule="evenodd" transform="translate(85.5, 21.1)" stroke="#307FE2" stroke-linecap="round" stroke-linejoin="round"><path d="M0,239.8 L97.2,185.95 L97.2,185.95 C127.75,223.45 181.6,234.95 225.45,210.85 C269.3,186.7 288.4,135.1 273.1,89.2" id="Path" stroke-width="10"/><path d="M357.95,0 L255.3,56.9 L255.3,56.9 C224.75,19.4 170.9,7.9 127.05,32.05 C83.2,56.2 64.1,107.8 79.4,153.7" id="Path" stroke-width="10"/></g><polyline id="Path" stroke="#307FE2" stroke-width="10" stroke-linecap="round" points="432 60.95 443.45 21 403.5 9.55"/><g id="Group" stroke-width="1" fill-rule="evenodd" transform="translate(348.45, 17.15)" fill="#BB16A3"><path d="M3.8,6.3 L0.45,6.3 C0.55,4.35 1.15,2.85 2.3,1.75 C3.45,0.65 4.85,0.1 6.65,0.1 C8.45,0.1 8.7,0.35 9.55,0.8 C10.4,1.25 11.05,1.9 11.55,2.8 C12.05,3.65 12.3,4.55 12.3,5.45 C12.3,6.35 12,7.65 11.4,8.9 C10.8,10.15 9.7,11.6 8.05,13.25 L6.05,15.35 L12.45,15.35 L12.45,18.5 L0,18.5 L0,16.85 L5.55,11.2 C6.9,9.85 7.8,8.75 8.25,7.9 C8.7,7.05 8.9,6.35 8.9,5.65 C8.9,4.95 8.65,4.4 8.2,3.95 C7.75,3.5 7.15,3.25 6.4,3.25 C5.65,3.25 5.05,3.5 4.55,4.05 C4.05,4.6 3.8,5.35 3.75,6.25 L3.8,6.3 Z" id="Path" fill-rule="nonzero"/><path d="M20.15,0.05 C21.45,0.05 22.6,0.35 23.55,1 C24.5,1.65 25.25,2.65 25.75,3.95 C26.25,5.25 26.55,7.1 26.55,9.45 C26.55,11.8 26.3,13.7 25.75,15 C25.2,16.35 24.5,17.3 23.65,17.9 C22.75,18.5 21.65,18.85 20.3,18.85 C18.95,18.85 17.8,18.55 16.9,17.9 C16,17.25 15.25,16.3 14.75,15.05 C14.25,13.75 13.95,11.95 13.95,9.6 C13.95,7.25 14.45,3.9 15.5,2.45 C16.65,0.8 18.2,0 20.2,0 L20.15,0.05 Z M20.2,3.3 C19.6,3.3 19.1,3.5 18.65,3.85 C18.2,4.2 17.85,4.85 17.65,5.75 C17.45,6.65 17.3,8 17.3,9.7 C17.3,11.4 17.55,13.55 18.1,14.4 C18.65,15.25 19.35,15.7 20.2,15.7 C21.05,15.7 21.7,15.3 22.15,14.45 C22.75,13.45 23.05,11.8 23.05,9.45 C23.05,7.1 22.8,5.45 22.25,4.55 C21.7,3.65 21.05,3.2 20.2,3.2 L20.2,3.3 Z" id="Shape" fill-rule="nonzero"/><path d="M31.7,4.95 L28.4,4.95 C28.55,3.6 29.05,2.55 29.85,1.75 C30.95,0.65 32.3,0.05 33.95,0.05 C35.6,0.05 36.65,0.5 37.65,1.45 C38.65,2.4 39.15,3.5 39.15,4.8 C39.15,6.1 38.95,6.35 38.5,7 C38.05,7.65 37.45,8.2 36.6,8.6 C37.7,8.95 38.55,9.5 39.15,10.3 C39.75,11.1 40.05,12.05 40.05,13.15 C40.05,14.75 39.45,16.15 38.25,17.25 C37.05,18.35 35.55,18.95 33.7,18.95 C31.85,18.95 30.55,18.4 29.45,17.35 C28.35,16.3 27.75,14.85 27.65,13.05 L31.05,13.05 C31.2,14 31.5,14.65 32,15.1 C32.5,15.55 33.15,15.8 33.9,15.8 C34.65,15.8 35.35,15.55 35.9,15.05 C36.4,14.55 36.7,13.9 36.7,13.15 C36.7,12.4 36.35,11.65 35.65,11.1 C34.95,10.55 33.9,10.25 32.6,10.25 L32.6,7.3 C33.4,7.25 34.05,7.1 34.45,6.9 C34.85,6.7 35.15,6.45 35.4,6.1 C35.6,5.75 35.75,5.4 35.75,5.05 C35.75,4.7 35.6,4.15 35.25,3.85 C34.9,3.55 34.45,3.35 33.9,3.35 C33.35,3.35 32.95,3.5 32.55,3.8 C32.15,4.1 31.9,4.5 31.75,4.95 L31.7,4.95 Z" id="Path" fill-rule="nonzero"/><path d="M47.65,0.05 C48.95,0.05 50.1,0.35 51.05,1 C52,1.65 52.75,2.65 53.25,3.95 C53.75,5.25 54.05,7.1 54.05,9.45 C54.05,11.8 53.8,13.7 53.25,15 C52.7,16.35 52,17.3 51.15,17.9 C50.25,18.5 49.15,18.85 47.8,18.85 C46.45,18.85 45.3,18.55 44.4,17.9 C43.5,17.25 42.75,16.3 42.25,15.05 C41.75,13.75 41.45,11.95 41.45,9.6 C41.45,7.25 41.95,3.9 43,2.45 C44.15,0.8 45.7,0 47.7,0 L47.65,0.05 Z M47.7,3.3 C47.1,3.3 46.6,3.5 46.15,3.85 C45.7,4.2 45.35,4.85 45.15,5.75 C44.95,6.65 44.8,8 44.8,9.7 C44.8,11.4 45.05,13.55 45.6,14.4 C46.15,15.25 46.85,15.7 47.7,15.7 C48.55,15.7 49.2,15.3 49.65,14.45 C50.25,13.45 50.55,11.8 50.55,9.45 C50.55,7.1 50.3,5.45 49.75,4.55 C49.2,3.65 48.55,3.2 47.7,3.2 L47.7,3.3 Z" id="Shape" fill-rule="nonzero"/></g><g id="Group" stroke-width="1" fill-rule="evenodd" transform="translate(53.1, 219)" fill="#BB16A3"><path d="M3.8,6.3 L0.45,6.3 C0.55,4.35 1.15,2.85 2.3,1.75 C3.45,0.65 4.85,0.1 6.65,0.1 C8.45,0.1 8.7,0.35 9.55,0.8 C10.4,1.25 11.05,1.9 11.55,2.8 C12.05,3.65 12.3,4.55 12.3,5.45 C12.3,6.35 12,7.65 11.4,8.9 C10.8,10.15 9.7,11.6 8.05,13.25 L6.05,15.35 L12.45,15.35 L12.45,18.5 L0,18.5 L0,16.85 L5.55,11.2 C6.9,9.85 7.8,8.75 8.25,7.9 C8.7,7.05 8.9,6.35 8.9,5.65 C8.9,4.95 8.65,4.4 8.2,3.95 C7.75,3.5 7.15,3.25 6.4,3.25 C5.65,3.25 5.05,3.5 4.55,4.05 C4.05,4.6 3.8,5.35 3.75,6.25 L3.8,6.3 Z" id="Path" fill-rule="nonzero"/><path d="M20.1,0.05 C21.4,0.05 22.55,0.35 23.5,1 C24.45,1.65 25.2,2.65 25.7,3.95 C26.2,5.25 26.5,7.1 26.5,9.45 C26.5,11.8 26.25,13.7 25.7,15 C25.15,16.35 24.45,17.3 23.6,17.9 C22.7,18.5 21.6,18.85 20.25,18.85 C18.9,18.85 17.75,18.55 16.85,17.9 C15.95,17.25 15.2,16.3 14.7,15.05 C14.2,13.75 13.9,11.95 13.9,9.6 C13.9,7.25 14.4,3.9 15.45,2.45 C16.6,0.8 18.15,0 20.15,0 L20.1,0.05 Z M20.2,3.3 C19.6,3.3 19.1,3.5 18.65,3.85 C18.2,4.2 17.85,4.85 17.65,5.75 C17.45,6.65 17.3,8 17.3,9.7 C17.3,11.4 17.55,13.55 18.1,14.4 C18.65,15.25 19.35,15.7 20.2,15.7 C21.05,15.7 21.7,15.3 22.15,14.45 C22.75,13.45 23.05,11.8 23.05,9.45 C23.05,7.1 22.8,5.45 22.25,4.55 C21.7,3.65 21.05,3.2 20.2,3.2 L20.2,3.3 Z" id="Shape" fill-rule="nonzero"/><path d="M31.3,6.3 L27.95,6.3 C28.05,4.35 28.65,2.85 29.8,1.75 C30.95,0.65 32.35,0.1 34.15,0.1 C35.95,0.1 36.2,0.35 37.05,0.8 C37.9,1.25 38.55,1.9 39.05,2.8 C39.55,3.65 39.8,4.55 39.8,5.45 C39.8,6.35 39.5,7.65 38.9,8.9 C38.3,10.15 37.2,11.6 35.55,13.25 L33.55,15.35 L39.95,15.35 L39.95,18.5 L27.5,18.5 L27.5,16.85 L33.05,11.2 C34.4,9.85 35.3,8.75 35.75,7.9 C36.2,7.05 36.4,6.35 36.4,5.65 C36.4,4.95 36.15,4.4 35.7,3.95 C35.25,3.5 34.65,3.25 33.9,3.25 C33.15,3.25 32.55,3.5 32.05,4.05 C31.55,4.6 31.3,5.35 31.25,6.25 L31.3,6.3 Z" id="Path" fill-rule="nonzero"/><path d="M47.6,0.05 C48.9,0.05 50.05,0.35 51,1 C51.95,1.65 52.7,2.65 53.2,3.95 C53.7,5.25 54,7.1 54,9.45 C54,11.8 53.75,13.7 53.2,15 C52.65,16.35 51.95,17.3 51.1,17.9 C50.2,18.5 49.1,18.85 47.75,18.85 C46.4,18.85 45.25,18.55 44.35,17.9 C43.45,17.25 42.7,16.3 42.2,15.05 C41.7,13.75 41.4,11.95 41.4,9.6 C41.4,7.25 41.9,3.9 42.95,2.45 C44.1,0.8 45.65,0 47.65,0 L47.6,0.05 Z M47.7,3.3 C47.1,3.3 46.6,3.5 46.15,3.85 C45.7,4.2 45.35,4.85 45.15,5.75 C44.95,6.65 44.8,8 44.8,9.7 C44.8,11.4 45.05,13.55 45.6,14.4 C46.15,15.25 46.85,15.7 47.7,15.7 C48.55,15.7 49.2,15.3 49.65,14.45 C50.25,13.45 50.55,11.8 50.55,9.45 C50.55,7.1 50.3,5.45 49.75,4.55 C49.2,3.65 48.55,3.2 47.7,3.2 L47.7,3.3 Z" id="Shape" fill-rule="nonzero"/></g></g></g></g></g></svg>