<?xml version="1.0" encoding="UTF-8"?><svg width="297px" height="297px" viewBox="0 0 297 297" version="1.1" xmlns="http://www.w3.org/2000/svg" xmlns:xlink="http://www.w3.org/1999/xlink"><title>89.8</title><g id="Screen-Design" stroke="none" stroke-width="1" fill="none" fill-rule="evenodd"><g id="Lesson-1-ClientR2-Exports" transform="translate(-572, -1155)"><g id="89.8" transform="translate(612, 1194)"><g id="Group" transform="translate(-16, -16)"><circle id="Oval" stroke="#BB16A3" stroke-width="6.33165829" fill="#FFFFFF" cx="126" cy="126" r="122.834171"/><g id="89.8%" transform="translate(53, 40)" fill="#2E008B" fill-rule="nonzero"><path d="M29.008963,30.1923694 C30.582165,31.1992187 31.7974636,32.4931774 32.6548587,34.0742455 C33.5122539,35.6553136 33.9409514,37.3661708 33.9409514,39.2068172 C33.9409514,41.2047838 33.4414598,43.0532962 32.4424765,44.7523545 C31.4434932,46.4514127 30.1023384,47.7296393 28.4190122,48.5870345 C26.735686,49.4444296 24.5882652,49.8731271 21.9767498,49.8731271 C19.1764501,49.8731271 16.9503692,49.4601616 15.2985071,48.6342305 C13.6466449,47.8082994 12.3251552,46.5576038 11.3340379,44.8821436 C10.3429206,43.2066834 9.84736194,41.314908 9.84736194,39.2068172 C9.84736194,37.3819028 10.2445955,35.7182417 11.0390625,34.2158337 C11.8335295,32.7134257 13.0252301,31.372271 14.6141642,30.1923694 C13.5758508,29.1383241 12.7931828,28.0174176 12.2661601,26.82965 C11.7391374,25.6418825 11.4756261,24.3872539 11.4756261,23.0657641 C11.4756261,21.2565818 11.9121896,19.6086526 12.7853168,18.1219767 C13.6584439,16.6353007 14.8816085,15.4789972 16.4548106,14.6530661 C18.0280126,13.8271351 19.845061,13.4141695 21.9059557,13.4141695 C23.9353863,13.4141695 25.7209707,13.8310681 27.2627087,14.6648652 C28.8044467,15.4986622 30.0197453,16.6824968 30.9086045,18.2163688 C31.7974636,19.7502408 32.2418932,21.3981699 32.2418932,23.1601562 C32.2418932,24.4029859 32.0098459,25.5553564 31.5457513,26.6172678 C31.0816567,27.6791792 30.2360606,28.8708797 29.008963,30.1923694 Z M21.6935734,19.7856378 C20.608064,19.7856378 19.7152718,20.1435413 19.0151969,20.8593482 C18.315122,21.5751552 17.9650845,22.4915454 17.9650845,23.6085188 C17.9650845,24.7254923 18.334787,25.6615475 19.074192,26.4166845 C19.813597,27.1718215 20.7260542,27.54939 21.8115636,27.54939 C22.928537,27.54939 23.8449272,27.1796875 24.5607342,26.4402825 C25.2765411,25.7008776 25.6344446,24.7412243 25.6344446,23.5613228 C25.6344446,22.4443493 25.2726081,21.5358251 24.5489351,20.8357502 C23.8252622,20.1356753 22.873475,19.7856378 21.6935734,19.7856378 Z M21.9531518,33.708476 C20.3642177,33.708476 19.0269959,34.1922357 17.9414865,35.1597549 C16.8559771,36.1272742 16.3132224,37.2796447 16.3132224,38.6168664 C16.3132224,40.0170163 16.8245131,41.2008508 17.8470944,42.1683701 C18.8696757,43.1358893 20.2147635,43.619649 21.8823577,43.619649 C23.5656839,43.619649 24.9068386,43.1673534 25.9058219,42.2627622 C26.9048052,41.358171 27.4042969,40.1900685 27.4042969,38.7584546 C27.4042969,37.3268408 26.8851402,36.1272742 25.8468268,35.1597549 C24.8085135,34.1922357 23.5106218,33.708476 21.9531518,33.708476 Z" id="Shape"/><path d="M48.4773384,49.8731271 L42.8610071,47.0885595 L48.925701,35.2895441 C45.9838131,35.2895441 43.4824219,34.2354987 41.4215272,32.127408 C39.3606325,30.0193172 38.3301851,27.3999358 38.3301851,24.2692637 C38.3301851,21.2329837 39.3881635,18.6647314 41.5041203,16.5645066 C43.6200771,14.4642819 46.1725974,13.4141695 49.1616813,13.4141695 C52.2923534,13.4141695 54.8999358,14.5036119 56.9844285,16.6824968 C59.0689212,18.8613816 60.1111676,21.3667059 60.1111676,24.1984696 C60.1111676,25.268247 59.9499144,26.3419574 59.627408,27.4196008 C59.3049015,28.4972442 58.5615636,30.1609054 57.397394,32.4105843 L48.4773384,49.8731271 Z M49.3032695,29.0360659 C50.5303671,29.0360659 51.5608144,28.5877033 52.3946115,27.6909782 C53.2284086,26.794253 53.6453071,25.6851455 53.6453071,24.3636558 C53.6453071,23.0107021 53.2087436,21.8779966 52.3356164,20.9655394 C51.4624893,20.0530822 50.443841,19.5968536 49.2796714,19.5968536 C48.0525738,19.5968536 46.9985285,20.0491492 46.1175353,20.9537404 C45.2365422,21.8583315 44.7960456,22.987104 44.7960456,24.3400578 C44.7960456,25.6772795 45.2247432,26.794253 46.0821383,27.6909782 C46.9395334,28.5877033 48.0132438,29.0360659 49.3032695,29.0360659 Z" id="Shape"/><path d="M61.2672036,42.2745612 C62.2897849,42.2745612 63.162912,42.6324647 63.886585,43.3482716 C64.6102579,44.0640786 64.9720944,44.9332727 64.9720944,45.955854 C64.9720944,46.9784354 64.6102579,47.8515625 63.886585,48.5752354 C63.162912,49.2989084 62.2897849,49.6607449 61.2672036,49.6607449 C60.2446222,49.6607449 59.3714951,49.2989084 58.6478221,48.5752354 C57.9241492,47.8515625 57.5623127,46.9784354 57.5623127,45.955854 C57.5623127,44.9332727 57.9241492,44.0640786 58.6478221,43.3482716 C59.3714951,42.6324647 60.2446222,42.2745612 61.2672036,42.2745612 Z" id="Path"/><path d="M88.6645173,30.1923694 C90.2377194,31.1992187 91.453018,32.4931774 92.3104131,34.0742455 C93.1678082,35.6553136 93.5965058,37.3661708 93.5965058,39.2068172 C93.5965058,41.2047838 93.0970141,43.0532962 92.0980308,44.7523545 C91.0990475,46.4514127 89.7578928,47.7296393 88.0745666,48.5870345 C86.3912404,49.4444296 84.2438196,49.8731271 81.6323042,49.8731271 C78.8320045,49.8731271 76.6059236,49.4601616 74.9540614,48.6342305 C73.3021993,47.8082994 71.9807095,46.5576038 70.9895923,44.8821436 C69.998475,43.2066834 69.5029163,41.314908 69.5029163,39.2068172 C69.5029163,37.3819028 69.9001498,35.7182417 70.6946169,34.2158337 C71.4890839,32.7134257 72.6807845,31.372271 74.2697185,30.1923694 C73.2314052,29.1383241 72.4487372,28.0174176 71.9217145,26.82965 C71.3946918,25.6418825 71.1311804,24.3872539 71.1311804,23.0657641 C71.1311804,21.2565818 71.567744,19.6086526 72.4408711,18.1219767 C73.3139983,16.6353007 74.5371629,15.4789972 76.1103649,14.6530661 C77.683567,13.8271351 79.5006154,13.4141695 81.5615101,13.4141695 C83.5909407,13.4141695 85.376525,13.8310681 86.9182631,14.6648652 C88.4600011,15.4986622 89.6752997,16.6824968 90.5641588,18.2163688 C91.453018,19.7502408 91.8974476,21.3981699 91.8974476,23.1601562 C91.8974476,24.4029859 91.6654003,25.5553564 91.2013057,26.6172678 C90.737211,27.6791792 89.8916149,28.8708797 88.6645173,30.1923694 Z M81.3491278,19.7856378 C80.2636184,19.7856378 79.3708262,20.1435413 78.6707513,20.8593482 C77.9706764,21.5751552 77.6206389,22.4915454 77.6206389,23.6085188 C77.6206389,24.7254923 77.9903414,25.6615475 78.7297464,26.4166845 C79.4691513,27.1718215 80.3816085,27.54939 81.4671179,27.54939 C82.5840914,27.54939 83.5004816,27.1796875 84.2162885,26.4402825 C84.9320955,25.7008776 85.2899989,24.7412243 85.2899989,23.5613228 C85.2899989,22.4443493 84.9281625,21.5358251 84.2044895,20.8357502 C83.4808166,20.1356753 82.5290293,19.7856378 81.3491278,19.7856378 Z M81.6087061,33.708476 C80.019772,33.708476 78.6825503,34.1922357 77.5970409,35.1597549 C76.5115315,36.1272742 75.9687768,37.2796447 75.9687768,38.6168664 C75.9687768,40.0170163 76.4800674,41.2008508 77.5026488,42.1683701 C78.5252301,43.1358893 79.8703179,43.619649 81.537912,43.619649 C83.2212382,43.619649 84.562393,43.1673534 85.5613763,42.2627622 C86.5603596,41.358171 87.0598512,40.1900685 87.0598512,38.7584546 C87.0598512,37.3268408 86.5406946,36.1272742 85.5023812,35.1597549 C84.4640679,34.1922357 83.1661762,33.708476 81.6087061,33.708476 Z" id="Shape"/><path d="M126.987719,12.7534247 L131.754522,12.7534247 L104.239218,51.3598031 L99.4724155,51.3598031 L122.999652,18.2045698 C121.58377,18.4405501 120.254415,18.6175353 119.011585,18.7355255 C117.768755,18.8535156 116.620318,18.9125107 115.566272,18.9125107 C114.480763,18.9125107 113.332326,18.8574486 112.12096,18.7473245 C112.467064,19.8485659 112.640117,20.8475492 112.640117,21.7442744 C112.640117,24.0411494 111.841717,25.9919199 110.244917,27.596586 C108.648116,29.2012521 106.701279,30.0035852 104.404404,30.0035852 C102.091797,30.0035852 100.125294,29.2012521 98.5048962,27.596586 C96.8844981,25.9919199 96.074299,24.0490154 96.074299,21.7678724 C96.074299,20.2890625 96.4361355,18.9164437 97.1598084,17.6500161 C97.8834814,16.3835884 98.9021297,15.3610071 100.215753,14.582272 C101.529377,13.803537 102.831202,13.4141695 104.121228,13.4141695 C105.096613,13.4141695 106.441701,13.6029538 108.156491,13.9805223 C111.192771,14.6412671 113.867214,14.9716396 116.179821,14.9716396 C118.27218,14.9716396 120.219018,14.7867883 122.020334,14.4170858 C123.82165,14.0473833 125.477445,13.4928296 126.987719,12.7534247 Z M104.357208,17.7326092 C103.255966,17.7326092 102.315978,18.1219767 101.537243,18.9007117 C100.758508,19.6794467 100.369141,20.6115689 100.369141,21.6970783 C100.369141,22.7983198 100.758508,23.738308 101.537243,24.517043 C102.315978,25.295778 103.255966,25.6851455 104.357208,25.6851455 C105.458449,25.6851455 106.398438,25.295778 107.177173,24.517043 C107.955908,23.738308 108.345275,22.7983198 108.345275,21.6970783 C108.345275,20.5958369 107.955908,19.6597817 107.177173,18.8889127 C106.398438,18.1180437 105.458449,17.7326092 104.357208,17.7326092 Z M127.365288,33.3545056 C129.646431,33.3545056 131.597201,34.1647046 133.2176,35.7851027 C134.837998,37.4055009 135.648197,39.3641374 135.648197,41.6610124 C135.648197,43.9421554 134.837998,45.8929259 133.2176,47.5133241 C131.597201,49.1337222 129.646431,49.9439212 127.365288,49.9439212 C125.068413,49.9439212 123.113709,49.1337222 121.501177,47.5133241 C119.888645,45.8929259 119.082379,43.9421554 119.082379,41.6610124 C119.082379,39.3641374 119.888645,37.4055009 121.501177,35.7851027 C123.113709,34.1647046 125.068413,33.3545056 127.365288,33.3545056 Z M127.34169,37.6257491 C126.224716,37.6257491 125.276862,38.0190497 124.498127,38.8056507 C123.719392,39.5922517 123.330025,40.5361729 123.330025,41.6374144 C123.330025,42.7386558 123.719392,43.6825771 124.498127,44.4691781 C125.276862,45.2557791 126.224716,45.6490796 127.34169,45.6490796 C128.442931,45.6490796 129.38292,45.2557791 130.161655,44.4691781 C130.94039,43.6825771 131.329757,42.7386558 131.329757,41.6374144 C131.329757,40.5361729 130.94039,39.5922517 130.161655,38.8056507 C129.38292,38.0190497 128.442931,37.6257491 127.34169,37.6257491 Z" id="Shape"/></g><g id="were-overweight-or-h" transform="translate(33.5753, 97.8082)" fill="#2E008B" fill-rule="nonzero"><path d="M67.5343536,25.9178082 L63.1518622,11.5971747 L65.6599957,11.5971747 L67.9388913,19.8632277 L68.7884204,22.937714 C68.8243793,22.7848887 69.0715967,21.8005137 69.5300728,19.984589 L71.8089683,11.5971747 L74.3036173,11.5971747 L76.447667,19.9036815 L77.1623502,22.6410531 L77.9849101,19.8767123 L80.4391053,11.5971747 L82.7989084,11.5971747 L78.3220248,25.9178082 L75.8004067,25.9178082 L73.5215111,17.3416096 L72.968643,14.900899 L70.0694563,25.9178082 L67.5343536,25.9178082 Z" id="Path"/><path d="M94.6383776,21.3060788 L97.1465111,21.6162243 C96.7509632,23.0815497 96.0183005,24.21875 94.9485231,25.0278253 C93.8787457,25.8369007 92.5123074,26.2414384 90.849208,26.2414384 C88.7546019,26.2414384 87.09375,25.5964255 85.8666524,24.3063998 C84.6395548,23.0163741 84.026006,21.2071918 84.026006,18.8788527 C84.026006,16.4696062 84.6462971,14.5997432 85.8868793,13.2692637 C87.1274615,11.9387842 88.7366224,11.2735445 90.7143622,11.2735445 C92.6291738,11.2735445 94.1933861,11.9252997 95.4069991,13.2288099 C96.6206122,14.5323202 97.2274187,16.3662243 97.2274187,18.7305223 C97.2274187,18.8743579 97.2229238,19.0901113 97.2139341,19.3777825 L86.5341396,19.3777825 C86.6240368,20.9509846 87.0690283,22.1556079 87.8691139,22.9916524 C88.6691995,23.8276969 89.6670591,24.2457192 90.8626926,24.2457192 C91.7526755,24.2457192 92.5123074,24.0119863 93.1415882,23.5445205 C93.770869,23.0770548 94.2697988,22.3309075 94.6383776,21.3060788 Z M86.6689854,17.3820634 L94.6653467,17.3820634 C94.55747,16.1774401 94.2518193,15.2739726 93.7483947,14.671661 C92.9752783,13.7367295 91.9729238,13.2692637 90.7413313,13.2692637 C89.6266053,13.2692637 88.6894264,13.6423373 87.9297945,14.3884846 C87.1701627,15.1346318 86.749893,16.1324914 86.6689854,17.3820634 Z" id="Shape"/><path d="M100.167059,25.9178082 L100.167059,11.5971747 L102.351562,11.5971747 L102.351562,13.7681935 C102.908926,12.7523545 103.423587,12.0826199 103.895548,11.7589897 C104.367509,11.4353596 104.886665,11.2735445 105.453018,11.2735445 C106.271083,11.2735445 107.102633,11.5342466 107.947667,12.0556507 L107.111622,14.3075771 C106.518301,13.9569777 105.924979,13.7816781 105.331657,13.7816781 C104.801263,13.7816781 104.324807,13.9412457 103.90229,14.260381 C103.479773,14.5795163 103.178617,15.0222603 102.998823,15.588613 C102.729131,16.4516267 102.594285,17.3955479 102.594285,18.4203767 L102.594285,25.9178082 L100.167059,25.9178082 Z" id="Path"/><path d="M119.193814,21.3060788 L121.701948,21.6162243 C121.3064,23.0815497 120.573737,24.21875 119.50396,25.0278253 C118.434182,25.8369007 117.067744,26.2414384 115.404645,26.2414384 C113.310039,26.2414384 111.649187,25.5964255 110.422089,24.3063998 C109.194991,23.0163741 108.581443,21.2071918 108.581443,18.8788527 C108.581443,16.4696062 109.201734,14.5997432 110.442316,13.2692637 C111.682898,11.9387842 113.292059,11.2735445 115.269799,11.2735445 C117.18461,11.2735445 118.748823,11.9252997 119.962436,13.2288099 C121.176049,14.5323202 121.782855,16.3662243 121.782855,18.7305223 C121.782855,18.8743579 121.77836,19.0901113 121.769371,19.3777825 L111.089576,19.3777825 C111.179473,20.9509846 111.624465,22.1556079 112.424551,22.9916524 C113.224636,23.8276969 114.222496,24.2457192 115.418129,24.2457192 C116.308112,24.2457192 117.067744,24.0119863 117.697025,23.5445205 C118.326306,23.0770548 118.825235,22.3309075 119.193814,21.3060788 Z M111.224422,17.3820634 L119.220783,17.3820634 C119.112907,16.1774401 118.807256,15.2739726 118.303831,14.671661 C117.530715,13.7367295 116.52836,13.2692637 115.296768,13.2692637 C114.182042,13.2692637 113.244863,13.6423373 112.485231,14.3884846 C111.725599,15.1346318 111.30533,16.1324914 111.224422,17.3820634 Z" id="Shape"/><path d="M5.10070634,48.4730308 C5.10070634,47.2144692 5.41085188,45.9963613 6.03114298,44.8187072 C6.65143408,43.6410531 7.53017979,42.7420805 8.66738014,42.1217894 C9.80458048,41.5014983 11.0743793,41.1913527 12.4767765,41.1913527 C14.6433005,41.1913527 16.4187714,41.8947988 17.8031892,43.3016909 C19.187607,44.708583 19.8798159,46.4863014 19.8798159,48.6348459 C19.8798159,50.8013699 19.1808647,52.5970676 17.7829623,54.0219392 C16.3850599,55.4468108 14.6253211,56.1592466 12.5037457,56.1592466 C11.1912457,56.1592466 9.93942637,55.8625856 8.74828767,55.2692637 C7.55714897,54.6759418 6.65143408,53.8061858 6.03114298,52.6599957 C5.41085188,51.5138057 5.10070634,50.1181507 5.10070634,48.4730308 Z M8.98426798,48.6752997 C8.98426798,50.0956764 9.32138271,51.1834332 9.99561216,51.9385702 C10.6698416,52.6937072 11.5013913,53.0712757 12.4902611,53.0712757 C13.479131,53.0712757 14.3084332,52.6937072 14.9781678,51.9385702 C15.6479024,51.1834332 15.9827697,50.0866866 15.9827697,48.6483305 C15.9827697,47.2459332 15.6479024,46.1671661 14.9781678,45.4120291 C14.3084332,44.6568921 13.479131,44.2793236 12.4902611,44.2793236 C11.5013913,44.2793236 10.6698416,44.6568921 9.99561216,45.4120291 C9.32138271,46.1671661 8.98426798,47.2549229 8.98426798,48.6752997 Z" id="Shape"/><path d="M26.7839255,55.8356164 L21.0125214,41.5149829 L24.9904752,41.5149829 L27.687393,48.8236301 L28.4694991,51.2643408 C28.6762628,50.6440497 28.8066139,50.2350171 28.8605522,50.0372432 C28.9864084,49.6327055 29.1212543,49.2281678 29.2650899,48.8236301 L31.9889769,41.5149829 L35.8860231,41.5149829 L30.1955265,55.8356164 L26.7839255,55.8356164 Z" id="Path"/><path d="M46.4983947,51.2778253 L50.2740796,51.911601 C49.7886344,53.2960188 49.0222603,54.3500642 47.9749572,55.0737372 C46.9276541,55.7974101 45.6174015,56.1592466 44.0441995,56.1592466 C41.5540454,56.1592466 39.7111515,55.3456764 38.515518,53.718536 C37.5715967,52.4150257 37.0996361,50.7699058 37.0996361,48.7831764 C37.0996361,46.4098887 37.7199272,44.5512628 38.9605094,43.2072988 C40.2010916,41.8633348 41.7697988,41.1913527 43.666631,41.1913527 C45.7971961,41.1913527 47.4782748,41.8947988 48.7098673,43.3016909 C49.9414598,44.708583 50.5302868,46.8638699 50.4763485,49.7675514 L40.9831978,49.7675514 C41.010167,50.8912671 41.3158176,51.765518 41.9001498,52.3903039 C42.484482,53.0150899 43.2126498,53.3274829 44.0846533,53.3274829 C44.6779752,53.3274829 45.176905,53.1656678 45.5814426,52.8420377 C45.9859803,52.5184075 46.291631,51.9970034 46.4983947,51.2778253 Z M46.7141481,47.4482021 C46.6871789,46.3514555 46.4040026,45.5176584 45.864619,44.9468108 C45.3252354,44.3759632 44.6689854,44.0905394 43.895869,44.0905394 C43.0688142,44.0905394 42.385595,44.3916952 41.8462115,44.9940068 C41.3068279,45.5963185 41.041631,46.4143836 41.0506207,47.4482021 L46.7141481,47.4482021 Z" id="Shape"/><path d="M57.1916738,55.8356164 L53.4025043,55.8356164 L53.4025043,41.5149829 L56.921982,41.5149829 L56.921982,43.5511558 C57.5242937,42.5892551 58.0659247,41.9554795 58.546875,41.6498288 C59.0278253,41.3441781 59.5739512,41.1913527 60.1852526,41.1913527 C61.0482663,41.1913527 61.8798159,41.4295805 62.6799015,41.906036 L61.5067423,45.2097603 C60.8684717,44.7962329 60.2751498,44.5894692 59.7267765,44.5894692 C59.1963827,44.5894692 58.7468964,44.7355522 58.3783176,45.0277183 C58.0097389,45.3198844 57.7198202,45.8480308 57.5085616,46.6121575 C57.2973031,47.3762842 57.1916738,48.9764555 57.1916738,51.4126712 L57.1916738,55.8356164 Z" id="Path"/><polygon id="Path" points="66.9814854 55.8356164 62.4506635 41.5149829 66.1319563 41.5149829 68.8153896 50.9002568 71.2830693 41.5149829 74.937393 41.5149829 77.3241652 50.9002568 80.0615368 41.5149829 83.796768 41.5149829 79.1985231 55.8356164 75.5576841 55.8356164 73.0900043 46.6256421 70.6627783 55.8356164"/><path d="M94.0855094,51.2778253 L97.8611943,51.911601 C97.3757491,53.2960188 96.609375,54.3500642 95.5620719,55.0737372 C94.5147688,55.7974101 93.2045163,56.1592466 91.6313142,56.1592466 C89.1411601,56.1592466 87.2982663,55.3456764 86.1026327,53.718536 C85.1587115,52.4150257 84.6867509,50.7699058 84.6867509,48.7831764 C84.6867509,46.4098887 85.307042,44.5512628 86.5476241,43.2072988 C87.7882063,41.8633348 89.3569135,41.1913527 91.2537457,41.1913527 C93.3843108,41.1913527 95.0653896,41.8947988 96.296982,43.3016909 C97.5285745,44.708583 98.1174015,46.8638699 98.0634632,49.7675514 L88.5703125,49.7675514 C88.5972817,50.8912671 88.9029324,51.765518 89.4872646,52.3903039 C90.0715967,53.0150899 90.7997646,53.3274829 91.671768,53.3274829 C92.2650899,53.3274829 92.7640197,53.1656678 93.1685574,52.8420377 C93.573095,52.5184075 93.8787457,51.9970034 94.0855094,51.2778253 Z M94.3012628,47.4482021 C94.2742937,46.3514555 93.9911173,45.5176584 93.4517337,44.9468108 C92.9123502,44.3759632 92.2561002,44.0905394 91.4829837,44.0905394 C90.6559289,44.0905394 89.9727098,44.3916952 89.4333262,44.9940068 C88.8939426,45.5963185 88.6287457,46.4143836 88.6377354,47.4482021 L94.3012628,47.4482021 Z" id="Shape"/><path d="M101.151434,39.5732021 L101.151434,36.0672089 L104.940604,36.0672089 L104.940604,39.5732021 L101.151434,39.5732021 Z M101.151434,55.8356164 L101.151434,41.5149829 L104.940604,41.5149829 L104.940604,55.8356164 L101.151434,55.8356164 Z" id="Shape"/><path d="M108.473566,56.7795377 L112.802119,57.3054366 C112.874037,57.8088613 113.040347,58.1549658 113.301049,58.34375 C113.660638,58.6134418 114.226991,58.7482877 115.000107,58.7482877 C115.988977,58.7482877 116.730629,58.5999572 117.225064,58.3032962 C117.557684,58.1055223 117.809396,57.786387 117.980201,57.3458904 C118.097068,57.03125 118.155501,56.4514127 118.155501,55.6063784 L118.155501,53.5162671 C117.022795,55.0625 115.593429,55.8356164 113.867402,55.8356164 C111.9436,55.8356164 110.419842,55.0220462 109.296126,53.3949058 C108.415133,52.109375 107.974636,50.5092038 107.974636,48.5943921 C107.974636,46.1941353 108.552226,44.3602312 109.707406,43.0926798 C110.862586,41.8251284 112.298694,41.1913527 114.015732,41.1913527 C115.786708,41.1913527 117.247539,41.968964 118.398223,43.5241866 L118.398223,41.5149829 L121.94467,41.5149829 L121.94467,54.3657962 C121.94467,56.0558647 121.80533,57.3189212 121.526648,58.1549658 C121.247967,58.9910103 120.856914,59.6472603 120.353489,60.1237158 C119.850064,60.6001712 119.178082,60.9732449 118.337543,61.2429366 C117.497003,61.5126284 116.433968,61.6474743 115.148438,61.6474743 C112.721211,61.6474743 110.999679,61.2316995 109.98384,60.4001498 C108.968001,59.5686002 108.460081,58.5145548 108.460081,57.2380137 C108.460081,57.1121575 108.464576,56.9593322 108.473566,56.7795377 Z M111.858198,48.3786387 C111.858198,49.8979024 112.152611,51.010381 112.741438,51.7160745 C113.330265,52.421768 114.056186,52.7746147 114.919199,52.7746147 C115.845141,52.7746147 116.627247,52.4127783 117.265518,51.6891053 C117.903789,50.9654324 118.222924,49.8934075 118.222924,48.4730308 C118.222924,46.989726 117.917273,45.8884846 117.305972,45.1693065 C116.69467,44.4501284 115.921554,44.0905394 114.986622,44.0905394 C114.07866,44.0905394 113.330265,44.4433861 112.741438,45.1490796 C112.152611,45.8547731 111.858198,46.9312928 111.858198,48.3786387 Z" id="Shape"/><path d="M129.469071,36.0672089 L129.469071,43.3354024 C130.691674,41.906036 132.152504,41.1913527 133.851563,41.1913527 C134.723566,41.1913527 135.510167,41.3531678 136.211366,41.6767979 C136.912564,42.0004281 137.440711,42.4139555 137.795805,42.9173801 C138.150899,43.4208048 138.393622,43.9781678 138.523973,44.5894692 C138.654324,45.2007705 138.719499,46.1491866 138.719499,47.4347175 L138.719499,55.8356164 L134.93033,55.8356164 L134.93033,48.270762 C134.93033,46.7694777 134.858412,45.8165668 134.714576,45.4120291 C134.570741,45.0074914 134.316781,44.6861087 133.952697,44.447881 C133.588613,44.2096533 133.132384,44.0905394 132.584011,44.0905394 C131.95473,44.0905394 131.392872,44.2433647 130.898438,44.5490154 C130.404003,44.8546661 130.042166,45.3153896 129.812928,45.9311858 C129.58369,46.546982 129.469071,47.4571918 129.469071,48.6618151 L129.469071,55.8356164 L125.679902,55.8356164 L125.679902,36.0672089 L129.469071,36.0672089 Z" id="Path"/><path d="M149.129602,41.5149829 L149.129602,44.5355308 L146.540561,44.5355308 L146.540561,50.3069349 C146.540561,51.4755993 146.565283,52.1565711 146.614726,52.3498502 C146.66417,52.5431293 146.776541,52.7026969 146.951841,52.8285531 C147.12714,52.9544092 147.340646,53.0173373 147.592359,53.0173373 C147.942958,53.0173373 148.450878,52.895976 149.116117,52.6532534 L149.439747,55.5928938 C148.558754,55.9704623 147.560895,56.1592466 146.446169,56.1592466 C145.762949,56.1592466 145.147153,56.0446276 144.59878,55.8153896 C144.050407,55.5861515 143.648116,55.2894906 143.391909,54.9254067 C143.135702,54.5613228 142.958155,54.0691353 142.859268,53.4488442 C142.77836,53.0083476 142.737907,52.1183647 142.737907,50.7788955 L142.737907,44.5355308 L140.998395,44.5355308 L140.998395,41.5149829 L142.737907,41.5149829 L142.737907,38.6697346 L146.540561,36.458262 L146.540561,41.5149829 L149.129602,41.5149829 Z" id="Path"/><path d="M158.366545,48.6752997 C158.366545,46.0233305 159.103703,44.0590753 160.578018,42.7825342 C161.80961,41.7217466 163.310895,41.1913527 165.081871,41.1913527 C167.050621,41.1913527 168.659782,41.8363656 169.909354,43.1263913 C171.158926,44.416417 171.783711,46.1986301 171.783711,48.4730308 C171.783711,50.3159247 171.507277,51.765518 170.954409,52.8218108 C170.401541,53.8781036 169.596961,54.6984161 168.540668,55.2827483 C167.484375,55.8670805 166.331443,56.1592466 165.081871,56.1592466 C163.077162,56.1592466 161.456764,55.5164812 160.220676,54.2309503 C158.984589,52.9454195 158.366545,51.093536 158.366545,48.6752997 Z M160.861194,48.6752997 C160.861194,50.5092038 161.261237,51.8823844 162.061323,52.7948416 C162.861408,53.7072988 163.868258,54.1635274 165.081871,54.1635274 C166.286494,54.1635274 167.288848,53.7050514 168.088934,52.7880993 C168.88902,51.8711473 169.289062,50.4732449 169.289062,48.5943921 C169.289062,46.8234161 168.886772,45.4816995 168.082192,44.5692423 C167.277611,43.6567851 166.277504,43.2005565 165.081871,43.2005565 C163.868258,43.2005565 162.861408,43.6545377 162.061323,44.5625 C161.261237,45.4704623 160.861194,46.8413955 160.861194,48.6752997 Z" id="Shape"/><path d="M174.601991,55.8356164 L174.601991,41.5149829 L176.786494,41.5149829 L176.786494,43.6860017 C177.343857,42.6701627 177.858519,42.0004281 178.330479,41.6767979 C178.80244,41.3531678 179.321597,41.1913527 179.887949,41.1913527 C180.706015,41.1913527 181.537564,41.4520548 182.382598,41.9734589 L181.546554,44.2253853 C180.953232,43.874786 180.35991,43.6994863 179.766588,43.6994863 C179.236194,43.6994863 178.759739,43.8590539 178.337222,44.1781892 C177.914705,44.4973245 177.613549,44.9400685 177.433754,45.5064212 C177.164063,46.3694349 177.029217,47.3133562 177.029217,48.3381849 L177.029217,55.8356164 L174.601991,55.8356164 Z" id="Path"/><path d="M22.0306079,65.9850171 L22.0306079,73.2532106 C23.2532106,71.8238442 24.7140411,71.109161 26.4130993,71.109161 C27.2851027,71.109161 28.0717038,71.270976 28.7729024,71.5946062 C29.474101,71.9182363 30.0022474,72.3317637 30.3573416,72.8351884 C30.7124358,73.338613 30.9551584,73.895976 31.0855094,74.5072774 C31.2158604,75.1185788 31.281036,76.0669949 31.281036,77.3525257 L31.281036,85.7534247 L27.4918664,85.7534247 L27.4918664,78.1885702 C27.4918664,76.687286 27.4199486,75.734375 27.276113,75.3298373 C27.1322774,74.9252997 26.8783176,74.603917 26.5142337,74.3656892 C26.1501498,74.1274615 25.6939212,74.0083476 25.1455479,74.0083476 C24.5162671,74.0083476 23.9544092,74.1611729 23.4599743,74.4668236 C22.9655394,74.7724743 22.6037029,75.2331978 22.3744649,75.848994 C22.1452269,76.4647902 22.0306079,77.375 22.0306079,78.5796233 L22.0306079,85.7534247 L18.2414384,85.7534247 L18.2414384,65.9850171 L22.0306079,65.9850171 Z" id="Path"/><path d="M37.9559075,75.8017979 L34.5173373,75.1815068 C34.9038955,73.797089 35.5691353,72.7722603 36.5130565,72.1070205 C37.4569777,71.4417808 38.859375,71.109161 40.7202483,71.109161 C42.4103168,71.109161 43.6688784,71.3091824 44.4959332,71.7092252 C45.322988,72.109268 45.9050728,72.6171875 46.2421875,73.2329837 C46.5793022,73.84878 46.7478596,74.979238 46.7478596,76.6243579 L46.7074058,81.0473031 C46.7074058,82.3058647 46.7680865,83.2340539 46.8894478,83.8318707 C47.0108091,84.4296875 47.2377997,85.0702055 47.5704195,85.7534247 L43.8217038,85.7534247 C43.7228168,85.5017123 43.6014555,85.1286387 43.4576199,84.6342038 C43.3946918,84.4094606 43.3497432,84.2611301 43.322774,84.1892123 C42.6755137,84.8184932 41.9833048,85.2904538 41.2461473,85.6050942 C40.5089897,85.9197346 39.7223887,86.0770548 38.8863442,86.0770548 C37.4120291,86.0770548 36.250107,85.677012 35.4005779,84.8769264 C34.5510488,84.0768408 34.1262842,83.0654966 34.1262842,81.8428938 C34.1262842,81.0338185 34.3195634,80.312393 34.7061216,79.6786173 C35.0926798,79.0448416 35.6343108,78.5593964 36.3310146,78.2222817 C37.0277183,77.885167 38.0323202,77.5907534 39.3448202,77.3390411 C41.1157962,77.0064212 42.3428938,76.6962757 43.026113,76.4086045 L43.026113,76.031036 C43.026113,75.3028682 42.8463185,74.7837115 42.4867295,74.4735659 C42.1271404,74.1634204 41.4484161,74.0083476 40.4505565,74.0083476 C39.7763271,74.0083476 39.2504281,74.1409461 38.8728596,74.406143 C38.4952911,74.6713399 38.1896404,75.1365582 37.9559075,75.8017979 Z M43.026113,78.8762842 C42.5406678,79.0380993 41.7720462,79.2313784 40.7202483,79.4561216 C39.6684503,79.6808647 38.9807363,79.901113 38.6571062,80.1168664 C38.1626712,80.4674658 37.9154538,80.9124572 37.9154538,81.4518408 C37.9154538,81.9822346 38.1132277,82.4407106 38.5087757,82.8272688 C38.9043236,83.2138271 39.4077483,83.4071062 40.0190497,83.4071062 C40.7022688,83.4071062 41.354024,83.182363 41.9743151,82.7328767 C42.4327911,82.3912671 42.7339469,81.9732449 42.8777825,81.4788099 C42.9766695,81.1551798 43.026113,80.5393836 43.026113,79.6314212 L43.026113,78.8762842 Z" id="Shape"/><path d="M63.6170805,85.7534247 L60.0976027,85.7534247 L60.0976027,83.6498288 C59.5132705,84.4678938 58.8233091,85.0769478 58.0277183,85.4769906 C57.2321276,85.8770334 56.4297945,86.0770548 55.6207192,86.0770548 C53.9755993,86.0770548 52.5664598,85.4140625 51.3933005,84.0880779 C50.2201413,82.7620933 49.6335616,80.9124572 49.6335616,78.5391695 C49.6335616,76.1119435 50.2044092,74.2668022 51.3461045,73.0037457 C52.4877997,71.7406892 53.9306507,71.109161 55.6746575,71.109161 C57.2748288,71.109161 58.6592466,71.7744007 59.827911,73.1048801 L59.827911,65.9850171 L63.6170805,65.9850171 L63.6170805,85.7534247 Z M53.5036387,78.2829623 C53.5036387,79.8112158 53.7148973,80.9169521 54.1374144,81.6001712 C54.7487158,82.5890411 55.6027397,83.083476 56.6994863,83.083476 C57.5714897,83.083476 58.3131421,82.7126498 58.9244435,81.9709974 C59.5357449,81.229345 59.8413955,80.1213613 59.8413955,78.6470462 C59.8413955,77.0019264 59.5447346,75.81753 58.9514127,75.093857 C58.3580908,74.3701841 57.5984589,74.0083476 56.6725171,74.0083476 C55.7735445,74.0083476 55.020655,74.3656892 54.4138485,75.0803724 C53.807042,75.7950557 53.5036387,76.8625856 53.5036387,78.2829623 Z" id="Shape"/><path d="M74.1485445,78.390839 C74.1485445,77.1322774 74.4586901,75.9141695 75.0789812,74.7365154 C75.6992723,73.5588613 76.578018,72.6598887 77.7152183,72.0395976 C78.8524187,71.4193065 80.1222175,71.109161 81.5246147,71.109161 C83.6911387,71.109161 85.4666096,71.812607 86.8510274,73.2194991 C88.2354452,74.6263913 88.9276541,76.4041096 88.9276541,78.5526541 C88.9276541,80.7191781 88.2287029,82.5148759 86.8308005,83.9397474 C85.4328981,85.364619 83.6731592,86.0770548 81.5515839,86.0770548 C80.2390839,86.0770548 78.9872646,85.7803938 77.7961259,85.1870719 C76.6049872,84.59375 75.6992723,83.723994 75.0789812,82.5778039 C74.4586901,81.4316139 74.1485445,80.0359589 74.1485445,78.390839 Z M78.0321062,78.5931079 C78.0321062,80.0134846 78.3692209,81.1012414 79.0434503,81.8563784 C79.7176798,82.6115154 80.5492295,82.9890839 81.5380993,82.9890839 C82.5269692,82.9890839 83.3562714,82.6115154 84.026006,81.8563784 C84.6957406,81.1012414 85.0306079,80.0044949 85.0306079,78.5661387 C85.0306079,77.1637414 84.6957406,76.0849743 84.026006,75.3298373 C83.3562714,74.5747003 82.5269692,74.1971318 81.5380993,74.1971318 C80.5492295,74.1971318 79.7176798,74.5747003 79.0434503,75.3298373 C78.3692209,76.0849743 78.0321062,77.1727312 78.0321062,78.5931079 Z" id="Shape"/><path d="M91.7324486,85.7534247 L91.7324486,65.9850171 L95.5216182,65.9850171 L95.5216182,73.1048801 C96.6902825,71.7744007 98.0747003,71.109161 99.6748716,71.109161 C101.418878,71.109161 102.861729,71.7406892 104.003425,73.0037457 C105.14512,74.2668022 105.715967,76.0804795 105.715967,78.4447774 C105.715967,80.8899829 105.133883,82.7733305 103.969713,84.0948202 C102.805544,85.4163099 101.391909,86.0770548 99.7288099,86.0770548 C98.9107449,86.0770548 98.103917,85.8725385 97.3083262,85.463506 C96.5127354,85.0544735 95.8272688,84.4499144 95.2519264,83.6498288 L95.2519264,85.7534247 L91.7324486,85.7534247 Z M95.494649,78.2829623 C95.494649,79.7662671 95.7283818,80.8630137 96.1958476,81.5732021 C96.8520976,82.5800514 97.724101,83.083476 98.8118579,83.083476 C99.6479024,83.083476 100.360338,82.7261344 100.949165,82.0114512 C101.537992,81.296768 101.832406,80.1708048 101.832406,78.6335616 C101.832406,76.9974315 101.535745,75.81753 100.942423,75.093857 C100.349101,74.3701841 99.5894692,74.0083476 98.6635274,74.0083476 C97.7555651,74.0083476 97.0004281,74.3611943 96.3981164,75.0668878 C95.7958048,75.7725813 95.494649,76.8446062 95.494649,78.2829623 Z" id="Shape"/><path d="M117.056507,81.1956336 L120.832192,81.8294092 C120.346747,83.2138271 119.580372,84.2678724 118.533069,84.9915454 C117.485766,85.7152183 116.175514,86.0770548 114.602312,86.0770548 C112.112158,86.0770548 110.269264,85.2634846 109.07363,83.6363442 C108.129709,82.3328339 107.657748,80.687714 107.657748,78.7009846 C107.657748,76.3276969 108.278039,74.4690711 109.518622,73.125107 C110.759204,71.781143 112.327911,71.109161 114.224743,71.109161 C116.355308,71.109161 118.036387,71.812607 119.267979,73.2194991 C120.499572,74.6263913 121.088399,76.7816781 121.034461,79.6853596 L111.54131,79.6853596 C111.568279,80.8090753 111.87393,81.6833262 112.458262,82.3081122 C113.042594,82.9328981 113.770762,83.2452911 114.642765,83.2452911 C115.236087,83.2452911 115.735017,83.083476 116.139555,82.7598459 C116.544092,82.4362158 116.849743,81.9148116 117.056507,81.1956336 Z M117.27226,77.3660103 C117.245291,76.2692637 116.962115,75.4354666 116.422731,74.864619 C115.883348,74.2937714 115.227098,74.0083476 114.453981,74.0083476 C113.626926,74.0083476 112.943707,74.3095034 112.404324,74.9118151 C111.86494,75.5141267 111.599743,76.3321918 111.608733,77.3660103 L117.27226,77.3660103 Z" id="Shape"/><path d="M122.787457,81.6675942 L126.590111,81.0877568 C126.751926,81.8249144 127.080051,82.3845248 127.574486,82.7665882 C128.068921,83.1486515 128.76113,83.3396832 129.651113,83.3396832 C130.630993,83.3396832 131.368151,83.1598887 131.862586,82.8002997 C132.195205,82.5485873 132.361515,82.2114726 132.361515,81.7889555 C132.361515,81.5012842 132.271618,81.2630565 132.091824,81.0742723 C131.903039,80.8944777 131.480522,80.7281678 130.824272,80.5753425 C127.767765,79.901113 125.830479,79.2853168 125.012414,78.7279538 C123.879709,77.9548373 123.313356,76.8805651 123.313356,75.505137 C123.313356,74.2645548 123.803296,73.2217466 124.783176,72.3767123 C125.763057,71.5316781 127.28232,71.109161 129.340967,71.109161 C131.300728,71.109161 132.757063,71.4282962 133.709974,72.0665668 C134.662885,72.7048373 135.319135,73.6487586 135.678724,74.8983305 L132.105308,75.5590753 C131.952483,75.0017123 131.662564,74.5747003 131.235552,74.2780394 C130.80854,73.9813784 130.199486,73.8330479 129.40839,73.8330479 C128.410531,73.8330479 127.695848,73.9723887 127.264341,74.2510702 C126.97667,74.4488442 126.832834,74.7050514 126.832834,75.0196918 C126.832834,75.2893836 126.95869,75.5186216 127.210402,75.7074058 C127.552012,75.9591182 128.731914,76.3142123 130.750107,76.7726884 C132.768301,77.2311644 134.17744,77.7930223 134.977526,78.458262 C135.768622,79.1324914 136.16417,80.0719178 136.16417,81.2765411 C136.16417,82.5890411 135.615796,83.7172517 134.51905,84.6611729 C133.422303,85.6050942 131.799658,86.0770548 129.651113,86.0770548 C127.700342,86.0770548 126.156357,85.6815068 125.019157,84.890411 C123.881956,84.0993151 123.138057,83.0250428 122.787457,81.6675942 Z" id="Path"/><path d="M139.481378,69.4910103 L139.481378,65.9850171 L143.270548,65.9850171 L143.270548,69.4910103 L139.481378,69.4910103 Z M139.481378,85.7534247 L139.481378,71.4327911 L143.270548,71.4327911 L143.270548,85.7534247 L139.481378,85.7534247 Z" id="Shape"/><path d="M153.721104,71.4327911 L153.721104,74.453339 L151.132063,74.453339 L151.132063,80.2247432 C151.132063,81.3934075 151.156785,82.0743793 151.206229,82.2676584 C151.255672,82.4609375 151.368044,82.6205051 151.543343,82.7463613 C151.718643,82.8722175 151.932149,82.9351455 152.183861,82.9351455 C152.534461,82.9351455 153.04238,82.8137842 153.70762,82.5710616 L154.03125,85.5107021 C153.150257,85.8882705 152.152397,86.0770548 151.037671,86.0770548 C150.354452,86.0770548 149.738656,85.9624358 149.190283,85.7331978 C148.641909,85.5039598 148.239619,85.2072988 147.983412,84.8432149 C147.727205,84.479131 147.549658,83.9869435 147.450771,83.3666524 C147.369863,82.9261558 147.329409,82.0361729 147.329409,80.6967038 L147.329409,74.453339 L145.589897,74.453339 L145.589897,71.4327911 L147.329409,71.4327911 L147.329409,68.5875428 L151.132063,66.3760702 L151.132063,71.4327911 L153.721104,71.4327911 Z" id="Path"/><path d="M154.557149,71.4327911 L158.589041,71.4327911 L162.014127,81.6001712 L165.358305,71.4327911 L169.28232,71.4327911 L164.225599,85.2140411 L163.322132,87.7086901 C162.989512,88.5447346 162.672624,89.1830051 162.371468,89.6235017 C162.070313,90.0639983 161.724208,90.4213399 161.333155,90.6955265 C160.942102,90.9697132 160.461152,91.1832192 159.890304,91.3360445 C159.319456,91.4888699 158.674443,91.5652825 157.955265,91.5652825 C157.227098,91.5652825 156.512414,91.4888699 155.811216,91.3360445 L155.474101,88.3694349 C156.067423,88.4863014 156.602312,88.5447346 157.078767,88.5447346 C157.95976,88.5447346 158.611515,88.28628 159.034033,87.7693707 C159.45655,87.2524615 159.78018,86.593964 160.004923,85.7938784 L154.557149,71.4327911 Z" id="Path"/></g></g></g></g></g></svg>