<?xml version="1.0" encoding="UTF-8"?><svg width="414px" height="414px" viewBox="0 0 414 414" version="1.1" xmlns="http://www.w3.org/2000/svg" xmlns:xlink="http://www.w3.org/1999/xlink"><title>Flashcard-Prandial</title><g id="Screen-Design" stroke="none" stroke-width="1" fill="none" fill-rule="evenodd"><g id="Knowlwedge-Check-R2-Exports" transform="translate(-94, -1777)"><g id="Flashcard-Prandial" transform="translate(94, 1777)"><rect id="Rectangle" fill="#FFFFFF" x="0" y="0" width="414" height="414"/><circle id="Oval" stroke="#307FE2" stroke-width="5.5" cx="207" cy="208" r="154.25"/><path d="M266.281197,138.789507 L263.728762,136.237064 C263.727107,136.237064 263.727107,136.237064 263.727107,136.235409 L250.766303,123.274559 L248.208903,120.718806 C247.252154,119.760398 245.696195,119.760398 244.739446,120.718806 C243.779386,121.677213 243.779386,123.231522 244.739446,124.18993 L245.558807,125.009294 L223.436055,147.133778 L221.626839,145.3229 C221.625184,145.3229 221.623528,145.321245 221.621873,145.31959 L218.02496,141.722665 C217.066556,140.764257 215.512252,140.764257 214.553848,141.722665 C213.595444,142.681072 213.595444,144.235381 214.553848,145.193789 L216.419343,147.05929 L201.068321,162.410365 C200.109917,163.368772 200.109917,164.921426 201.068321,165.879834 C202.026726,166.838241 203.582684,166.838241 204.539433,165.879834 L219.890455,150.530414 L222.222738,152.86436 L236.468036,167.109707 L227.70832,175.871109 C227.609003,175.430804 227.395473,175.012018 227.052831,174.669375 L220.923347,168.53987 C219.964943,167.579807 218.408984,167.579807 217.452235,168.53987 C216.493831,169.496622 216.493831,171.052586 217.452235,172.009339 L223.581719,178.140499 C223.924361,178.483142 224.343145,178.698329 224.783449,178.794335 L215.40466,188.174811 C215.306998,187.734507 215.093468,187.315721 214.749171,186.973078 L208.619687,180.841917 C207.662938,179.88351 206.106979,179.88351 205.148575,180.841917 C204.19017,181.800325 204.19017,183.354634 205.148575,184.313041 L211.278059,190.444202 C211.620701,190.786845 212.039485,191.002031 212.479788,191.098037 L203.100999,200.478514 C203.003338,200.038209 202.788152,199.619423 202.44551,199.27678 L196.316027,193.147275 C195.357622,192.187212 193.801664,192.187212 192.844915,193.147275 C191.884855,194.105683 191.884855,195.659992 192.844915,196.618399 L198.974398,202.747904 C199.31704,203.090547 199.735825,203.305734 200.174473,203.403395 L191.414757,212.163142 L174.835521,195.583849 L186.520108,183.899221 C187.478512,182.940813 187.478512,181.386505 186.520108,180.428097 C185.561704,179.469689 184.0074,179.469689 183.048996,180.428097 L169.62968,193.85077 C169.167859,194.309282 168.909636,194.934978 168.909636,195.583849 C168.909636,196.236029 169.167859,196.86007 169.62968,197.320238 L170.742025,198.434242 L166.072494,203.102134 C163.296598,205.879696 163.760075,210.694908 167.12856,214.063404 L168.297184,215.232032 L147.718803,235.810484 C146.760399,236.768892 146.760399,238.3232 147.718803,239.281608 C148.198833,239.759984 148.826182,240 149.453532,240 C150.082536,240 150.711541,239.759984 151.189915,239.281608 L171.768296,218.703156 L172.93692,219.871785 C174.8289,221.763771 177.17608,222.738731 179.364354,222.738731 C181.070942,222.738731 182.681525,222.144485 183.898152,220.926199 L188.566028,216.258307 L189.680028,217.370655 C190.160058,217.850687 190.787407,218.089047 191.414757,218.089047 C192.043761,218.089047 192.672766,217.850687 193.15114,217.370655 L239.940803,170.580831 L241.806298,172.446333 C242.284673,172.926364 242.913677,173.164725 243.541027,173.164725 C244.168376,173.164725 244.799036,172.926364 245.27741,172.446333 C246.235815,171.487925 246.235815,169.933616 245.27741,168.975209 L239.866316,163.565751 L261.989068,141.441267 L262.810085,142.262286 C263.770144,143.220694 265.324448,143.219038 266.281197,142.260631 C267.239601,141.302223 267.239601,139.747915 266.281197,138.789507 L266.281197,138.789507 Z M180.42704,217.45673 C179.726859,218.156914 177.858053,217.852342 176.408032,216.402316 L170.599672,210.59228 C169.147995,209.140599 168.846735,207.273442 169.545261,206.573258 L174.213137,201.903711 L185.096572,212.787183 L180.42704,217.45673 Z M249.029919,128.480418 L258.517956,137.970143 L236.395204,160.092972 L226.907167,150.604902 L249.029919,128.480418 Z" id="Fill-200" fill="#307FE2"/><g id="Prandial" transform="translate(157.9009, 264.5)" fill="#000000" fill-rule="nonzero"><path d="M0,0.825195312 L3.77050781,0.825195312 C5.81022135,0.825195312 7.28076172,1.01350911 8.18212891,1.39013672 C9.08349609,1.76676432 9.79443359,2.37613932 10.3149414,3.21826172 C10.8354492,4.06038411 11.0957031,5.06966146 11.0957031,6.24609375 C11.0957031,7.54947917 10.7550456,8.6328125 10.0737305,9.49609375 C9.39241536,10.359375 8.46777344,10.9602865 7.29980469,11.2988281 C6.61425781,11.4934896 5.36588542,11.5908203 3.5546875,11.5908203 L3.5546875,19.5 L0,19.5 L0,0.825195312 Z M3.5546875,8.125 L4.68457031,8.125 C5.57324219,8.125 6.19108073,8.06152344 6.53808594,7.93457031 C6.88509115,7.80761719 7.15804036,7.59814453 7.35693359,7.30615234 C7.55582682,7.01416016 7.65527344,6.66080729 7.65527344,6.24609375 C7.65527344,5.52669271 7.37597656,5.00195312 6.81738281,4.671875 C6.41113281,4.42643229 5.6578776,4.30371094 4.55761719,4.30371094 L3.5546875,4.30371094 L3.5546875,8.125 Z" id="Shape"/><path d="M13.3808594,5.6875 L16.3515625,5.6875 L16.3515625,7.42675781 C16.6731771,6.74121094 17.1005859,6.22070313 17.6337891,5.86523437 C18.1669922,5.50976562 18.7509766,5.33203125 19.3857422,5.33203125 C19.8343099,5.33203125 20.3040365,5.45052083 20.7949219,5.6875 L19.7158203,8.67089844 C19.3095703,8.46777344 18.9752604,8.36621094 18.7128906,8.36621094 C18.1796875,8.36621094 17.7290039,8.69628906 17.3608398,9.35644531 C16.9926758,10.0166016 16.8085938,11.3115234 16.8085938,13.2412109 L16.8212891,13.9140625 L16.8212891,19.5 L13.3808594,19.5 L13.3808594,5.6875 Z" id="Path"/><path d="M32.7158203,5.6875 L36.1689453,5.6875 L36.1689453,19.5 L32.7158203,19.5 L32.7158203,18.0400391 C32.038737,18.6832682 31.3595378,19.1466471 30.6782227,19.4301758 C29.9969076,19.7137044 29.2584635,19.8554688 28.4628906,19.8554688 C26.6770833,19.8554688 25.132487,19.1635742 23.8291016,17.7797852 C22.5257161,16.3959961 21.8740234,14.6757812 21.8740234,12.6191406 C21.8740234,10.4863281 22.5045573,8.73860677 23.765625,7.37597656 C25.0266927,6.01334635 26.5585938,5.33203125 28.3613281,5.33203125 C29.1907552,5.33203125 29.969401,5.48860677 30.6972656,5.80175781 C31.4251302,6.11490885 32.0979818,6.58463542 32.7158203,7.2109375 L32.7158203,5.6875 Z M29.0722656,8.53125 C27.9973958,8.53125 27.1044922,8.90999349 26.3935547,9.66748047 C25.6826172,10.4249674 25.3271484,11.3961589 25.3271484,12.5810547 C25.3271484,13.7744141 25.6889648,14.7561849 26.4125977,15.5263672 C27.1362305,16.2965495 28.0270182,16.6816406 29.0849609,16.6816406 C30.1767578,16.6816406 31.0823568,16.3028971 31.8017578,15.5454102 C32.5211589,14.7879232 32.8808594,13.7955729 32.8808594,12.5683594 C32.8808594,11.3665365 32.5211589,10.3932292 31.8017578,9.6484375 C31.0823568,8.90364583 30.172526,8.53125 29.0722656,8.53125 Z" id="Shape"/><path d="M39.6728516,5.6875 L43.1259766,5.6875 L43.1259766,7.09667969 C43.9130859,6.43652344 44.6261393,5.9773763 45.2651367,5.71923828 C45.9041341,5.46110026 46.5579427,5.33203125 47.2265625,5.33203125 C48.5976562,5.33203125 49.7613932,5.81022135 50.7177734,6.76660156 C51.5218099,7.57910156 51.9238281,8.78092448 51.9238281,10.3720703 L51.9238281,19.5 L48.4960938,19.5 L48.4960938,13.4443359 C48.4960938,11.7939453 48.4220378,10.6979167 48.2739258,10.15625 C48.1258138,9.61458333 47.8676758,9.20198568 47.4995117,8.91845703 C47.1313477,8.63492839 46.6764323,8.49316406 46.1347656,8.49316406 C45.4322917,8.49316406 44.8292643,8.72802734 44.3256836,9.19775391 C43.8221029,9.66748047 43.4729818,10.3170573 43.2783203,11.1464844 C43.1767578,11.578125 43.1259766,12.5133464 43.1259766,13.9521484 L43.1259766,19.5 L39.6728516,19.5 L39.6728516,5.6875 Z" id="Path"/><path d="M65.4824219,0.35546875 L68.9355469,0.35546875 L68.9355469,19.5 L65.4824219,19.5 L65.4824219,18.0400391 C64.8053385,18.6832682 64.1261393,19.1466471 63.4448242,19.4301758 C62.7635091,19.7137044 62.0250651,19.8554688 61.2294922,19.8554688 C59.4436849,19.8554688 57.8990885,19.1635742 56.5957031,17.7797852 C55.2923177,16.3959961 54.640625,14.6757812 54.640625,12.6191406 C54.640625,10.4863281 55.2711589,8.73860677 56.5322266,7.37597656 C57.7932943,6.01334635 59.3251953,5.33203125 61.1279297,5.33203125 C61.9573568,5.33203125 62.7360026,5.48860677 63.4638672,5.80175781 C64.1917318,6.11490885 64.8645833,6.58463542 65.4824219,7.2109375 L65.4824219,0.35546875 Z M61.8388672,8.53125 C60.7639974,8.53125 59.8710938,8.90999349 59.1601562,9.66748047 C58.4492188,10.4249674 58.09375,11.3961589 58.09375,12.5810547 C58.09375,13.7744141 58.4555664,14.7561849 59.1791992,15.5263672 C59.902832,16.2965495 60.7936198,16.6816406 61.8515625,16.6816406 C62.9433594,16.6816406 63.8489583,16.3028971 64.5683594,15.5454102 C65.2877604,14.7879232 65.6474609,13.7955729 65.6474609,12.5683594 C65.6474609,11.3665365 65.2877604,10.3932292 64.5683594,9.6484375 C63.8489583,8.90364583 62.9391276,8.53125 61.8388672,8.53125 Z" id="Shape"/><path d="M73.7978516,0 C74.4072266,0 74.9298503,0.220052083 75.3657227,0.66015625 C75.8015951,1.10026042 76.0195312,1.63346354 76.0195312,2.25976562 C76.0195312,2.87760417 75.8037109,3.40445964 75.3720703,3.84033203 C74.9404297,4.27620443 74.4241536,4.49414062 73.8232422,4.49414062 C73.2054036,4.49414062 72.6785482,4.27197266 72.2426758,3.82763672 C71.8068034,3.38330078 71.5888672,2.84375 71.5888672,2.20898438 C71.5888672,1.59960938 71.8046875,1.07910156 72.2363281,0.647460938 C72.6679688,0.215820312 73.1884766,0 73.7978516,0 Z M72.0585938,5.6875 L75.5371094,5.6875 L75.5371094,19.5 L72.0585938,19.5 L72.0585938,5.6875 Z" id="Shape"/><path d="M88.8798828,5.6875 L92.3330078,5.6875 L92.3330078,19.5 L88.8798828,19.5 L88.8798828,18.0400391 C88.2027995,18.6832682 87.5236003,19.1466471 86.8422852,19.4301758 C86.1609701,19.7137044 85.422526,19.8554688 84.6269531,19.8554688 C82.8411458,19.8554688 81.2965495,19.1635742 79.9931641,17.7797852 C78.6897786,16.3959961 78.0380859,14.6757812 78.0380859,12.6191406 C78.0380859,10.4863281 78.6686198,8.73860677 79.9296875,7.37597656 C81.1907552,6.01334635 82.7226562,5.33203125 84.5253906,5.33203125 C85.3548177,5.33203125 86.1334635,5.48860677 86.8613281,5.80175781 C87.5891927,6.11490885 88.2620443,6.58463542 88.8798828,7.2109375 L88.8798828,5.6875 Z M85.2363281,8.53125 C84.1614583,8.53125 83.2685547,8.90999349 82.5576172,9.66748047 C81.8466797,10.4249674 81.4912109,11.3961589 81.4912109,12.5810547 C81.4912109,13.7744141 81.8530273,14.7561849 82.5766602,15.5263672 C83.300293,16.2965495 84.1910807,16.6816406 85.2490234,16.6816406 C86.3408203,16.6816406 87.2464193,16.3028971 87.9658203,15.5454102 C88.6852214,14.7879232 89.0449219,13.7955729 89.0449219,12.5683594 C89.0449219,11.3665365 88.6852214,10.3932292 87.9658203,9.6484375 C87.2464193,8.90364583 86.3365885,8.53125 85.2363281,8.53125 Z" id="Shape"/><polygon id="Path" points="95.46875 0.35546875 98.9345703 0.35546875 98.9345703 19.5 95.46875 19.5"/></g></g></g></g></svg>