<?xml version="1.0" encoding="UTF-8"?><svg width="414px" height="414px" viewBox="0 0 414 414" version="1.1" xmlns="http://www.w3.org/2000/svg" xmlns:xlink="http://www.w3.org/1999/xlink"><title>Flashcard-Basal</title><g id="Screen-Design" stroke="none" stroke-width="1" fill="none" fill-rule="evenodd"><g id="Knowledge-ClientR1-Exports" transform="translate(-582, -1874)"><g id="Flashcard-Basal" transform="translate(582, 1874)"><rect id="Rectangle" fill="#FFFFFF" x="0" y="0" width="414" height="414"/><circle id="Oval" stroke="#BB16A3" stroke-width="5.5" cx="207" cy="208" r="154.25"/><path d="M266.281197,138.789507 L263.728762,136.237064 C263.727107,136.237064 263.727107,136.237064 263.727107,136.235409 L250.766303,123.274559 L248.208903,120.718806 C247.252154,119.760398 245.696195,119.760398 244.739446,120.718806 C243.779386,121.677213 243.779386,123.231522 244.739446,124.18993 L245.558807,125.009294 L223.436055,147.133778 L221.626839,145.3229 C221.625184,145.3229 221.623528,145.321245 221.621873,145.31959 L218.02496,141.722665 C217.066556,140.764257 215.512252,140.764257 214.553848,141.722665 C213.595444,142.681072 213.595444,144.235381 214.553848,145.193789 L216.419343,147.05929 L201.068321,162.410365 C200.109917,163.368772 200.109917,164.921426 201.068321,165.879834 C202.026726,166.838241 203.582684,166.838241 204.539433,165.879834 L219.890455,150.530414 L222.222738,152.86436 L236.468036,167.109707 L227.70832,175.871109 C227.609003,175.430804 227.395473,175.012018 227.052831,174.669375 L220.923347,168.53987 C219.964943,167.579807 218.408984,167.579807 217.452235,168.53987 C216.493831,169.496622 216.493831,171.052586 217.452235,172.009339 L223.581719,178.140499 C223.924361,178.483142 224.343145,178.698329 224.783449,178.794335 L215.40466,188.174811 C215.306998,187.734507 215.093468,187.315721 214.749171,186.973078 L208.619687,180.841917 C207.662938,179.88351 206.106979,179.88351 205.148575,180.841917 C204.19017,181.800325 204.19017,183.354634 205.148575,184.313041 L211.278059,190.444202 C211.620701,190.786845 212.039485,191.002031 212.479788,191.098037 L203.100999,200.478514 C203.003338,200.038209 202.788152,199.619423 202.44551,199.27678 L196.316027,193.147275 C195.357622,192.187212 193.801664,192.187212 192.844915,193.147275 C191.884855,194.105683 191.884855,195.659992 192.844915,196.618399 L198.974398,202.747904 C199.31704,203.090547 199.735825,203.305734 200.174473,203.403395 L191.414757,212.163142 L174.835521,195.583849 L186.520108,183.899221 C187.478512,182.940813 187.478512,181.386505 186.520108,180.428097 C185.561704,179.469689 184.0074,179.469689 183.048996,180.428097 L169.62968,193.85077 C169.167859,194.309282 168.909636,194.934978 168.909636,195.583849 C168.909636,196.236029 169.167859,196.86007 169.62968,197.320238 L170.742025,198.434242 L166.072494,203.102134 C163.296598,205.879696 163.760075,210.694908 167.12856,214.063404 L168.297184,215.232032 L147.718803,235.810484 C146.760399,236.768892 146.760399,238.3232 147.718803,239.281608 C148.198833,239.759984 148.826182,240 149.453532,240 C150.082536,240 150.711541,239.759984 151.189915,239.281608 L171.768296,218.703156 L172.93692,219.871785 C174.8289,221.763771 177.17608,222.738731 179.364354,222.738731 C181.070942,222.738731 182.681525,222.144485 183.898152,220.926199 L188.566028,216.258307 L189.680028,217.370655 C190.160058,217.850687 190.787407,218.089047 191.414757,218.089047 C192.043761,218.089047 192.672766,217.850687 193.15114,217.370655 L239.940803,170.580831 L241.806298,172.446333 C242.284673,172.926364 242.913677,173.164725 243.541027,173.164725 C244.168376,173.164725 244.799036,172.926364 245.27741,172.446333 C246.235815,171.487925 246.235815,169.933616 245.27741,168.975209 L239.866316,163.565751 L261.989068,141.441267 L262.810085,142.262286 C263.770144,143.220694 265.324448,143.219038 266.281197,142.260631 C267.239601,141.302223 267.239601,139.747915 266.281197,138.789507 L266.281197,138.789507 Z M180.42704,217.45673 C179.726859,218.156914 177.858053,217.852342 176.408032,216.402316 L170.599672,210.59228 C169.147995,209.140599 168.846735,207.273442 169.545261,206.573258 L174.213137,201.903711 L185.096572,212.787183 L180.42704,217.45673 Z M249.029919,128.480418 L258.517956,137.970143 L236.395204,160.092972 L226.907167,150.604902 L249.029919,128.480418 Z" id="Fill-200" fill="#BB16A3"/><g id="Basal" transform="translate(175.5918, 264.8555)" fill="#000000" fill-rule="nonzero"><path d="M0,19.1445312 L0,0.469726562 L2.93261719,0.469726562 C4.63378906,0.469726562 5.87792969,0.579752604 6.66503906,0.799804688 C7.78222656,1.09602865 8.67089844,1.64615885 9.33105469,2.45019531 C9.99121094,3.25423177 10.3212891,4.20214844 10.3212891,5.29394531 C10.3212891,6.00488281 10.1710612,6.65022786 9.87060547,7.22998047 C9.57014974,7.80973307 9.08138021,8.35351563 8.40429687,8.86132813 C9.53841146,9.39453125 10.3678385,10.0610352 10.8925781,10.8608398 C11.4173177,11.6606445 11.6796875,12.6064453 11.6796875,13.6982422 C11.6796875,14.7477214 11.4088542,15.7041016 10.8671875,16.5673828 C10.3255208,17.4306641 9.62727865,18.0760091 8.77246094,18.503418 C7.91764323,18.9308268 6.73697917,19.1445312 5.23046875,19.1445312 L0,19.1445312 Z M3.5546875,3.859375 L3.5546875,7.79492188 L4.32910156,7.79492188 C5.19238281,7.79492188 5.83349609,7.61295573 6.25244141,7.24902344 C6.67138672,6.88509115 6.88085938,6.38997396 6.88085938,5.76367188 C6.88085938,5.1796875 6.68196615,4.71630859 6.28417969,4.37353516 C5.88639323,4.03076172 5.28125,3.859375 4.46875,3.859375 L3.5546875,3.859375 Z M3.5546875,10.96875 L3.5546875,15.7548828 L4.44335937,15.7548828 C5.91601563,15.7548828 6.90836589,15.5686849 7.42041016,15.1962891 C7.93245443,14.8238932 8.18847656,14.2822266 8.18847656,13.5712891 C8.18847656,12.7672526 7.88802083,12.132487 7.28710938,11.6669922 C6.68619792,11.2014974 5.6875,10.96875 4.29101562,10.96875 L3.5546875,10.96875 Z" id="Shape"/><path d="M24.9082031,5.33203125 L28.3613281,5.33203125 L28.3613281,19.1445313 L24.9082031,19.1445313 L24.9082031,17.6845703 C24.2311198,18.3277995 23.5519206,18.7911784 22.8706055,19.074707 C22.1892904,19.3582357 21.4508464,19.5 20.6552734,19.5 C18.8694661,19.5 17.3248698,18.8081055 16.0214844,17.4243164 C14.718099,16.0405273 14.0664062,14.3203125 14.0664062,12.2636719 C14.0664062,10.1308594 14.6969401,8.38313802 15.9580078,7.02050781 C17.2190755,5.6578776 18.7509766,4.9765625 20.5537109,4.9765625 C21.383138,4.9765625 22.1617839,5.13313802 22.8896484,5.44628906 C23.617513,5.7594401 24.2903646,6.22916667 24.9082031,6.85546875 L24.9082031,5.33203125 Z M21.2646484,8.17578125 C20.1897786,8.17578125 19.296875,8.55452474 18.5859375,9.31201172 C17.875,10.0694987 17.5195312,11.0406901 17.5195312,12.2255859 C17.5195312,13.4189453 17.8813477,14.4007161 18.6049805,15.1708984 C19.3286133,15.9410807 20.219401,16.3261719 21.2773438,16.3261719 C22.3691406,16.3261719 23.2747396,15.9474284 23.9941406,15.1899414 C24.7135417,14.4324544 25.0732422,13.4401042 25.0732422,12.2128906 C25.0732422,11.0110677 24.7135417,10.0377604 23.9941406,9.29296875 C23.2747396,8.54817708 22.3649089,8.17578125 21.2646484,8.17578125 Z" id="Shape"/><path d="M40.3203125,7.26171875 L38.1748047,9.40722656 C37.3030599,8.54394531 36.5117188,8.11230469 35.8007812,8.11230469 C35.4114583,8.11230469 35.1067708,8.19482422 34.8867187,8.35986328 C34.6666667,8.52490234 34.5566406,8.73014323 34.5566406,8.97558594 C34.5566406,9.16178385 34.6264648,9.33317057 34.7661133,9.48974609 C34.9057617,9.64632161 35.250651,9.86002604 35.8007812,10.1308594 L37.0703125,10.765625 C38.4075521,11.4257812 39.3258464,12.0986328 39.8251953,12.7841797 C40.3245443,13.4697266 40.5742188,14.273763 40.5742188,15.1962891 C40.5742188,16.4235026 40.1235352,17.4475911 39.222168,18.2685547 C38.3208008,19.0895182 37.1126302,19.5 35.5976562,19.5 C33.5833333,19.5 31.9752604,18.7128906 30.7734375,17.1386719 L32.90625,14.8154297 C33.3125,15.289388 33.7885742,15.6723633 34.3344727,15.9643555 C34.8803711,16.2563477 35.3649089,16.4023438 35.7880859,16.4023438 C36.2451172,16.4023438 36.6132812,16.2923177 36.8925781,16.0722656 C37.171875,15.8522135 37.3115234,15.5983073 37.3115234,15.3105469 C37.3115234,14.7773438 36.8079427,14.2568359 35.8007812,13.7490234 L34.6328125,13.1650391 C32.3984375,12.039388 31.28125,10.6302083 31.28125,8.9375 C31.28125,7.84570313 31.7023112,6.91259766 32.5444336,6.13818359 C33.386556,5.36376953 34.4635417,4.9765625 35.7753906,4.9765625 C36.672526,4.9765625 37.5167643,5.17333984 38.3081055,5.56689453 C39.0994466,5.96044922 39.7701823,6.52539063 40.3203125,7.26171875 Z" id="Path"/><path d="M53.5107422,5.33203125 L56.9638672,5.33203125 L56.9638672,19.1445313 L53.5107422,19.1445313 L53.5107422,17.6845703 C52.8336589,18.3277995 52.1544596,18.7911784 51.4731445,19.074707 C50.7918294,19.3582357 50.0533854,19.5 49.2578125,19.5 C47.4720052,19.5 45.9274089,18.8081055 44.6240234,17.4243164 C43.320638,16.0405273 42.6689453,14.3203125 42.6689453,12.2636719 C42.6689453,10.1308594 43.2994792,8.38313802 44.5605469,7.02050781 C45.8216146,5.6578776 47.3535156,4.9765625 49.15625,4.9765625 C49.9856771,4.9765625 50.7643229,5.13313802 51.4921875,5.44628906 C52.2200521,5.7594401 52.8929036,6.22916667 53.5107422,6.85546875 L53.5107422,5.33203125 Z M49.8671875,8.17578125 C48.7923177,8.17578125 47.8994141,8.55452474 47.1884766,9.31201172 C46.4775391,10.0694987 46.1220703,11.0406901 46.1220703,12.2255859 C46.1220703,13.4189453 46.4838867,14.4007161 47.2075195,15.1708984 C47.9311523,15.9410807 48.8219401,16.3261719 49.8798828,16.3261719 C50.9716797,16.3261719 51.8772786,15.9474284 52.5966797,15.1899414 C53.3160807,14.4324544 53.6757812,13.4401042 53.6757812,12.2128906 C53.6757812,11.0110677 53.3160807,10.0377604 52.5966797,9.29296875 C51.8772786,8.54817708 50.9674479,8.17578125 49.8671875,8.17578125 Z" id="Shape"/><polygon id="Path" points="60.0996094 0 63.5654297 0 63.5654297 19.1445312 60.0996094 19.1445312"/></g></g></g></g></svg>