<?xml version="1.0" encoding="UTF-8"?><svg width="297px" height="297px" viewBox="0 0 297 297" version="1.1" xmlns="http://www.w3.org/2000/svg" xmlns:xlink="http://www.w3.org/1999/xlink"><title>Image-Preprandial blood glucose-80-130</title><g id="Screen-Design" stroke="none" stroke-width="1" fill="none" fill-rule="evenodd"><g id="Lesson-3-R2-Exports" transform="translate(-359, -160)"><g id="Image-Preprandial-blood-glucose-80-130" transform="translate(359, 160)"><rect id="Rectangle" x="0" y="0" width="297" height="297"/><circle id="Oval" stroke="#2E008B" stroke-width="5.70175439" fill="#FFFFFF" cx="149" cy="149" r="127.149123"/><g id="Preprandial-blood-gl" transform="translate(68.2383, 73)" fill="#2E008B" fill-rule="nonzero"><path d="M16.8046875,0.76171875 L20.2382813,0.76171875 C22.2070312,0.76171875 23.5351562,0.84765625 24.2226562,1.01953125 C25.2070312,1.26171875 26.0117188,1.75976563 26.6367188,2.51367188 C27.2617188,3.26757813 27.5742188,4.21484375 27.5742188,5.35546875 C27.5742188,6.50390625 27.2695312,7.45117187 26.6601562,8.19726562 C26.0507813,8.94335938 25.2109375,9.4453125 24.140625,9.703125 C23.359375,9.890625 21.8984375,9.984375 19.7578125,9.984375 L18.5273438,9.984375 L18.5273438,18 L16.8046875,18 L16.8046875,0.76171875 Z M18.5273438,2.4375 L18.5273438,8.296875 L21.4453125,8.33203125 C22.625,8.33203125 23.4882812,8.22460938 24.0351562,8.00976562 C24.5820312,7.79492188 25.0117188,7.44726562 25.3242188,6.96679688 C25.6367188,6.48632813 25.7929688,5.94921875 25.7929688,5.35546875 C25.7929688,4.77734375 25.6367188,4.24804688 25.3242188,3.76757812 C25.0117188,3.28710937 24.5996094,2.9453125 24.0878906,2.7421875 C23.5761719,2.5390625 22.7382812,2.4375 21.5742187,2.4375 L18.5273438,2.4375 Z" id="Shape"/><path d="M30.1289062,5.25 L31.8046875,5.25 L31.8046875,7.11328125 C32.3046875,6.37890625 32.8320312,5.83007813 33.3867188,5.46679688 C33.9414062,5.10351562 34.5195312,4.921875 35.1210938,4.921875 C35.5742188,4.921875 36.0585938,5.06640625 36.5742188,5.35546875 L35.71875,6.73828125 C35.375,6.58984375 35.0859375,6.515625 34.8515625,6.515625 C34.3046875,6.515625 33.7773438,6.74023437 33.2695312,7.18945313 C32.7617188,7.63867188 32.375,8.3359375 32.109375,9.28125 C31.90625,10.0078125 31.8046875,11.4765625 31.8046875,13.6875 L31.8046875,18 L30.1289062,18 L30.1289062,5.25 Z" id="Path"/><path d="M48.703125,13.7695312 L50.0859375,14.4960937 C49.6328125,15.3867188 49.109375,16.1054687 48.515625,16.6523438 C47.921875,17.1992188 47.2539063,17.6152344 46.5117188,17.9003906 C45.7695313,18.1855469 44.9296875,18.328125 43.9921875,18.328125 C41.9140625,18.328125 40.2890625,17.6464844 39.1171875,16.2832031 C37.9453125,14.9199219 37.359375,13.3789063 37.359375,11.6601563 C37.359375,10.0429688 37.8554688,8.6015625 38.8476563,7.3359375 C40.1054688,5.7265625 41.7890625,4.921875 43.8984375,4.921875 C46.0703125,4.921875 47.8046875,5.74609375 49.1015625,7.39453125 C50.0234375,8.55859375 50.4921875,10.0117188 50.5078125,11.7539063 L39.046875,11.7539063 C39.078125,13.2382813 39.5507813,14.4550781 40.4648438,15.4042969 C41.3789062,16.3535156 42.5078125,16.828125 43.8515625,16.828125 C44.5,16.828125 45.1308594,16.7148438 45.7441406,16.4882813 C46.3574219,16.2617188 46.8789062,15.9609375 47.3085938,15.5859375 C47.7382812,15.2109375 48.203125,14.6054687 48.703125,13.7695312 Z M48.703125,10.3359375 C48.484375,9.4609375 48.1660156,8.76171875 47.7480469,8.23828125 C47.3300781,7.71484375 46.7773438,7.29296875 46.0898438,6.97265625 C45.4023438,6.65234375 44.6796875,6.4921875 43.921875,6.4921875 C42.671875,6.4921875 41.5976562,6.89453125 40.6992188,7.69921875 C40.0429688,8.28515625 39.546875,9.1640625 39.2109375,10.3359375 L48.703125,10.3359375 Z" id="Shape"/><path d="M53.5898438,5.25 L55.21875,5.25 L55.21875,7.59375 C55.8671875,6.703125 56.6132812,6.03515625 57.4570312,5.58984375 C58.3007812,5.14453125 59.2421875,4.921875 60.28125,4.921875 C62.09375,4.921875 63.6445312,5.57421875 64.9335938,6.87890625 C66.2226562,8.18359375 66.8671875,9.75390625 66.8671875,11.5898437 C66.8671875,13.4648438 66.2285156,15.0566406 64.9511719,16.3652344 C63.6738281,17.6738281 62.1328125,18.328125 60.328125,18.328125 C59.3125,18.328125 58.3789062,18.1171875 57.5273438,17.6953125 C56.6757812,17.2734375 55.90625,16.6445312 55.21875,15.8085938 L55.21875,22.6640625 L53.5898438,22.6640625 L53.5898438,5.25 Z M60.1523438,6.50390625 C58.7304688,6.50390625 57.5332031,7 56.5605469,7.9921875 C55.5878906,8.984375 55.1015625,10.21875 55.1015625,11.6953125 C55.1015625,12.6640625 55.3183594,13.5351562 55.7519531,14.3085938 C56.1855469,15.0820313 56.8066406,15.6953125 57.6152344,16.1484375 C58.4238281,16.6015625 59.2773438,16.828125 60.1757813,16.828125 C61.0585938,16.828125 61.8886719,16.5996094 62.6660156,16.1425781 C63.4433594,15.6855469 64.0625,15.046875 64.5234375,14.2265625 C64.984375,13.40625 65.2148438,12.546875 65.2148438,11.6484375 C65.2148438,10.7421875 64.9863281,9.8828125 64.5292969,9.0703125 C64.0722656,8.2578125 63.4570313,7.62695313 62.6835938,7.17773438 C61.9101563,6.72851562 61.0664062,6.50390625 60.1523438,6.50390625 Z" id="Shape"/><path d="M69.3164062,5.25 L70.9921875,5.25 L70.9921875,7.11328125 C71.4921875,6.37890625 72.0195312,5.83007813 72.5742188,5.46679688 C73.1289062,5.10351562 73.7070312,4.921875 74.3085938,4.921875 C74.7617188,4.921875 75.2460938,5.06640625 75.7617188,5.35546875 L74.90625,6.73828125 C74.5625,6.58984375 74.2734375,6.515625 74.0390625,6.515625 C73.4921875,6.515625 72.9648438,6.74023437 72.4570312,7.18945313 C71.9492188,7.63867188 71.5625,8.3359375 71.296875,9.28125 C71.09375,10.0078125 70.9921875,11.4765625 70.9921875,13.6875 L70.9921875,18 L69.3164062,18 L69.3164062,5.25 Z" id="Path"/><path d="M89.859375,5.25 L89.859375,18 L88.2421875,18 L88.2421875,15.8085937 C87.5546875,16.6445313 86.7832031,17.2734375 85.9277344,17.6953125 C85.0722656,18.1171875 84.1367188,18.328125 83.1210938,18.328125 C81.3164062,18.328125 79.7753906,17.6738281 78.4980469,16.3652344 C77.2207031,15.0566406 76.5820312,13.4648437 76.5820312,11.5898437 C76.5820312,9.75390625 77.2265625,8.18359375 78.515625,6.87890625 C79.8046875,5.57421875 81.3554688,4.921875 83.1679688,4.921875 C84.2148438,4.921875 85.1621094,5.14453125 86.0097656,5.58984375 C86.8574219,6.03515625 87.6015625,6.703125 88.2421875,7.59375 L88.2421875,5.25 L89.859375,5.25 Z M83.296875,6.50390625 C82.3828125,6.50390625 81.5390625,6.72851562 80.765625,7.17773438 C79.9921875,7.62695313 79.3769531,8.2578125 78.9199219,9.0703125 C78.4628906,9.8828125 78.234375,10.7421875 78.234375,11.6484375 C78.234375,12.546875 78.4648438,13.40625 78.9257812,14.2265625 C79.3867188,15.046875 80.0058594,15.6855469 80.7832031,16.1425781 C81.5605469,16.5996094 82.3945312,16.828125 83.2851562,16.828125 C84.1835938,16.828125 85.0351562,16.6015625 85.8398438,16.1484375 C86.6445312,15.6953125 87.2636719,15.0820313 87.6972656,14.3085938 C88.1308594,13.5351562 88.3476562,12.6640625 88.3476562,11.6953125 C88.3476562,10.21875 87.8613281,8.984375 86.8886719,7.9921875 C85.9160156,7 84.71875,6.50390625 83.296875,6.50390625 Z" id="Shape"/><path d="M93.5507812,5.25 L95.1914062,5.25 L95.1914062,7.53515625 C95.8476562,6.66015625 96.5742188,6.00585938 97.3710938,5.57226562 C98.1679688,5.13867187 99.0351562,4.921875 99.9726562,4.921875 C100.925781,4.921875 101.771484,5.1640625 102.509766,5.6484375 C103.248047,6.1328125 103.792969,6.78515625 104.144531,7.60546875 C104.496094,8.42578125 104.671875,9.703125 104.671875,11.4375 L104.671875,18 L103.042969,18 L103.042969,11.9179688 C103.042969,10.4492188 102.980469,9.46875 102.855469,8.9765625 C102.660156,8.1328125 102.292969,7.49804688 101.753906,7.07226562 C101.214844,6.64648437 100.511719,6.43359375 99.6445312,6.43359375 C98.6523438,6.43359375 97.7636719,6.76171875 96.9785156,7.41796875 C96.1933594,8.07421875 95.6757812,8.88671875 95.4257812,9.85546875 C95.2695312,10.4882812 95.1914062,11.6445312 95.1914062,13.3242188 L95.1914062,18 L93.5507812,18 L93.5507812,5.25 Z" id="Path"/><path d="M120.914062,0.328125 L120.914062,18 L119.296875,18 L119.296875,15.8085938 C118.609375,16.6445312 117.837891,17.2734375 116.982422,17.6953125 C116.126953,18.1171875 115.191406,18.328125 114.175781,18.328125 C112.371094,18.328125 110.830078,17.6738281 109.552734,16.3652344 C108.275391,15.0566406 107.636719,13.4648437 107.636719,11.5898438 C107.636719,9.75390625 108.28125,8.18359375 109.570312,6.87890625 C110.859375,5.57421875 112.410156,4.921875 114.222656,4.921875 C115.269531,4.921875 116.216797,5.14453125 117.064453,5.58984375 C117.912109,6.03515625 118.65625,6.703125 119.296875,7.59375 L119.296875,0.328125 L120.914062,0.328125 Z M114.351562,6.50390625 C113.4375,6.50390625 112.59375,6.72851562 111.820312,7.17773438 C111.046875,7.62695313 110.431641,8.2578125 109.974609,9.0703125 C109.517578,9.8828125 109.289062,10.7421875 109.289062,11.6484375 C109.289062,12.546875 109.519531,13.40625 109.980469,14.2265625 C110.441406,15.046875 111.060547,15.6855469 111.837891,16.1425781 C112.615234,16.5996094 113.449219,16.828125 114.339844,16.828125 C115.238281,16.828125 116.089844,16.6015625 116.894531,16.1484375 C117.699219,15.6953125 118.318359,15.0820313 118.751953,14.3085938 C119.185547,13.5351562 119.402344,12.6640625 119.402344,11.6953125 C119.402344,10.21875 118.916016,8.984375 117.943359,7.9921875 C116.970703,7 115.773438,6.50390625 114.351562,6.50390625 Z" id="Shape"/><path d="M125.203125,0 C125.578125,0 125.898438,0.1328125 126.164062,0.3984375 C126.429688,0.6640625 126.5625,0.984375 126.5625,1.359375 C126.5625,1.7265625 126.429688,2.04296875 126.164062,2.30859375 C125.898438,2.57421875 125.578125,2.70703125 125.203125,2.70703125 C124.835938,2.70703125 124.519531,2.57421875 124.253906,2.30859375 C123.988281,2.04296875 123.855469,1.7265625 123.855469,1.359375 C123.855469,0.984375 123.988281,0.6640625 124.253906,0.3984375 C124.519531,0.1328125 124.835938,0 125.203125,0 Z M124.382812,5.25 L126.035156,5.25 L126.035156,18 L124.382812,18 L124.382812,5.25 Z" id="Shape"/><path d="M142.136719,5.25 L142.136719,18 L140.519531,18 L140.519531,15.8085937 C139.832031,16.6445313 139.060547,17.2734375 138.205078,17.6953125 C137.349609,18.1171875 136.414062,18.328125 135.398438,18.328125 C133.59375,18.328125 132.052734,17.6738281 130.775391,16.3652344 C129.498047,15.0566406 128.859375,13.4648437 128.859375,11.5898437 C128.859375,9.75390625 129.503906,8.18359375 130.792969,6.87890625 C132.082031,5.57421875 133.632812,4.921875 135.445312,4.921875 C136.492188,4.921875 137.439453,5.14453125 138.287109,5.58984375 C139.134766,6.03515625 139.878906,6.703125 140.519531,7.59375 L140.519531,5.25 L142.136719,5.25 Z M135.574219,6.50390625 C134.660156,6.50390625 133.816406,6.72851562 133.042969,7.17773438 C132.269531,7.62695313 131.654297,8.2578125 131.197266,9.0703125 C130.740234,9.8828125 130.511719,10.7421875 130.511719,11.6484375 C130.511719,12.546875 130.742188,13.40625 131.203125,14.2265625 C131.664062,15.046875 132.283203,15.6855469 133.060547,16.1425781 C133.837891,16.5996094 134.671875,16.828125 135.5625,16.828125 C136.460938,16.828125 137.3125,16.6015625 138.117188,16.1484375 C138.921875,15.6953125 139.541016,15.0820313 139.974609,14.3085938 C140.408203,13.5351562 140.625,12.6640625 140.625,11.6953125 C140.625,10.21875 140.138672,8.984375 139.166016,7.9921875 C138.193359,7 136.996094,6.50390625 135.574219,6.50390625 Z" id="Shape"/><polygon id="Path" points="145.582031 0.328125 147.222656 0.328125 147.222656 18 145.582031 18"/><path d="M0,50 L0,32.328125 L1.62890625,32.328125 L1.62890625,39.4414063 C2.31640625,38.5976563 3.0859375,37.9667969 3.9375,37.5488281 C4.7890625,37.1308594 5.72265625,36.921875 6.73828125,36.921875 C8.54296875,36.921875 10.0839844,37.5761719 11.3613281,38.8847656 C12.6386719,40.1933594 13.2773438,41.78125 13.2773438,43.6484375 C13.2773438,45.4921875 12.6328125,47.0664062 11.34375,48.3710938 C10.0546875,49.6757813 8.50390625,50.328125 6.69140625,50.328125 C5.65234375,50.328125 4.7109375,50.1054687 3.8671875,49.6601562 C3.0234375,49.2148438 2.27734375,48.546875 1.62890625,47.65625 L1.62890625,50 L0,50 Z M6.5625,48.7460938 C7.4765625,48.7460938 8.3203125,48.5214844 9.09375,48.0722656 C9.8671875,47.6230469 10.4824219,46.9921875 10.9394531,46.1796875 C11.3964844,45.3671875 11.625,44.5078125 11.625,43.6015625 C11.625,42.6953125 11.3945312,41.8320312 10.9335938,41.0117188 C10.4726563,40.1914062 9.85351562,39.5527344 9.07617188,39.0957031 C8.29882812,38.6386719 7.46875,38.4101562 6.5859375,38.4101562 C5.6875,38.4101562 4.83398438,38.6386719 4.02539063,39.0957031 C3.21679687,39.5527344 2.59570313,40.1679688 2.16210937,40.9414062 C1.72851562,41.7148438 1.51171875,42.5859375 1.51171875,43.5546875 C1.51171875,45.03125 1.99804688,46.265625 2.97070313,47.2578125 C3.94335937,48.25 5.140625,48.7460938 6.5625,48.7460938 Z" id="Shape"/><polygon id="Path" points="16.0195312 32.328125 17.6601562 32.328125 17.6601562 50 16.0195312 50"/><path d="M27.1054688,36.921875 C29.0664062,36.921875 30.6914062,37.6328125 31.9804688,39.0546875 C33.1523438,40.3515625 33.7382812,41.8867187 33.7382812,43.6601563 C33.7382812,45.4414063 33.1191406,46.9980469 31.8808594,48.3300781 C30.6425781,49.6621094 29.0507812,50.328125 27.1054688,50.328125 C25.1523437,50.328125 23.5566406,49.6621094 22.3183594,48.3300781 C21.0800781,46.9980469 20.4609375,45.4414063 20.4609375,43.6601563 C20.4609375,41.8945312 21.046875,40.3632813 22.21875,39.0664062 C23.5078125,37.6367188 25.1367188,36.921875 27.1054688,36.921875 Z M27.1054688,38.5273438 C25.7460937,38.5273438 24.578125,39.03125 23.6015625,40.0390625 C22.625,41.046875 22.1367188,42.265625 22.1367188,43.6953125 C22.1367188,44.6171875 22.359375,45.4765625 22.8046875,46.2734375 C23.25,47.0703125 23.8515625,47.6855469 24.609375,48.1191406 C25.3671875,48.5527344 26.1992188,48.7695312 27.1054688,48.7695312 C28.0117188,48.7695312 28.84375,48.5527344 29.6015625,48.1191406 C30.359375,47.6855469 30.9609375,47.0703125 31.40625,46.2734375 C31.8515625,45.4765625 32.0742188,44.6171875 32.0742188,43.6953125 C32.0742188,42.265625 31.5839844,41.046875 30.6035156,40.0390625 C29.6230469,39.03125 28.4570312,38.5273438 27.1054688,38.5273438 Z" id="Shape"/><path d="M42.8203125,36.921875 C44.78125,36.921875 46.40625,37.6328125 47.6953125,39.0546875 C48.8671875,40.3515625 49.453125,41.8867187 49.453125,43.6601563 C49.453125,45.4414063 48.8339844,46.9980469 47.5957031,48.3300781 C46.3574219,49.6621094 44.765625,50.328125 42.8203125,50.328125 C40.8671875,50.328125 39.2714844,49.6621094 38.0332031,48.3300781 C36.7949219,46.9980469 36.1757812,45.4414063 36.1757812,43.6601563 C36.1757812,41.8945312 36.7617188,40.3632813 37.9335938,39.0664062 C39.2226562,37.6367188 40.8515625,36.921875 42.8203125,36.921875 Z M42.8203125,38.5273438 C41.4609375,38.5273438 40.2929688,39.03125 39.3164063,40.0390625 C38.3398438,41.046875 37.8515625,42.265625 37.8515625,43.6953125 C37.8515625,44.6171875 38.0742188,45.4765625 38.5195312,46.2734375 C38.9648437,47.0703125 39.5664062,47.6855469 40.3242188,48.1191406 C41.0820312,48.5527344 41.9140625,48.7695312 42.8203125,48.7695312 C43.7265625,48.7695312 44.5585938,48.5527344 45.3164062,48.1191406 C46.0742188,47.6855469 46.6757812,47.0703125 47.1210938,46.2734375 C47.5664063,45.4765625 47.7890625,44.6171875 47.7890625,43.6953125 C47.7890625,42.265625 47.2988281,41.046875 46.3183594,40.0390625 C45.3378906,39.03125 44.171875,38.5273438 42.8203125,38.5273438 Z" id="Shape"/><path d="M65.2265625,32.328125 L65.2265625,50 L63.609375,50 L63.609375,47.8085938 C62.921875,48.6445312 62.1503906,49.2734375 61.2949219,49.6953125 C60.4394531,50.1171875 59.5039062,50.328125 58.4882812,50.328125 C56.6835938,50.328125 55.1425781,49.6738281 53.8652344,48.3652344 C52.5878906,47.0566406 51.9492188,45.4648437 51.9492188,43.5898438 C51.9492188,41.7539062 52.59375,40.1835938 53.8828125,38.8789063 C55.171875,37.5742188 56.7226562,36.921875 58.5351562,36.921875 C59.5820312,36.921875 60.5292969,37.1445312 61.3769531,37.5898437 C62.2246094,38.0351563 62.96875,38.703125 63.609375,39.59375 L63.609375,32.328125 L65.2265625,32.328125 Z M58.6640625,38.5039062 C57.75,38.5039062 56.90625,38.7285156 56.1328125,39.1777344 C55.359375,39.6269531 54.7441406,40.2578125 54.2871094,41.0703125 C53.8300781,41.8828125 53.6015625,42.7421875 53.6015625,43.6484375 C53.6015625,44.546875 53.8320312,45.40625 54.2929688,46.2265625 C54.7539063,47.046875 55.3730469,47.6855469 56.1503906,48.1425781 C56.9277344,48.5996094 57.7617188,48.828125 58.6523438,48.828125 C59.5507812,48.828125 60.4023438,48.6015625 61.2070312,48.1484375 C62.0117188,47.6953125 62.6308594,47.0820312 63.0644531,46.3085938 C63.4980469,45.5351562 63.7148438,44.6640625 63.7148438,43.6953125 C63.7148438,42.21875 63.2285156,40.984375 62.2558594,39.9921875 C61.2832031,39 60.0859375,38.5039062 58.6640625,38.5039062 Z" id="Shape"/><path d="M86.5664062,37.25 L88.21875,37.25 L88.21875,47.4101562 C88.21875,49.1992188 88.0625,50.5078125 87.75,51.3359375 C87.3203125,52.5078125 86.5742188,53.4101562 85.5117188,54.0429688 C84.4492188,54.6757812 83.171875,54.9921875 81.6796875,54.9921875 C80.5859375,54.9921875 79.6035156,54.8378906 78.7324219,54.5292969 C77.8613281,54.2207031 77.1523438,53.8066406 76.6054688,53.2871094 C76.0585938,52.7675781 75.5546875,52.0078125 75.09375,51.0078125 L76.875,51.0078125 C77.359375,51.8515625 77.984375,52.4765625 78.75,52.8828125 C79.515625,53.2890625 80.4648438,53.4921875 81.5976562,53.4921875 C82.7148438,53.4921875 83.6582031,53.2832031 84.4277344,52.8652344 C85.1972656,52.4472656 85.7460938,51.921875 86.0742188,51.2890625 C86.4023438,50.65625 86.5664062,49.6367188 86.5664062,48.2304688 L86.5664062,47.5742188 C85.9492188,48.3554688 85.1953125,48.9550781 84.3046875,49.3730469 C83.4140625,49.7910156 82.46875,50 81.46875,50 C80.296875,50 79.1953125,49.7089844 78.1640625,49.1269531 C77.1328125,48.5449219 76.3359375,47.7617188 75.7734375,46.7773438 C75.2109375,45.7929688 74.9296875,44.7109375 74.9296875,43.53125 C74.9296875,42.3515625 75.2226562,41.2519531 75.8085938,40.2324219 C76.3945312,39.2128906 77.2050781,38.40625 78.2402344,37.8125 C79.2753906,37.21875 80.3671875,36.921875 81.515625,36.921875 C82.46875,36.921875 83.3574219,37.1191406 84.1816406,37.5136719 C85.0058594,37.9082031 85.8007812,38.5585938 86.5664062,39.4648438 L86.5664062,37.25 Z M81.7265625,38.5039062 C80.796875,38.5039062 79.9335938,38.7285156 79.1367188,39.1777344 C78.3398438,39.6269531 77.7148438,40.2480469 77.2617188,41.0410156 C76.8085938,41.8339844 76.5820312,42.6914062 76.5820312,43.6132812 C76.5820312,45.0117188 77.0507812,46.1679688 77.9882812,47.0820312 C78.9257812,47.9960938 80.140625,48.453125 81.6328125,48.453125 C83.140625,48.453125 84.3535156,48 85.2714844,47.09375 C86.1894531,46.1875 86.6484375,44.9960938 86.6484375,43.5195312 C86.6484375,42.5585938 86.4375,41.7011719 86.015625,40.9472656 C85.59375,40.1933594 84.9960938,39.5976562 84.2226562,39.1601562 C83.4492188,38.7226562 82.6171875,38.5039062 81.7265625,38.5039062 Z" id="Shape"/><polygon id="Path" points="91.4882812 32.328125 93.1289062 32.328125 93.1289062 50 91.4882812 50"/><path d="M96.328125,37.25 L97.9804688,37.25 L97.9804688,43.203125 C97.9804688,44.65625 98.0585938,45.65625 98.2148438,46.203125 C98.4492188,46.984375 98.8964844,47.6015625 99.5566406,48.0546875 C100.216797,48.5078125 101.003906,48.734375 101.917969,48.734375 C102.832031,48.734375 103.607422,48.5136719 104.244141,48.0722656 C104.880859,47.6308594 105.320312,47.0507813 105.5625,46.3320313 C105.726562,45.8398438 105.808594,44.796875 105.808594,43.203125 L105.808594,37.25 L107.484375,37.25 L107.484375,43.5078125 C107.484375,45.265625 107.279297,46.5898438 106.869141,47.4804688 C106.458984,48.3710938 105.841797,49.0683594 105.017578,49.5722656 C104.193359,50.0761719 103.160156,50.328125 101.917969,50.328125 C100.675781,50.328125 99.6386719,50.0761719 98.8066406,49.5722656 C97.9746094,49.0683594 97.3535156,48.3652344 96.9433594,47.4628906 C96.5332031,46.5605469 96.328125,45.203125 96.328125,43.390625 L96.328125,37.25 Z" id="Path"/><path d="M123.503906,39.8984375 L122.203125,40.7070312 C121.078125,39.2148438 119.542969,38.46875 117.597656,38.46875 C116.042969,38.46875 114.751953,38.96875 113.724609,39.96875 C112.697266,40.96875 112.183594,42.1835938 112.183594,43.6132812 C112.183594,44.5429688 112.419922,45.4179688 112.892578,46.2382812 C113.365234,47.0585938 114.013672,47.6953125 114.837891,48.1484375 C115.662109,48.6015625 116.585938,48.828125 117.609375,48.828125 C119.484375,48.828125 121.015625,48.0820313 122.203125,46.5898438 L123.503906,47.4453125 C122.894531,48.359375 122.076172,49.0683594 121.048828,49.5722656 C120.021484,50.0761719 118.851562,50.328125 117.539062,50.328125 C115.523438,50.328125 113.851562,49.6875 112.523438,48.40625 C111.195312,47.125 110.53125,45.5664062 110.53125,43.7304688 C110.53125,42.4960938 110.841797,41.3496094 111.462891,40.2910156 C112.083984,39.2324219 112.9375,38.40625 114.023438,37.8125 C115.109375,37.21875 116.324219,36.921875 117.667969,36.921875 C118.511719,36.921875 119.326172,37.0507812 120.111328,37.3085938 C120.896484,37.5664062 121.5625,37.9023438 122.109375,38.3164062 C122.65625,38.7304688 123.121094,39.2578125 123.503906,39.8984375 Z" id="Path"/><path d="M132.691406,36.921875 C134.652344,36.921875 136.277344,37.6328125 137.566406,39.0546875 C138.738281,40.3515625 139.324219,41.8867187 139.324219,43.6601563 C139.324219,45.4414063 138.705078,46.9980469 137.466797,48.3300781 C136.228516,49.6621094 134.636719,50.328125 132.691406,50.328125 C130.738281,50.328125 129.142578,49.6621094 127.904297,48.3300781 C126.666016,46.9980469 126.046875,45.4414063 126.046875,43.6601563 C126.046875,41.8945312 126.632812,40.3632813 127.804688,39.0664062 C129.09375,37.6367188 130.722656,36.921875 132.691406,36.921875 Z M132.691406,38.5273438 C131.332031,38.5273438 130.164062,39.03125 129.1875,40.0390625 C128.210938,41.046875 127.722656,42.265625 127.722656,43.6953125 C127.722656,44.6171875 127.945312,45.4765625 128.390625,46.2734375 C128.835938,47.0703125 129.4375,47.6855469 130.195312,48.1191406 C130.953125,48.5527344 131.785156,48.7695312 132.691406,48.7695312 C133.597656,48.7695312 134.429688,48.5527344 135.1875,48.1191406 C135.945312,47.6855469 136.546875,47.0703125 136.992188,46.2734375 C137.4375,45.4765625 137.660156,44.6171875 137.660156,43.6953125 C137.660156,42.265625 137.169922,41.046875 136.189453,40.0390625 C135.208984,39.03125 134.042969,38.5273438 132.691406,38.5273438 Z" id="Shape"/><path d="M148.78125,38.6445312 L147.726562,39.734375 C146.851562,38.8828125 145.996094,38.4570313 145.160156,38.4570313 C144.628906,38.4570313 144.173828,38.6328125 143.794922,38.984375 C143.416016,39.3359375 143.226562,39.7460938 143.226562,40.2148438 C143.226562,40.6289063 143.382812,41.0234375 143.695312,41.3984375 C144.007812,41.78125 144.664062,42.2304688 145.664062,42.7460937 C146.882812,43.3789063 147.710938,43.9882812 148.148438,44.5742188 C148.578125,45.1679688 148.792969,45.8359375 148.792969,46.578125 C148.792969,47.625 148.425781,48.5117188 147.691406,49.2382812 C146.957031,49.9648438 146.039062,50.328125 144.9375,50.328125 C144.203125,50.328125 143.501953,50.1679688 142.833984,49.8476562 C142.166016,49.5273438 141.613281,49.0859375 141.175781,48.5234375 L142.207031,47.3515625 C143.042969,48.296875 143.929688,48.7695312 144.867188,48.7695312 C145.523438,48.7695312 146.082031,48.5585938 146.542969,48.1367188 C147.003906,47.7148438 147.234375,47.21875 147.234375,46.6484375 C147.234375,46.1796875 147.082031,45.7617188 146.777344,45.3945312 C146.472656,45.0351562 145.785156,44.5820313 144.714844,44.0351563 C143.566406,43.4414062 142.785156,42.8554688 142.371094,42.2773438 C141.957031,41.6992187 141.75,41.0390625 141.75,40.296875 C141.75,39.328125 142.080078,38.5234375 142.740234,37.8828125 C143.400391,37.2421875 144.234375,36.921875 145.242188,36.921875 C146.414062,36.921875 147.59375,37.4960938 148.78125,38.6445312 Z" id="Path"/><path d="M162.421875,45.7695312 L163.804688,46.4960938 C163.351562,47.3867188 162.828125,48.1054688 162.234375,48.6523438 C161.640625,49.1992188 160.972656,49.6152344 160.230469,49.9003906 C159.488281,50.1855469 158.648438,50.328125 157.710938,50.328125 C155.632812,50.328125 154.007812,49.6464844 152.835938,48.2832031 C151.664062,46.9199219 151.078125,45.3789062 151.078125,43.6601563 C151.078125,42.0429688 151.574219,40.6015625 152.566406,39.3359375 C153.824219,37.7265625 155.507812,36.921875 157.617188,36.921875 C159.789062,36.921875 161.523438,37.7460938 162.820312,39.3945312 C163.742188,40.5585938 164.210938,42.0117188 164.226562,43.7539063 L152.765625,43.7539063 C152.796875,45.2382813 153.269531,46.4550781 154.183594,47.4042969 C155.097656,48.3535156 156.226562,48.828125 157.570312,48.828125 C158.21875,48.828125 158.849609,48.7148438 159.462891,48.4882812 C160.076172,48.2617188 160.597656,47.9609375 161.027344,47.5859375 C161.457031,47.2109375 161.921875,46.6054688 162.421875,45.7695312 Z M162.421875,42.3359375 C162.203125,41.4609375 161.884766,40.7617188 161.466797,40.2382812 C161.048828,39.7148438 160.496094,39.2929688 159.808594,38.9726562 C159.121094,38.6523438 158.398438,38.4921875 157.640625,38.4921875 C156.390625,38.4921875 155.316406,38.8945312 154.417969,39.6992188 C153.761719,40.2851562 153.265625,41.1640625 152.929688,42.3359375 L162.421875,42.3359375 Z" id="Shape"/></g><g id="80-130-mg/dL" transform="translate(89.9849, 150.0195)" fill="#2E008B" fill-rule="nonzero"><path d="M15.0664063,13.1923828 C16.3033854,13.9840495 17.2589518,15.0014648 17.9331055,16.2446289 C18.6072591,17.487793 18.9443359,18.8330078 18.9443359,20.2802734 C18.9443359,21.851237 18.5515951,23.3046875 17.7661133,24.640625 C16.9806315,25.9765625 15.9261068,26.9816081 14.6025391,27.6557617 C13.2789714,28.3299154 11.5904948,28.6669922 9.53710937,28.6669922 C7.33528646,28.6669922 5.58496094,28.3422852 4.28613281,27.6928711 C2.98730469,27.043457 1.94824219,26.0600586 1.16894531,24.7426758 C0.389648437,23.425293 0,21.9378255 0,20.2802734 C0,18.8453776 0.31233724,17.5372721 0.937011719,16.355957 C1.5616862,15.1746419 2.49869792,14.1201172 3.74804687,13.1923828 C2.93164062,12.3636068 2.31624349,11.4822591 1.90185547,10.5483398 C1.48746745,9.61442057 1.28027344,8.62792969 1.28027344,7.58886719 C1.28027344,6.16634115 1.62353516,4.87060547 2.31005859,3.70166016 C2.99658203,2.53271484 3.95833333,1.62353516 5.1953125,0.974121094 C6.43229167,0.324707031 7.8610026,0 9.48144531,0 C11.0771484,0 12.4811198,0.327799479 13.6933594,0.983398438 C14.905599,1.6389974 15.8611654,2.56982422 16.5600586,3.77587891 C17.2589518,4.98193359 17.6083984,6.27766927 17.6083984,7.66308594 C17.6083984,8.64029948 17.425944,9.54638672 17.0610352,10.3813477 C16.6961263,11.2163086 16.03125,12.1533203 15.0664063,13.1923828 Z M9.31445312,5.00976562 C8.4609375,5.00976562 7.75895182,5.29117839 7.20849609,5.85400391 C6.65804036,6.41682943 6.3828125,7.13736979 6.3828125,8.015625 C6.3828125,8.89388021 6.6735026,9.62988281 7.25488281,10.2236328 C7.83626302,10.8173828 8.55371094,11.1142578 9.40722656,11.1142578 C10.2854818,11.1142578 11.0060221,10.8235677 11.5688477,10.2421875 C12.1316732,9.66080729 12.4130859,8.90625 12.4130859,7.97851562 C12.4130859,7.10026042 12.1285807,6.38590495 11.5595703,5.83544922 C10.9905599,5.28499349 10.2421875,5.00976562 9.31445312,5.00976562 Z M9.51855469,15.9570312 C8.26920573,15.9570312 7.21777344,16.3374023 6.36425781,17.0981445 C5.51074219,17.8588867 5.08398438,18.764974 5.08398438,19.8164062 C5.08398438,20.9173177 5.4860026,21.8481445 6.29003906,22.6088867 C7.09407552,23.3696289 8.15169271,23.75 9.46289062,23.75 C10.7864583,23.75 11.8409831,23.3943685 12.6264648,22.6831055 C13.4119466,21.9718424 13.8046875,21.0533854 13.8046875,19.9277344 C13.8046875,18.8020833 13.3964844,17.8588867 12.5800781,17.0981445 C11.7636719,16.3374023 10.7431641,15.9570312 9.51855469,15.9570312 Z" id="Shape"/><path d="M30.6708984,0 C32.6624349,0 34.3787435,0.488606771 35.8198242,1.46582031 C37.2609049,2.44303385 38.3741862,3.9366862 39.159668,5.94677734 C39.9451497,7.95686849 40.3378906,10.7555339 40.3378906,14.3427734 C40.3378906,17.9671224 39.9389648,20.7874349 39.1411133,22.8037109 C38.3432617,24.819987 37.2701823,26.3012695 35.921875,27.2475586 C34.5735677,28.1938477 32.8727214,28.6669922 30.8193359,28.6669922 C28.7659505,28.6669922 27.0403646,28.1907552 25.6425781,27.2382813 C24.2447917,26.2858073 23.1500651,24.8385417 22.3583984,22.8964844 C21.5667318,20.9544271 21.1708984,18.1897786 21.1708984,14.6025391 C21.1708984,9.59277344 21.9440104,5.96223958 23.4902344,3.7109375 C25.2096354,1.23697917 27.6031901,0 30.6708984,0 Z M30.8007812,4.93554688 C29.922526,4.93554688 29.1432292,5.21695964 28.4628906,5.77978516 C27.7825521,6.34261068 27.2630208,7.31054688 26.9042969,8.68359375 C26.5455729,10.0566406 26.3662109,12.0667318 26.3662109,14.7138672 C26.3662109,18.1650391 26.7775065,20.5493164 27.6000977,21.8666992 C28.4226888,23.184082 29.4895833,23.8427734 30.8007812,23.8427734 C32.0625,23.8427734 33.0644531,23.218099 33.8066406,21.96875 C34.7096354,20.4596354 35.1611328,17.9361979 35.1611328,14.3984375 C35.1611328,10.8111979 34.7560221,8.33723958 33.9458008,6.9765625 C33.1355794,5.61588542 32.0872396,4.93554688 30.8007812,4.93554688 Z" id="Shape"/><polygon id="Path" points="44.6611328 15.5673828 54.0869141 15.5673828 54.0869141 20.2802734 44.6611328 20.2802734"/><polygon id="Path" points="63.6054688 0.686523438 71.3798828 0.686523438 71.3798828 27.9804688 66.2216797 27.9804688 66.2216797 5.56640625 60.5996094 5.56640625"/><path d="M85.8525391,7.421875 L80.8613281,7.421875 C81.1210938,5.40559896 81.8447266,3.78515625 83.0322266,2.56054688 C84.6897786,0.853515625 86.7740885,0 89.2851562,0 C91.5240885,0 93.4012044,0.711263021 94.9165039,2.13378906 C96.4318034,3.5563151 97.1894531,5.24479167 97.1894531,7.19921875 C97.1894531,8.41145833 96.8585612,9.51855469 96.1967773,10.5205078 C95.5349935,11.5224609 94.5732422,12.3326823 93.3115234,12.9511719 C94.9690755,13.4459635 96.2648112,14.3087565 97.1987305,15.5395508 C98.1326497,16.7703451 98.5996094,18.2207031 98.5996094,19.890625 C98.5996094,22.3398438 97.6966146,24.4148763 95.890625,26.1157227 C94.0846354,27.816569 91.7838542,28.6669922 88.9882812,28.6669922 C86.3411458,28.6669922 84.1826172,27.8660482 82.5126953,26.2641602 C80.8427734,24.6622721 79.9274089,22.4820964 79.7666016,19.7236328 L84.90625,19.7236328 C85.1289062,21.1337891 85.6206055,22.1821289 86.3813477,22.8686523 C87.1420898,23.5551758 88.1038411,23.8984375 89.2666016,23.8984375 C90.4788411,23.8984375 91.4838867,23.5087891 92.2817383,22.7294922 C93.0795898,21.9501953 93.4785156,20.9977214 93.4785156,19.8720703 C93.4785156,18.6350911 92.9404297,17.5898438 91.8642578,16.7363281 C90.7880859,15.8828125 89.2356771,15.4436849 87.2070312,15.4189453 L87.2070312,10.9658203 C88.4563802,10.866862 89.387207,10.6720378 89.9995117,10.3813477 C90.6118164,10.0906576 91.0880534,9.69173177 91.4282227,9.18457031 C91.7683919,8.67740885 91.9384766,8.13932292 91.9384766,7.5703125 C91.9384766,6.828125 91.6787109,6.21272786 91.1591797,5.72412109 C90.6396484,5.23551432 89.9593099,4.99121094 89.1181641,4.99121094 C88.3759766,4.99121094 87.7018229,5.21695964 87.0957031,5.66845703 C86.4895833,6.11995443 86.0751953,6.70442708 85.8525391,7.421875 Z" id="Path"/><path d="M110.474609,0 C112.466146,0 114.182454,0.488606771 115.623535,1.46582031 C117.064616,2.44303385 118.177897,3.9366862 118.963379,5.94677734 C119.748861,7.95686849 120.141602,10.7555339 120.141602,14.3427734 C120.141602,17.9671224 119.742676,20.7874349 118.944824,22.8037109 C118.146973,24.819987 117.073893,26.3012695 115.725586,27.2475586 C114.377279,28.1938477 112.676432,28.6669922 110.623047,28.6669922 C108.569661,28.6669922 106.844076,28.1907552 105.446289,27.2382813 C104.048503,26.2858073 102.953776,24.8385417 102.162109,22.8964844 C101.370443,20.9544271 100.974609,18.1897786 100.974609,14.6025391 C100.974609,9.59277344 101.747721,5.96223958 103.293945,3.7109375 C105.013346,1.23697917 107.406901,0 110.474609,0 Z M110.604492,4.93554688 C109.726237,4.93554688 108.94694,5.21695964 108.266602,5.77978516 C107.586263,6.34261068 107.066732,7.31054688 106.708008,8.68359375 C106.349284,10.0566406 106.169922,12.0667318 106.169922,14.7138672 C106.169922,18.1650391 106.581217,20.5493164 107.403809,21.8666992 C108.2264,23.184082 109.293294,23.8427734 110.604492,23.8427734 C111.866211,23.8427734 112.868164,23.218099 113.610352,21.96875 C114.513346,20.4596354 114.964844,17.9361979 114.964844,14.3984375 C114.964844,10.8111979 114.559733,8.33723958 113.749512,6.9765625 C112.93929,5.61588542 111.890951,4.93554688 110.604492,4.93554688 Z" id="Shape"/><path d="M2.49560547,49.7929688 L7.57958984,49.7929688 L7.57958984,52.1123047 C8.44547526,51.1598307 9.40722656,50.4485677 10.4648438,49.9785156 C11.5224609,49.5084635 12.675944,49.2734375 13.925293,49.2734375 C15.1870117,49.2734375 16.3250326,49.5826823 17.3393555,50.2011719 C18.3536784,50.8196615 19.1700846,51.7226562 19.7885742,52.9101562 C20.5926107,51.7226562 21.5791016,50.8196615 22.7480469,50.2011719 C23.9169922,49.5826823 25.1941732,49.2734375 26.5795898,49.2734375 C28.0144857,49.2734375 29.2762044,49.6074219 30.3647461,50.2753906 C31.4532878,50.9433594 32.2356771,51.8154297 32.7119141,52.8916016 C33.188151,53.9677734 33.4262695,55.718099 33.4262695,58.1425781 L33.4262695,69.9804688 L28.3237305,69.9804688 L28.3237305,59.7382813 C28.3237305,57.4498698 28.0392253,55.9005534 27.4702148,55.090332 C26.9012044,54.2801107 26.0476888,53.875 24.909668,53.875 C24.0437826,53.875 23.2675781,54.1223958 22.5810547,54.6171875 C21.8945313,55.1119792 21.3842773,55.7954102 21.050293,56.6674805 C20.7163086,57.5395508 20.5493164,58.9404297 20.5493164,60.8701172 L20.5493164,69.9804688 L15.4467773,69.9804688 L15.4467773,60.2021484 C15.4467773,58.3961589 15.3138021,57.0880534 15.0478516,56.277832 C14.781901,55.4676107 14.3829753,54.8645833 13.8510742,54.46875 C13.3191732,54.0729167 12.675944,53.875 11.9213867,53.875 C11.0802409,53.875 10.3164062,54.1254883 9.62988281,54.6264648 C8.94335937,55.1274414 8.43001302,55.8294271 8.08984375,56.7324219 C7.74967448,57.6354167 7.57958984,59.0579427 7.57958984,61 L7.57958984,69.9804688 L2.49560547,69.9804688 L2.49560547,49.7929688 Z" id="Path"/><path d="M53.168457,49.7929688 L58.215332,49.7929688 L58.215332,67.0859375 C58.215332,70.5 57.5288086,73.0110677 56.1557617,74.6191406 C54.3126628,76.796224 51.5356445,77.8847656 47.824707,77.8847656 C45.8455404,77.8847656 44.1818034,77.6373698 42.8334961,77.1425781 C41.4851888,76.6477865 40.347168,75.9210612 39.4194336,74.9624023 C38.4916992,74.0037435 37.8051758,72.8378906 37.3598633,71.4648438 L42.9448242,71.4648438 C43.4396159,72.0338542 44.0766602,72.4637044 44.855957,72.7543945 C45.6352539,73.0450846 46.5568034,73.1904297 47.6206055,73.1904297 C48.9812826,73.1904297 50.0760091,72.9801432 50.9047852,72.5595703 C51.7335612,72.1389974 52.3180339,71.5947266 52.6582031,70.9267578 C52.9983724,70.2587891 53.168457,69.1083984 53.168457,67.4755859 C52.277832,68.3662109 51.3439128,69.0063477 50.3666992,69.3959961 C49.3894857,69.7856445 48.2823893,69.9804688 47.0454102,69.9804688 C44.3364258,69.9804688 42.0480143,69.0032552 40.1801758,67.0488281 C38.3123372,65.094401 37.378418,62.6204427 37.378418,59.6269531 C37.378418,56.4231771 38.3680013,53.8502604 40.347168,51.9082031 C42.1407878,50.1516927 44.2807617,49.2734375 46.7670898,49.2734375 C47.9298503,49.2734375 49.0276693,49.4868164 50.0605469,49.9135742 C51.0934245,50.340332 52.1293945,51.0423177 53.168457,52.0195312 L53.168457,49.7929688 Z M47.9174805,54.0048828 C46.3217773,54.0048828 45.0043945,54.5398763 43.965332,55.6098633 C42.9262695,56.6798503 42.4067383,58.0250651 42.4067383,59.6455078 C42.4067383,61.3277995 42.9386393,62.7070312 44.0024414,63.7832031 C45.0662435,64.859375 46.402181,65.3974609 48.0102539,65.3974609 C49.5812174,65.3974609 50.8769531,64.8717448 51.8974609,63.8203125 C52.9179688,62.7688802 53.4282227,61.3896484 53.4282227,59.6826172 C53.4282227,58.0003255 52.9148763,56.6334635 51.8881836,55.5820313 C50.8614909,54.530599 49.5379232,54.0048828 47.9174805,54.0048828 Z" id="Shape"/><polygon id="Path" points="61.5922852 74.8417969 73.8569336 41.9072266 77.456543 41.9072266 65.1733398 74.8417969"/><path d="M95.7329102,42 L100.779785,42 L100.779785,69.9804688 L95.7329102,69.9804688 L95.7329102,67.8466797 C94.7433268,68.7867839 93.750651,69.4640299 92.7548828,69.878418 C91.7591146,70.292806 90.6798503,70.5 89.5170898,70.5 C86.9070638,70.5 84.6495768,69.4887695 82.7446289,67.4663086 C80.839681,65.4438477 79.887207,62.9296875 79.887207,59.9238281 C79.887207,56.8066406 80.8087565,54.2522786 82.6518555,52.2607422 C84.4949544,50.2692057 86.7338867,49.2734375 89.3686523,49.2734375 C90.5808919,49.2734375 91.7189128,49.5022786 92.7827148,49.9599609 C93.8465169,50.4176432 94.8299154,51.1041667 95.7329102,52.0195312 L95.7329102,42 Z M90.4077148,53.9492188 C88.8367513,53.9492188 87.5317383,54.5027669 86.4926758,55.6098633 C85.4536133,56.7169596 84.934082,58.1363932 84.934082,59.8681641 C84.934082,61.6123047 85.4628906,63.0472005 86.5205078,64.1728516 C87.578125,65.2985026 88.8800456,65.8613281 90.4262695,65.8613281 C92.0219727,65.8613281 93.3455404,65.3077799 94.3969727,64.2006836 C95.4484049,63.0935872 95.9741211,61.6432292 95.9741211,59.8496094 C95.9741211,58.093099 95.4484049,56.6705729 94.3969727,55.5820312 C93.3455404,54.4934896 92.0157878,53.9492188 90.4077148,53.9492188 Z" id="Shape"/><polygon id="Path" points="106.45752 42.6865234 111.652832 42.6865234 111.652832 65.0263672 119.223145 65.0263672 119.223145 69.9804688 106.45752 69.9804688"/></g></g></g></g></svg>