<?xml version="1.0" encoding="UTF-8"?><svg width="297px" height="297px" viewBox="0 0 297 297" version="1.1" xmlns="http://www.w3.org/2000/svg" xmlns:xlink="http://www.w3.org/1999/xlink"><title>Image-Preprandial blood glucose-LessThan180</title><g id="Screen-Design" stroke="none" stroke-width="1" fill="none" fill-rule="evenodd"><g id="Lesson-3-R2-Exports" transform="translate(-671, -160)"><g id="Image-Preprandial-blood-glucose-LessThan180" transform="translate(671, 160)"><rect id="Rectangle" x="0" y="0" width="297" height="297"/><circle id="Oval" stroke="#2E008B" stroke-width="5.70175439" fill="#FFFFFF" cx="149" cy="149" r="127.149123"/><g id="less-than-180-mg/dL" transform="translate(55.9648, 138.0195)" fill="#2E008B" fill-rule="nonzero"><polygon id="Path" points="16.2631836 0 21.3286133 0 21.3286133 27.9804688 16.2631836 27.9804688"/><path d="M46.1362305,19.3525391 L29.8637695,19.3525391 C30.0987956,20.7874349 30.7265625,21.9285482 31.7470703,22.7758789 C32.7675781,23.6232096 34.0694987,24.046875 35.652832,24.046875 C37.5454102,24.046875 39.1720378,23.3850911 40.5327148,22.0615234 L44.800293,24.0654297 C43.7364909,25.5745443 42.4624023,26.690918 40.9780273,27.4145508 C39.4936523,28.1381836 37.730957,28.5 35.6899414,28.5 C32.5232747,28.5 29.9441732,27.5011393 27.9526367,25.503418 C25.9611003,23.5056966 24.965332,21.0039063 24.965332,17.9980469 C24.965332,14.9179687 25.9580078,12.3605143 27.9433594,10.3256836 C29.9287109,8.29085286 32.4181315,7.2734375 35.4116211,7.2734375 C38.5906576,7.2734375 41.175944,8.29085286 43.1674805,10.3256836 C45.1590169,12.3605143 46.1547852,15.0478516 46.1547852,18.3876953 L46.1362305,19.3525391 Z M41.0522461,15.3632812 C40.7182617,14.2376302 40.0595703,13.3222656 39.0761719,12.6171875 C38.0927734,11.9121094 36.9516602,11.5595703 35.652832,11.5595703 C34.2426758,11.5595703 33.0056966,11.9554036 31.9418945,12.7470703 C31.2739258,13.241862 30.6554362,14.1139323 30.0864258,15.3632812 L41.0522461,15.3632812 Z" id="Shape"/><path d="M62.5942383,10.6132812 L59.4584961,13.7490234 C58.1844076,12.4873047 57.027832,11.8564453 55.9887695,11.8564453 C55.4197591,11.8564453 54.9744466,11.9770508 54.652832,12.2182617 C54.3312174,12.4594727 54.1704102,12.7594401 54.1704102,13.1181641 C54.1704102,13.3902995 54.2724609,13.6407878 54.4765625,13.8696289 C54.6806641,14.0984701 55.1847331,14.4108073 55.9887695,14.8066406 L57.8442383,15.734375 C59.7986654,16.6992188 61.1407878,17.6826172 61.8706055,18.6845703 C62.6004232,19.6865234 62.965332,20.8616536 62.965332,22.2099609 C62.965332,24.0035807 62.3066406,25.5003255 60.9892578,26.7001953 C59.671875,27.9000651 57.9060872,28.5 55.6918945,28.5 C52.7478841,28.5 50.3976237,27.3496094 48.6411133,25.0488281 L51.7583008,21.6533203 C52.3520508,22.3460286 53.0478516,22.9057617 53.8457031,23.3325195 C54.6435547,23.7592773 55.3517253,23.9726563 55.9702148,23.9726563 C56.6381836,23.9726563 57.1762695,23.811849 57.5844727,23.4902344 C57.9926758,23.1686198 58.1967773,22.797526 58.1967773,22.3769531 C58.1967773,21.5976563 57.4607747,20.8369141 55.9887695,20.0947266 L54.2817383,19.2412109 C51.0161133,17.5960286 49.3833008,15.5364583 49.3833008,13.0625 C49.3833008,11.4667969 49.9986979,10.1030273 51.2294922,8.97119141 C52.4602865,7.83935547 54.0343424,7.2734375 55.9516602,7.2734375 C57.2628581,7.2734375 58.4967448,7.56103516 59.6533203,8.13623047 C60.8098958,8.71142578 61.7902018,9.53710938 62.5942383,10.6132812 Z" id="Path"/><path d="M79.3120117,10.6132812 L76.1762695,13.7490234 C74.902181,12.4873047 73.7456055,11.8564453 72.706543,11.8564453 C72.1375326,11.8564453 71.6922201,11.9770508 71.3706055,12.2182617 C71.0489909,12.4594727 70.8881836,12.7594401 70.8881836,13.1181641 C70.8881836,13.3902995 70.9902344,13.6407878 71.1943359,13.8696289 C71.3984375,14.0984701 71.9025065,14.4108073 72.706543,14.8066406 L74.5620117,15.734375 C76.5164388,16.6992188 77.8585612,17.6826172 78.5883789,18.6845703 C79.3181966,19.6865234 79.6831055,20.8616536 79.6831055,22.2099609 C79.6831055,24.0035807 79.0244141,25.5003255 77.7070312,26.7001953 C76.3896484,27.9000651 74.6238607,28.5 72.409668,28.5 C69.4656576,28.5 67.1153971,27.3496094 65.3588867,25.0488281 L68.4760742,21.6533203 C69.0698242,22.3460286 69.765625,22.9057617 70.5634766,23.3325195 C71.3613281,23.7592773 72.0694987,23.9726563 72.6879883,23.9726563 C73.355957,23.9726563 73.894043,23.811849 74.3022461,23.4902344 C74.7104492,23.1686198 74.9145508,22.797526 74.9145508,22.3769531 C74.9145508,21.5976563 74.1785482,20.8369141 72.706543,20.0947266 L70.9995117,19.2412109 C67.7338867,17.5960286 66.1010742,15.5364583 66.1010742,13.0625 C66.1010742,11.4667969 66.7164714,10.1030273 67.9472656,8.97119141 C69.1780599,7.83935547 70.7521159,7.2734375 72.6694336,7.2734375 C73.9806315,7.2734375 75.2145182,7.56103516 76.3710938,8.13623047 C77.5276693,8.71142578 78.5079753,9.53710938 79.3120117,10.6132812 Z" id="Path"/><polygon id="Path" points="94.9165039 0.352539062 99.9633789 0.352539062 99.9633789 7.79296875 102.969238 7.79296875 102.969238 12.1533203 99.9633789 12.1533203 99.9633789 27.9804688 94.9165039 27.9804688 94.9165039 12.1533203 92.3188477 12.1533203 92.3188477 7.79296875 94.9165039 7.79296875"/><path d="M105.715332,0 L110.743652,0 L110.743652,9.83398438 C111.733236,8.98046875 112.729004,8.34033203 113.730957,7.91357422 C114.73291,7.48681641 115.747233,7.2734375 116.773926,7.2734375 C118.777832,7.2734375 120.466309,7.96614583 121.839355,9.3515625 C123.014486,10.5514323 123.602051,12.3141276 123.602051,14.6396484 L123.602051,27.9804688 L118.61084,27.9804688 L118.61084,19.1298828 C118.61084,16.7919922 118.499512,15.2086589 118.276855,14.3798828 C118.054199,13.5511068 117.673828,12.9326172 117.135742,12.5244141 C116.597656,12.1162109 115.93278,11.9121094 115.141113,11.9121094 C114.114421,11.9121094 113.233073,12.2522786 112.49707,12.9326172 C111.761068,13.6129557 111.250814,14.5406901 110.966309,15.7158203 C110.817871,16.3219401 110.743652,17.7073568 110.743652,19.8720703 L110.743652,27.9804688 L105.715332,27.9804688 L105.715332,0 Z" id="Path"/><path d="M143.418457,7.79296875 L148.465332,7.79296875 L148.465332,27.9804688 L143.418457,27.9804688 L143.418457,25.8466797 C142.428874,26.7867839 141.436198,27.4640299 140.44043,27.878418 C139.444661,28.292806 138.365397,28.5 137.202637,28.5 C134.592611,28.5 132.335124,27.4887695 130.430176,25.4663086 C128.525228,23.4438477 127.572754,20.9296875 127.572754,17.9238281 C127.572754,14.8066406 128.494303,12.2522786 130.337402,10.2607422 C132.180501,8.26920573 134.419434,7.2734375 137.054199,7.2734375 C138.266439,7.2734375 139.40446,7.50227865 140.468262,7.95996094 C141.532064,8.41764323 142.515462,9.10416667 143.418457,10.0195312 L143.418457,7.79296875 Z M138.093262,11.9492188 C136.522298,11.9492188 135.217285,12.5027669 134.178223,13.6098633 C133.13916,14.7169596 132.619629,16.1363932 132.619629,17.8681641 C132.619629,19.6123047 133.148438,21.0472005 134.206055,22.1728516 C135.263672,23.2985026 136.565592,23.8613281 138.111816,23.8613281 C139.70752,23.8613281 141.031087,23.3077799 142.08252,22.2006836 C143.133952,21.0935872 143.659668,19.6432292 143.659668,17.8496094 C143.659668,16.093099 143.133952,14.6705729 142.08252,13.5820313 C141.031087,12.4934896 139.701335,11.9492188 138.093262,11.9492188 Z" id="Shape"/><path d="M153.586426,7.79296875 L158.633301,7.79296875 L158.633301,9.85253906 C159.783691,8.88769531 160.825846,8.21663411 161.759766,7.83935547 C162.693685,7.46207682 163.649251,7.2734375 164.626465,7.2734375 C166.630371,7.2734375 168.331217,7.97233073 169.729004,9.37011719 C170.904134,10.5576172 171.491699,12.3141276 171.491699,14.6396484 L171.491699,27.9804688 L166.481934,27.9804688 L166.481934,19.1298828 C166.481934,16.7177734 166.373698,15.1158854 166.157227,14.3242187 C165.940755,13.5325521 165.563477,12.9295247 165.025391,12.5151367 C164.487305,12.1007487 163.822428,11.8935547 163.030762,11.8935547 C162.004069,11.8935547 161.122721,12.2368164 160.386719,12.9233398 C159.650716,13.6098633 159.140462,14.5592448 158.855957,15.7714844 C158.70752,16.4023437 158.633301,17.7692057 158.633301,19.8720703 L158.633301,27.9804688 L153.586426,27.9804688 L153.586426,7.79296875 Z" id="Path"/><polygon id="Path" points="3.00585938 42.6865234 10.7802734 42.6865234 10.7802734 69.9804688 5.62207031 69.9804688 5.62207031 47.5664062 0 47.5664062"/><path d="M34.2705078,55.1923828 C35.507487,55.9840495 36.4630534,57.0014648 37.137207,58.2446289 C37.8113607,59.487793 38.1484375,60.8330078 38.1484375,62.2802734 C38.1484375,63.851237 37.7556966,65.3046875 36.9702148,66.640625 C36.1847331,67.9765625 35.1302083,68.9816081 33.8066406,69.6557617 C32.4830729,70.3299154 30.7945964,70.6669922 28.7412109,70.6669922 C26.539388,70.6669922 24.7890625,70.3422852 23.4902344,69.6928711 C22.1914062,69.043457 21.1523438,68.0600586 20.3730469,66.7426758 C19.59375,65.425293 19.2041016,63.9378255 19.2041016,62.2802734 C19.2041016,60.8453776 19.5164388,59.5372721 20.1411133,58.355957 C20.7657878,57.1746419 21.7027995,56.1201172 22.9521484,55.1923828 C22.1357422,54.3636068 21.5203451,53.4822591 21.105957,52.5483398 C20.691569,51.6144206 20.484375,50.6279297 20.484375,49.5888672 C20.484375,48.1663411 20.8276367,46.8706055 21.5141602,45.7016602 C22.2006836,44.5327148 23.1624349,43.6235352 24.3994141,42.9741211 C25.6363932,42.324707 27.0651042,42 28.6855469,42 C30.28125,42 31.6852214,42.3277995 32.8974609,42.9833984 C34.1097005,43.6389974 35.0652669,44.5698242 35.7641602,45.7758789 C36.4630534,46.9819336 36.8125,48.2776693 36.8125,49.6630859 C36.8125,50.6402995 36.6300456,51.5463867 36.2651367,52.3813477 C35.9002279,53.2163086 35.2353516,54.1533203 34.2705078,55.1923828 Z M28.5185547,47.0097656 C27.6650391,47.0097656 26.9630534,47.2911784 26.4125977,47.8540039 C25.8621419,48.4168294 25.5869141,49.1373698 25.5869141,50.015625 C25.5869141,50.8938802 25.8776042,51.6298828 26.4589844,52.2236328 C27.0403646,52.8173828 27.7578125,53.1142578 28.6113281,53.1142578 C29.4895833,53.1142578 30.2101237,52.8235677 30.7729492,52.2421875 C31.3357747,51.6608073 31.6171875,50.90625 31.6171875,49.9785156 C31.6171875,49.1002604 31.3326823,48.3859049 30.7636719,47.8354492 C30.1946615,47.2849935 29.4462891,47.0097656 28.5185547,47.0097656 Z M28.7226562,57.9570312 C27.4733073,57.9570312 26.421875,58.3374023 25.5683594,59.0981445 C24.7148438,59.8588867 24.2880859,60.764974 24.2880859,61.8164062 C24.2880859,62.9173177 24.6901042,63.8481445 25.4941406,64.6088867 C26.2981771,65.3696289 27.3557943,65.75 28.6669922,65.75 C29.9905599,65.75 31.0450846,65.3943685 31.8305664,64.6831055 C32.6160482,63.9718424 33.0087891,63.0533854 33.0087891,61.9277344 C33.0087891,60.8020833 32.6005859,59.8588867 31.7841797,59.0981445 C30.9677734,58.3374023 29.9472656,57.9570312 28.7226562,57.9570312 Z" id="Shape"/><path d="M49.875,42 C51.8665365,42 53.5828451,42.4886068 55.0239258,43.4658203 C56.4650065,44.4430339 57.5782878,45.9366862 58.3637695,47.9467773 C59.1492513,49.9568685 59.5419922,52.7555339 59.5419922,56.3427734 C59.5419922,59.9671224 59.1430664,62.7874349 58.3452148,64.8037109 C57.5473633,66.819987 56.4742839,68.3012695 55.1259766,69.2475586 C53.7776693,70.1938477 52.0768229,70.6669922 50.0234375,70.6669922 C47.9700521,70.6669922 46.2444661,70.1907552 44.8466797,69.2382813 C43.4488932,68.2858073 42.3541667,66.8385417 41.5625,64.8964844 C40.7708333,62.9544271 40.375,60.1897786 40.375,56.6025391 C40.375,51.5927734 41.148112,47.9622396 42.6943359,45.7109375 C44.413737,43.2369792 46.8072917,42 49.875,42 Z M50.0048828,46.9355469 C49.1266276,46.9355469 48.3473307,47.2169596 47.6669922,47.7797852 C46.9866536,48.3426107 46.4671224,49.3105469 46.1083984,50.6835938 C45.7496745,52.0566406 45.5703125,54.0667318 45.5703125,56.7138672 C45.5703125,60.1650391 45.9816081,62.5493164 46.8041992,63.8666992 C47.6267904,65.184082 48.6936849,65.8427734 50.0048828,65.8427734 C51.2666016,65.8427734 52.2685547,65.218099 53.0107422,63.96875 C53.913737,62.4596354 54.3652344,59.9361979 54.3652344,56.3984375 C54.3652344,52.8111979 53.9601237,50.3372396 53.1499023,48.9765625 C52.339681,47.6158854 51.2913411,46.9355469 50.0048828,46.9355469 Z" id="Shape"/><path d="M73.7548828,49.7929688 L78.8388672,49.7929688 L78.8388672,52.1123047 C79.7047526,51.1598307 80.6665039,50.4485677 81.7241211,49.9785156 C82.7817383,49.5084635 83.9352214,49.2734375 85.1845703,49.2734375 C86.4462891,49.2734375 87.5843099,49.5826823 88.5986328,50.2011719 C89.6129557,50.8196615 90.429362,51.7226562 91.0478516,52.9101562 C91.851888,51.7226562 92.8383789,50.8196615 94.0073242,50.2011719 C95.1762695,49.5826823 96.4534505,49.2734375 97.8388672,49.2734375 C99.273763,49.2734375 100.535482,49.6074219 101.624023,50.2753906 C102.712565,50.9433594 103.494954,51.8154297 103.971191,52.8916016 C104.447428,53.9677734 104.685547,55.718099 104.685547,58.1425781 L104.685547,69.9804688 L99.5830078,69.9804688 L99.5830078,59.7382813 C99.5830078,57.4498698 99.2985026,55.9005534 98.7294922,55.090332 C98.1604818,54.2801107 97.3069661,53.875 96.1689453,53.875 C95.3030599,53.875 94.5268555,54.1223958 93.840332,54.6171875 C93.1538086,55.1119792 92.6435547,55.7954102 92.3095703,56.6674805 C91.9755859,57.5395508 91.8085938,58.9404297 91.8085938,60.8701172 L91.8085938,69.9804688 L86.7060547,69.9804688 L86.7060547,60.2021484 C86.7060547,58.3961589 86.5730794,57.0880534 86.3071289,56.277832 C86.0411784,55.4676107 85.6422526,54.8645833 85.1103516,54.46875 C84.5784505,54.0729167 83.9352214,53.875 83.1806641,53.875 C82.3395182,53.875 81.5756836,54.1254883 80.8891602,54.6264648 C80.2026367,55.1274414 79.6892904,55.8294271 79.3491211,56.7324219 C79.0089518,57.6354167 78.8388672,59.0579427 78.8388672,61 L78.8388672,69.9804688 L73.7548828,69.9804688 L73.7548828,49.7929688 Z" id="Path"/><path d="M124.427734,49.7929688 L129.474609,49.7929688 L129.474609,67.0859375 C129.474609,70.5 128.788086,73.0110677 127.415039,74.6191406 C125.57194,76.796224 122.794922,77.8847656 119.083984,77.8847656 C117.104818,77.8847656 115.441081,77.6373698 114.092773,77.1425781 C112.744466,76.6477865 111.606445,75.9210612 110.678711,74.9624023 C109.750977,74.0037435 109.064453,72.8378906 108.619141,71.4648438 L114.204102,71.4648438 C114.698893,72.0338542 115.335938,72.4637044 116.115234,72.7543945 C116.894531,73.0450846 117.816081,73.1904297 118.879883,73.1904297 C120.24056,73.1904297 121.335286,72.9801432 122.164063,72.5595703 C122.992839,72.1389974 123.577311,71.5947266 123.91748,70.9267578 C124.25765,70.2587891 124.427734,69.1083984 124.427734,67.4755859 C123.537109,68.3662109 122.60319,69.0063477 121.625977,69.3959961 C120.648763,69.7856445 119.541667,69.9804688 118.304688,69.9804688 C115.595703,69.9804688 113.307292,69.0032552 111.439453,67.0488281 C109.571615,65.094401 108.637695,62.6204427 108.637695,59.6269531 C108.637695,56.4231771 109.627279,53.8502604 111.606445,51.9082031 C113.400065,50.1516927 115.540039,49.2734375 118.026367,49.2734375 C119.189128,49.2734375 120.286947,49.4868164 121.319824,49.9135742 C122.352702,50.340332 123.388672,51.0423177 124.427734,52.0195312 L124.427734,49.7929688 Z M119.176758,54.0048828 C117.581055,54.0048828 116.263672,54.5398763 115.224609,55.6098633 C114.185547,56.6798503 113.666016,58.0250651 113.666016,59.6455078 C113.666016,61.3277995 114.197917,62.7070312 115.261719,63.7832031 C116.325521,64.859375 117.661458,65.3974609 119.269531,65.3974609 C120.840495,65.3974609 122.13623,64.8717448 123.156738,63.8203125 C124.177246,62.7688802 124.6875,61.3896484 124.6875,59.6826172 C124.6875,58.0003255 124.174154,56.6334635 123.147461,55.5820313 C122.120768,54.530599 120.797201,54.0048828 119.176758,54.0048828 Z" id="Shape"/><polygon id="Path" points="132.851562 74.8417969 145.116211 41.9072266 148.71582 41.9072266 136.432617 74.8417969"/><path d="M166.992188,42 L172.039062,42 L172.039062,69.9804688 L166.992188,69.9804688 L166.992188,67.8466797 C166.002604,68.7867839 165.009928,69.4640299 164.01416,69.878418 C163.018392,70.292806 161.939128,70.5 160.776367,70.5 C158.166341,70.5 155.908854,69.4887695 154.003906,67.4663086 C152.098958,65.4438477 151.146484,62.9296875 151.146484,59.9238281 C151.146484,56.8066406 152.068034,54.2522786 153.911133,52.2607422 C155.754232,50.2692057 157.993164,49.2734375 160.62793,49.2734375 C161.840169,49.2734375 162.97819,49.5022786 164.041992,49.9599609 C165.105794,50.4176432 166.089193,51.1041667 166.992188,52.0195312 L166.992188,42 Z M161.666992,53.9492188 C160.096029,53.9492188 158.791016,54.5027669 157.751953,55.6098633 C156.712891,56.7169596 156.193359,58.1363932 156.193359,59.8681641 C156.193359,61.6123047 156.722168,63.0472005 157.779785,64.1728516 C158.837402,65.2985026 160.139323,65.8613281 161.685547,65.8613281 C163.28125,65.8613281 164.604818,65.3077799 165.65625,64.2006836 C166.707682,63.0935872 167.233398,61.6432292 167.233398,59.8496094 C167.233398,58.093099 166.707682,56.6705729 165.65625,55.5820312 C164.604818,54.4934896 163.275065,53.9492188 161.666992,53.9492188 Z" id="Shape"/><polygon id="Path" points="177.716797 42.6865234 182.912109 42.6865234 182.912109 65.0263672 190.482422 65.0263672 190.482422 69.9804688 177.716797 69.9804688"/></g><g id="Postprandial-blood-g" transform="translate(71.2383, 71)" fill="#2E008B" fill-rule="nonzero"><path d="M11.6308594,0.76171875 L15.0644531,0.76171875 C17.0332031,0.76171875 18.3613281,0.84765625 19.0488281,1.01953125 C20.0332031,1.26171875 20.8378906,1.75976563 21.4628906,2.51367188 C22.0878906,3.26757813 22.4003906,4.21484375 22.4003906,5.35546875 C22.4003906,6.50390625 22.0957031,7.45117187 21.4863281,8.19726562 C20.8769531,8.94335938 20.0371094,9.4453125 18.9667969,9.703125 C18.1855469,9.890625 16.7246094,9.984375 14.5839844,9.984375 L13.3535156,9.984375 L13.3535156,18 L11.6308594,18 L11.6308594,0.76171875 Z M13.3535156,2.4375 L13.3535156,8.296875 L16.2714844,8.33203125 C17.4511719,8.33203125 18.3144531,8.22460938 18.8613281,8.00976562 C19.4082031,7.79492188 19.8378906,7.44726562 20.1503906,6.96679688 C20.4628906,6.48632813 20.6191406,5.94921875 20.6191406,5.35546875 C20.6191406,4.77734375 20.4628906,4.24804688 20.1503906,3.76757812 C19.8378906,3.28710937 19.4257812,2.9453125 18.9140625,2.7421875 C18.4023438,2.5390625 17.5644531,2.4375 16.4003906,2.4375 L13.3535156,2.4375 Z" id="Shape"/><path d="M31.6113281,4.921875 C33.5722656,4.921875 35.1972656,5.6328125 36.4863281,7.0546875 C37.6582031,8.3515625 38.2441406,9.88671875 38.2441406,11.6601563 C38.2441406,13.4414063 37.625,14.9980469 36.3867188,16.3300781 C35.1484375,17.6621094 33.5566406,18.328125 31.6113281,18.328125 C29.6582031,18.328125 28.0625,17.6621094 26.8242187,16.3300781 C25.5859375,14.9980469 24.9667969,13.4414063 24.9667969,11.6601563 C24.9667969,9.89453125 25.5527344,8.36328125 26.7246094,7.06640625 C28.0136719,5.63671875 29.6425781,4.921875 31.6113281,4.921875 Z M31.6113281,6.52734375 C30.2519531,6.52734375 29.0839844,7.03125 28.1074219,8.0390625 C27.1308594,9.046875 26.6425781,10.265625 26.6425781,11.6953125 C26.6425781,12.6171875 26.8652344,13.4765625 27.3105469,14.2734375 C27.7558594,15.0703125 28.3574219,15.6855469 29.1152344,16.1191406 C29.8730469,16.5527344 30.7050781,16.7695312 31.6113281,16.7695312 C32.5175781,16.7695312 33.3496094,16.5527344 34.1074219,16.1191406 C34.8652344,15.6855469 35.4667969,15.0703125 35.9121094,14.2734375 C36.3574219,13.4765625 36.5800781,12.6171875 36.5800781,11.6953125 C36.5800781,10.265625 36.0898438,9.046875 35.109375,8.0390625 C34.1289063,7.03125 32.9628906,6.52734375 31.6113281,6.52734375 Z" id="Shape"/><path d="M47.7011719,6.64453125 L46.6464844,7.734375 C45.7714844,6.8828125 44.9160156,6.45703125 44.0800781,6.45703125 C43.5488281,6.45703125 43.09375,6.6328125 42.7148438,6.984375 C42.3359375,7.3359375 42.1464844,7.74609375 42.1464844,8.21484375 C42.1464844,8.62890625 42.3027344,9.0234375 42.6152344,9.3984375 C42.9277344,9.78125 43.5839844,10.2304688 44.5839844,10.7460937 C45.8027344,11.3789063 46.6308594,11.9882812 47.0683594,12.5742188 C47.4980469,13.1679687 47.7128906,13.8359375 47.7128906,14.578125 C47.7128906,15.625 47.3457031,16.5117188 46.6113281,17.2382813 C45.8769531,17.9648438 44.9589844,18.328125 43.8574219,18.328125 C43.1230469,18.328125 42.421875,18.1679688 41.7539062,17.8476562 C41.0859375,17.5273437 40.5332031,17.0859375 40.0957031,16.5234375 L41.1269531,15.3515625 C41.9628906,16.296875 42.8496094,16.7695313 43.7871094,16.7695313 C44.4433594,16.7695313 45.0019531,16.5585938 45.4628906,16.1367188 C45.9238281,15.7148437 46.1542969,15.21875 46.1542969,14.6484375 C46.1542969,14.1796875 46.0019531,13.7617188 45.6972656,13.3945312 C45.3925781,13.0351562 44.7050781,12.5820313 43.6347656,12.0351563 C42.4863281,11.4414062 41.7050781,10.8554688 41.2910156,10.2773438 C40.8769531,9.69921875 40.6699219,9.0390625 40.6699219,8.296875 C40.6699219,7.328125 41,6.5234375 41.6601562,5.8828125 C42.3203125,5.2421875 43.1542969,4.921875 44.1621094,4.921875 C45.3339844,4.921875 46.5136719,5.49609375 47.7011719,6.64453125 Z" id="Path"/><polygon id="Path" points="52.0371094 0.515625 53.6894531 0.515625 53.6894531 5.25 56.2910156 5.25 56.2910156 6.65625 53.6894531 6.65625 53.6894531 18 52.0371094 18 52.0371094 6.65625 49.7988281 6.65625 49.7988281 5.25 52.0371094 5.25"/><path d="M58.7636719,5.25 L60.3925781,5.25 L60.3925781,7.59375 C61.0410156,6.703125 61.7871094,6.03515625 62.6308594,5.58984375 C63.4746094,5.14453125 64.4160156,4.921875 65.4550781,4.921875 C67.2675781,4.921875 68.8183594,5.57421875 70.1074219,6.87890625 C71.3964844,8.18359375 72.0410156,9.75390625 72.0410156,11.5898437 C72.0410156,13.4648438 71.4023438,15.0566406 70.125,16.3652344 C68.8476562,17.6738281 67.3066406,18.328125 65.5019531,18.328125 C64.4863281,18.328125 63.5527344,18.1171875 62.7011719,17.6953125 C61.8496094,17.2734375 61.0800781,16.6445312 60.3925781,15.8085938 L60.3925781,22.6640625 L58.7636719,22.6640625 L58.7636719,5.25 Z M65.3261719,6.50390625 C63.9042969,6.50390625 62.7070312,7 61.734375,7.9921875 C60.7617188,8.984375 60.2753906,10.21875 60.2753906,11.6953125 C60.2753906,12.6640625 60.4921875,13.5351562 60.9257812,14.3085938 C61.359375,15.0820313 61.9804688,15.6953125 62.7890625,16.1484375 C63.5976562,16.6015625 64.4511719,16.828125 65.3496094,16.828125 C66.2324219,16.828125 67.0625,16.5996094 67.8398438,16.1425781 C68.6171875,15.6855469 69.2363281,15.046875 69.6972656,14.2265625 C70.1582031,13.40625 70.3886719,12.546875 70.3886719,11.6484375 C70.3886719,10.7421875 70.1601562,9.8828125 69.703125,9.0703125 C69.2460938,8.2578125 68.6308594,7.62695313 67.8574219,7.17773438 C67.0839844,6.72851562 66.2402344,6.50390625 65.3261719,6.50390625 Z" id="Shape"/><path d="M74.4902344,5.25 L76.1660156,5.25 L76.1660156,7.11328125 C76.6660156,6.37890625 77.1933594,5.83007813 77.7480469,5.46679688 C78.3027344,5.10351562 78.8808594,4.921875 79.4824219,4.921875 C79.9355469,4.921875 80.4199219,5.06640625 80.9355469,5.35546875 L80.0800781,6.73828125 C79.7363281,6.58984375 79.4472656,6.515625 79.2128906,6.515625 C78.6660156,6.515625 78.1386719,6.74023437 77.6308594,7.18945313 C77.1230469,7.63867188 76.7363281,8.3359375 76.4707031,9.28125 C76.2675781,10.0078125 76.1660156,11.4765625 76.1660156,13.6875 L76.1660156,18 L74.4902344,18 L74.4902344,5.25 Z" id="Path"/><path d="M95.0332031,5.25 L95.0332031,18 L93.4160156,18 L93.4160156,15.8085937 C92.7285156,16.6445313 91.9570312,17.2734375 91.1015625,17.6953125 C90.2460938,18.1171875 89.3105469,18.328125 88.2949219,18.328125 C86.4902344,18.328125 84.9492188,17.6738281 83.671875,16.3652344 C82.3945312,15.0566406 81.7558594,13.4648437 81.7558594,11.5898437 C81.7558594,9.75390625 82.4003906,8.18359375 83.6894531,6.87890625 C84.9785156,5.57421875 86.5292969,4.921875 88.3417969,4.921875 C89.3886719,4.921875 90.3359375,5.14453125 91.1835938,5.58984375 C92.03125,6.03515625 92.7753906,6.703125 93.4160156,7.59375 L93.4160156,5.25 L95.0332031,5.25 Z M88.4707031,6.50390625 C87.5566406,6.50390625 86.7128906,6.72851562 85.9394531,7.17773438 C85.1660156,7.62695313 84.5507812,8.2578125 84.09375,9.0703125 C83.6367188,9.8828125 83.4082031,10.7421875 83.4082031,11.6484375 C83.4082031,12.546875 83.6386719,13.40625 84.0996094,14.2265625 C84.5605469,15.046875 85.1796875,15.6855469 85.9570312,16.1425781 C86.734375,16.5996094 87.5683594,16.828125 88.4589844,16.828125 C89.3574219,16.828125 90.2089844,16.6015625 91.0136719,16.1484375 C91.8183594,15.6953125 92.4375,15.0820313 92.8710938,14.3085938 C93.3046875,13.5351562 93.5214844,12.6640625 93.5214844,11.6953125 C93.5214844,10.21875 93.0351562,8.984375 92.0625,7.9921875 C91.0898438,7 89.8925781,6.50390625 88.4707031,6.50390625 Z" id="Shape"/><path d="M98.7246094,5.25 L100.365234,5.25 L100.365234,7.53515625 C101.021484,6.66015625 101.748047,6.00585938 102.544922,5.57226562 C103.341797,5.13867187 104.208984,4.921875 105.146484,4.921875 C106.099609,4.921875 106.945312,5.1640625 107.683594,5.6484375 C108.421875,6.1328125 108.966797,6.78515625 109.318359,7.60546875 C109.669922,8.42578125 109.845703,9.703125 109.845703,11.4375 L109.845703,18 L108.216797,18 L108.216797,11.9179688 C108.216797,10.4492188 108.154297,9.46875 108.029297,8.9765625 C107.833984,8.1328125 107.466797,7.49804688 106.927734,7.07226562 C106.388672,6.64648437 105.685547,6.43359375 104.818359,6.43359375 C103.826172,6.43359375 102.9375,6.76171875 102.152344,7.41796875 C101.367188,8.07421875 100.849609,8.88671875 100.599609,9.85546875 C100.443359,10.4882812 100.365234,11.6445312 100.365234,13.3242188 L100.365234,18 L98.7246094,18 L98.7246094,5.25 Z" id="Path"/><path d="M126.087891,0.328125 L126.087891,18 L124.470703,18 L124.470703,15.8085938 C123.783203,16.6445312 123.011719,17.2734375 122.15625,17.6953125 C121.300781,18.1171875 120.365234,18.328125 119.349609,18.328125 C117.544922,18.328125 116.003906,17.6738281 114.726562,16.3652344 C113.449219,15.0566406 112.810547,13.4648437 112.810547,11.5898438 C112.810547,9.75390625 113.455078,8.18359375 114.744141,6.87890625 C116.033203,5.57421875 117.583984,4.921875 119.396484,4.921875 C120.443359,4.921875 121.390625,5.14453125 122.238281,5.58984375 C123.085938,6.03515625 123.830078,6.703125 124.470703,7.59375 L124.470703,0.328125 L126.087891,0.328125 Z M119.525391,6.50390625 C118.611328,6.50390625 117.767578,6.72851562 116.994141,7.17773438 C116.220703,7.62695313 115.605469,8.2578125 115.148438,9.0703125 C114.691406,9.8828125 114.462891,10.7421875 114.462891,11.6484375 C114.462891,12.546875 114.693359,13.40625 115.154297,14.2265625 C115.615234,15.046875 116.234375,15.6855469 117.011719,16.1425781 C117.789062,16.5996094 118.623047,16.828125 119.513672,16.828125 C120.412109,16.828125 121.263672,16.6015625 122.068359,16.1484375 C122.873047,15.6953125 123.492188,15.0820313 123.925781,14.3085938 C124.359375,13.5351562 124.576172,12.6640625 124.576172,11.6953125 C124.576172,10.21875 124.089844,8.984375 123.117188,7.9921875 C122.144531,7 120.947266,6.50390625 119.525391,6.50390625 Z" id="Shape"/><path d="M130.376953,0 C130.751953,0 131.072266,0.1328125 131.337891,0.3984375 C131.603516,0.6640625 131.736328,0.984375 131.736328,1.359375 C131.736328,1.7265625 131.603516,2.04296875 131.337891,2.30859375 C131.072266,2.57421875 130.751953,2.70703125 130.376953,2.70703125 C130.009766,2.70703125 129.693359,2.57421875 129.427734,2.30859375 C129.162109,2.04296875 129.029297,1.7265625 129.029297,1.359375 C129.029297,0.984375 129.162109,0.6640625 129.427734,0.3984375 C129.693359,0.1328125 130.009766,0 130.376953,0 Z M129.556641,5.25 L131.208984,5.25 L131.208984,18 L129.556641,18 L129.556641,5.25 Z" id="Shape"/><path d="M147.310547,5.25 L147.310547,18 L145.693359,18 L145.693359,15.8085937 C145.005859,16.6445313 144.234375,17.2734375 143.378906,17.6953125 C142.523438,18.1171875 141.587891,18.328125 140.572266,18.328125 C138.767578,18.328125 137.226562,17.6738281 135.949219,16.3652344 C134.671875,15.0566406 134.033203,13.4648437 134.033203,11.5898437 C134.033203,9.75390625 134.677734,8.18359375 135.966797,6.87890625 C137.255859,5.57421875 138.806641,4.921875 140.619141,4.921875 C141.666016,4.921875 142.613281,5.14453125 143.460938,5.58984375 C144.308594,6.03515625 145.052734,6.703125 145.693359,7.59375 L145.693359,5.25 L147.310547,5.25 Z M140.748047,6.50390625 C139.833984,6.50390625 138.990234,6.72851562 138.216797,7.17773438 C137.443359,7.62695313 136.828125,8.2578125 136.371094,9.0703125 C135.914062,9.8828125 135.685547,10.7421875 135.685547,11.6484375 C135.685547,12.546875 135.916016,13.40625 136.376953,14.2265625 C136.837891,15.046875 137.457031,15.6855469 138.234375,16.1425781 C139.011719,16.5996094 139.845703,16.828125 140.736328,16.828125 C141.634766,16.828125 142.486328,16.6015625 143.291016,16.1484375 C144.095703,15.6953125 144.714844,15.0820313 145.148438,14.3085938 C145.582031,13.5351562 145.798828,12.6640625 145.798828,11.6953125 C145.798828,10.21875 145.3125,8.984375 144.339844,7.9921875 C143.367188,7 142.169922,6.50390625 140.748047,6.50390625 Z" id="Shape"/><polygon id="Path" points="150.755859 0.328125 152.396484 0.328125 152.396484 18 150.755859 18"/><path d="M0,50 L0,32.328125 L1.62890625,32.328125 L1.62890625,39.4414063 C2.31640625,38.5976563 3.0859375,37.9667969 3.9375,37.5488281 C4.7890625,37.1308594 5.72265625,36.921875 6.73828125,36.921875 C8.54296875,36.921875 10.0839844,37.5761719 11.3613281,38.8847656 C12.6386719,40.1933594 13.2773438,41.78125 13.2773438,43.6484375 C13.2773438,45.4921875 12.6328125,47.0664062 11.34375,48.3710938 C10.0546875,49.6757813 8.50390625,50.328125 6.69140625,50.328125 C5.65234375,50.328125 4.7109375,50.1054687 3.8671875,49.6601562 C3.0234375,49.2148438 2.27734375,48.546875 1.62890625,47.65625 L1.62890625,50 L0,50 Z M6.5625,48.7460938 C7.4765625,48.7460938 8.3203125,48.5214844 9.09375,48.0722656 C9.8671875,47.6230469 10.4824219,46.9921875 10.9394531,46.1796875 C11.3964844,45.3671875 11.625,44.5078125 11.625,43.6015625 C11.625,42.6953125 11.3945312,41.8320312 10.9335938,41.0117188 C10.4726563,40.1914062 9.85351562,39.5527344 9.07617188,39.0957031 C8.29882812,38.6386719 7.46875,38.4101562 6.5859375,38.4101562 C5.6875,38.4101562 4.83398438,38.6386719 4.02539063,39.0957031 C3.21679687,39.5527344 2.59570313,40.1679688 2.16210937,40.9414062 C1.72851562,41.7148438 1.51171875,42.5859375 1.51171875,43.5546875 C1.51171875,45.03125 1.99804688,46.265625 2.97070313,47.2578125 C3.94335937,48.25 5.140625,48.7460938 6.5625,48.7460938 Z" id="Shape"/><polygon id="Path" points="16.0195312 32.328125 17.6601562 32.328125 17.6601562 50 16.0195312 50"/><path d="M27.1054688,36.921875 C29.0664062,36.921875 30.6914062,37.6328125 31.9804688,39.0546875 C33.1523438,40.3515625 33.7382812,41.8867187 33.7382812,43.6601563 C33.7382812,45.4414063 33.1191406,46.9980469 31.8808594,48.3300781 C30.6425781,49.6621094 29.0507812,50.328125 27.1054688,50.328125 C25.1523437,50.328125 23.5566406,49.6621094 22.3183594,48.3300781 C21.0800781,46.9980469 20.4609375,45.4414063 20.4609375,43.6601563 C20.4609375,41.8945312 21.046875,40.3632813 22.21875,39.0664062 C23.5078125,37.6367188 25.1367188,36.921875 27.1054688,36.921875 Z M27.1054688,38.5273438 C25.7460937,38.5273438 24.578125,39.03125 23.6015625,40.0390625 C22.625,41.046875 22.1367188,42.265625 22.1367188,43.6953125 C22.1367188,44.6171875 22.359375,45.4765625 22.8046875,46.2734375 C23.25,47.0703125 23.8515625,47.6855469 24.609375,48.1191406 C25.3671875,48.5527344 26.1992188,48.7695312 27.1054688,48.7695312 C28.0117188,48.7695312 28.84375,48.5527344 29.6015625,48.1191406 C30.359375,47.6855469 30.9609375,47.0703125 31.40625,46.2734375 C31.8515625,45.4765625 32.0742188,44.6171875 32.0742188,43.6953125 C32.0742188,42.265625 31.5839844,41.046875 30.6035156,40.0390625 C29.6230469,39.03125 28.4570312,38.5273438 27.1054688,38.5273438 Z" id="Shape"/><path d="M42.8203125,36.921875 C44.78125,36.921875 46.40625,37.6328125 47.6953125,39.0546875 C48.8671875,40.3515625 49.453125,41.8867187 49.453125,43.6601563 C49.453125,45.4414063 48.8339844,46.9980469 47.5957031,48.3300781 C46.3574219,49.6621094 44.765625,50.328125 42.8203125,50.328125 C40.8671875,50.328125 39.2714844,49.6621094 38.0332031,48.3300781 C36.7949219,46.9980469 36.1757812,45.4414063 36.1757812,43.6601563 C36.1757812,41.8945312 36.7617188,40.3632813 37.9335938,39.0664062 C39.2226562,37.6367188 40.8515625,36.921875 42.8203125,36.921875 Z M42.8203125,38.5273438 C41.4609375,38.5273438 40.2929688,39.03125 39.3164063,40.0390625 C38.3398438,41.046875 37.8515625,42.265625 37.8515625,43.6953125 C37.8515625,44.6171875 38.0742188,45.4765625 38.5195312,46.2734375 C38.9648437,47.0703125 39.5664062,47.6855469 40.3242188,48.1191406 C41.0820312,48.5527344 41.9140625,48.7695312 42.8203125,48.7695312 C43.7265625,48.7695312 44.5585938,48.5527344 45.3164062,48.1191406 C46.0742188,47.6855469 46.6757812,47.0703125 47.1210938,46.2734375 C47.5664063,45.4765625 47.7890625,44.6171875 47.7890625,43.6953125 C47.7890625,42.265625 47.2988281,41.046875 46.3183594,40.0390625 C45.3378906,39.03125 44.171875,38.5273438 42.8203125,38.5273438 Z" id="Shape"/><path d="M65.2265625,32.328125 L65.2265625,50 L63.609375,50 L63.609375,47.8085938 C62.921875,48.6445312 62.1503906,49.2734375 61.2949219,49.6953125 C60.4394531,50.1171875 59.5039062,50.328125 58.4882812,50.328125 C56.6835938,50.328125 55.1425781,49.6738281 53.8652344,48.3652344 C52.5878906,47.0566406 51.9492188,45.4648437 51.9492188,43.5898438 C51.9492188,41.7539062 52.59375,40.1835938 53.8828125,38.8789063 C55.171875,37.5742188 56.7226562,36.921875 58.5351562,36.921875 C59.5820312,36.921875 60.5292969,37.1445312 61.3769531,37.5898437 C62.2246094,38.0351563 62.96875,38.703125 63.609375,39.59375 L63.609375,32.328125 L65.2265625,32.328125 Z M58.6640625,38.5039062 C57.75,38.5039062 56.90625,38.7285156 56.1328125,39.1777344 C55.359375,39.6269531 54.7441406,40.2578125 54.2871094,41.0703125 C53.8300781,41.8828125 53.6015625,42.7421875 53.6015625,43.6484375 C53.6015625,44.546875 53.8320312,45.40625 54.2929688,46.2265625 C54.7539063,47.046875 55.3730469,47.6855469 56.1503906,48.1425781 C56.9277344,48.5996094 57.7617188,48.828125 58.6523438,48.828125 C59.5507812,48.828125 60.4023438,48.6015625 61.2070312,48.1484375 C62.0117188,47.6953125 62.6308594,47.0820312 63.0644531,46.3085938 C63.4980469,45.5351562 63.7148438,44.6640625 63.7148438,43.6953125 C63.7148438,42.21875 63.2285156,40.984375 62.2558594,39.9921875 C61.2832031,39 60.0859375,38.5039062 58.6640625,38.5039062 Z" id="Shape"/><path d="M86.5664062,37.25 L88.21875,37.25 L88.21875,47.4101562 C88.21875,49.1992188 88.0625,50.5078125 87.75,51.3359375 C87.3203125,52.5078125 86.5742188,53.4101562 85.5117188,54.0429688 C84.4492188,54.6757812 83.171875,54.9921875 81.6796875,54.9921875 C80.5859375,54.9921875 79.6035156,54.8378906 78.7324219,54.5292969 C77.8613281,54.2207031 77.1523438,53.8066406 76.6054688,53.2871094 C76.0585938,52.7675781 75.5546875,52.0078125 75.09375,51.0078125 L76.875,51.0078125 C77.359375,51.8515625 77.984375,52.4765625 78.75,52.8828125 C79.515625,53.2890625 80.4648438,53.4921875 81.5976562,53.4921875 C82.7148438,53.4921875 83.6582031,53.2832031 84.4277344,52.8652344 C85.1972656,52.4472656 85.7460938,51.921875 86.0742188,51.2890625 C86.4023438,50.65625 86.5664062,49.6367188 86.5664062,48.2304688 L86.5664062,47.5742188 C85.9492188,48.3554688 85.1953125,48.9550781 84.3046875,49.3730469 C83.4140625,49.7910156 82.46875,50 81.46875,50 C80.296875,50 79.1953125,49.7089844 78.1640625,49.1269531 C77.1328125,48.5449219 76.3359375,47.7617188 75.7734375,46.7773438 C75.2109375,45.7929688 74.9296875,44.7109375 74.9296875,43.53125 C74.9296875,42.3515625 75.2226562,41.2519531 75.8085938,40.2324219 C76.3945312,39.2128906 77.2050781,38.40625 78.2402344,37.8125 C79.2753906,37.21875 80.3671875,36.921875 81.515625,36.921875 C82.46875,36.921875 83.3574219,37.1191406 84.1816406,37.5136719 C85.0058594,37.9082031 85.8007812,38.5585938 86.5664062,39.4648438 L86.5664062,37.25 Z M81.7265625,38.5039062 C80.796875,38.5039062 79.9335938,38.7285156 79.1367188,39.1777344 C78.3398438,39.6269531 77.7148438,40.2480469 77.2617188,41.0410156 C76.8085938,41.8339844 76.5820312,42.6914062 76.5820312,43.6132812 C76.5820312,45.0117188 77.0507812,46.1679688 77.9882812,47.0820312 C78.9257812,47.9960938 80.140625,48.453125 81.6328125,48.453125 C83.140625,48.453125 84.3535156,48 85.2714844,47.09375 C86.1894531,46.1875 86.6484375,44.9960938 86.6484375,43.5195312 C86.6484375,42.5585938 86.4375,41.7011719 86.015625,40.9472656 C85.59375,40.1933594 84.9960938,39.5976562 84.2226562,39.1601562 C83.4492188,38.7226562 82.6171875,38.5039062 81.7265625,38.5039062 Z" id="Shape"/><polygon id="Path" points="91.4882812 32.328125 93.1289062 32.328125 93.1289062 50 91.4882812 50"/><path d="M96.328125,37.25 L97.9804688,37.25 L97.9804688,43.203125 C97.9804688,44.65625 98.0585938,45.65625 98.2148438,46.203125 C98.4492188,46.984375 98.8964844,47.6015625 99.5566406,48.0546875 C100.216797,48.5078125 101.003906,48.734375 101.917969,48.734375 C102.832031,48.734375 103.607422,48.5136719 104.244141,48.0722656 C104.880859,47.6308594 105.320312,47.0507813 105.5625,46.3320313 C105.726562,45.8398438 105.808594,44.796875 105.808594,43.203125 L105.808594,37.25 L107.484375,37.25 L107.484375,43.5078125 C107.484375,45.265625 107.279297,46.5898438 106.869141,47.4804688 C106.458984,48.3710938 105.841797,49.0683594 105.017578,49.5722656 C104.193359,50.0761719 103.160156,50.328125 101.917969,50.328125 C100.675781,50.328125 99.6386719,50.0761719 98.8066406,49.5722656 C97.9746094,49.0683594 97.3535156,48.3652344 96.9433594,47.4628906 C96.5332031,46.5605469 96.328125,45.203125 96.328125,43.390625 L96.328125,37.25 Z" id="Path"/><path d="M123.503906,39.8984375 L122.203125,40.7070312 C121.078125,39.2148438 119.542969,38.46875 117.597656,38.46875 C116.042969,38.46875 114.751953,38.96875 113.724609,39.96875 C112.697266,40.96875 112.183594,42.1835938 112.183594,43.6132812 C112.183594,44.5429688 112.419922,45.4179688 112.892578,46.2382812 C113.365234,47.0585938 114.013672,47.6953125 114.837891,48.1484375 C115.662109,48.6015625 116.585938,48.828125 117.609375,48.828125 C119.484375,48.828125 121.015625,48.0820313 122.203125,46.5898438 L123.503906,47.4453125 C122.894531,48.359375 122.076172,49.0683594 121.048828,49.5722656 C120.021484,50.0761719 118.851562,50.328125 117.539062,50.328125 C115.523438,50.328125 113.851562,49.6875 112.523438,48.40625 C111.195312,47.125 110.53125,45.5664062 110.53125,43.7304688 C110.53125,42.4960938 110.841797,41.3496094 111.462891,40.2910156 C112.083984,39.2324219 112.9375,38.40625 114.023438,37.8125 C115.109375,37.21875 116.324219,36.921875 117.667969,36.921875 C118.511719,36.921875 119.326172,37.0507812 120.111328,37.3085938 C120.896484,37.5664062 121.5625,37.9023438 122.109375,38.3164062 C122.65625,38.7304688 123.121094,39.2578125 123.503906,39.8984375 Z" id="Path"/><path d="M132.691406,36.921875 C134.652344,36.921875 136.277344,37.6328125 137.566406,39.0546875 C138.738281,40.3515625 139.324219,41.8867187 139.324219,43.6601563 C139.324219,45.4414063 138.705078,46.9980469 137.466797,48.3300781 C136.228516,49.6621094 134.636719,50.328125 132.691406,50.328125 C130.738281,50.328125 129.142578,49.6621094 127.904297,48.3300781 C126.666016,46.9980469 126.046875,45.4414063 126.046875,43.6601563 C126.046875,41.8945312 126.632812,40.3632813 127.804688,39.0664062 C129.09375,37.6367188 130.722656,36.921875 132.691406,36.921875 Z M132.691406,38.5273438 C131.332031,38.5273438 130.164062,39.03125 129.1875,40.0390625 C128.210938,41.046875 127.722656,42.265625 127.722656,43.6953125 C127.722656,44.6171875 127.945312,45.4765625 128.390625,46.2734375 C128.835938,47.0703125 129.4375,47.6855469 130.195312,48.1191406 C130.953125,48.5527344 131.785156,48.7695312 132.691406,48.7695312 C133.597656,48.7695312 134.429688,48.5527344 135.1875,48.1191406 C135.945312,47.6855469 136.546875,47.0703125 136.992188,46.2734375 C137.4375,45.4765625 137.660156,44.6171875 137.660156,43.6953125 C137.660156,42.265625 137.169922,41.046875 136.189453,40.0390625 C135.208984,39.03125 134.042969,38.5273438 132.691406,38.5273438 Z" id="Shape"/><path d="M148.78125,38.6445312 L147.726562,39.734375 C146.851562,38.8828125 145.996094,38.4570313 145.160156,38.4570313 C144.628906,38.4570313 144.173828,38.6328125 143.794922,38.984375 C143.416016,39.3359375 143.226562,39.7460938 143.226562,40.2148438 C143.226562,40.6289063 143.382812,41.0234375 143.695312,41.3984375 C144.007812,41.78125 144.664062,42.2304688 145.664062,42.7460937 C146.882812,43.3789063 147.710938,43.9882812 148.148438,44.5742188 C148.578125,45.1679688 148.792969,45.8359375 148.792969,46.578125 C148.792969,47.625 148.425781,48.5117188 147.691406,49.2382812 C146.957031,49.9648438 146.039062,50.328125 144.9375,50.328125 C144.203125,50.328125 143.501953,50.1679688 142.833984,49.8476562 C142.166016,49.5273438 141.613281,49.0859375 141.175781,48.5234375 L142.207031,47.3515625 C143.042969,48.296875 143.929688,48.7695312 144.867188,48.7695312 C145.523438,48.7695312 146.082031,48.5585938 146.542969,48.1367188 C147.003906,47.7148438 147.234375,47.21875 147.234375,46.6484375 C147.234375,46.1796875 147.082031,45.7617188 146.777344,45.3945312 C146.472656,45.0351562 145.785156,44.5820313 144.714844,44.0351563 C143.566406,43.4414062 142.785156,42.8554688 142.371094,42.2773438 C141.957031,41.6992187 141.75,41.0390625 141.75,40.296875 C141.75,39.328125 142.080078,38.5234375 142.740234,37.8828125 C143.400391,37.2421875 144.234375,36.921875 145.242188,36.921875 C146.414062,36.921875 147.59375,37.4960938 148.78125,38.6445312 Z" id="Path"/><path d="M162.421875,45.7695312 L163.804688,46.4960938 C163.351562,47.3867188 162.828125,48.1054688 162.234375,48.6523438 C161.640625,49.1992188 160.972656,49.6152344 160.230469,49.9003906 C159.488281,50.1855469 158.648438,50.328125 157.710938,50.328125 C155.632812,50.328125 154.007812,49.6464844 152.835938,48.2832031 C151.664062,46.9199219 151.078125,45.3789062 151.078125,43.6601563 C151.078125,42.0429688 151.574219,40.6015625 152.566406,39.3359375 C153.824219,37.7265625 155.507812,36.921875 157.617188,36.921875 C159.789062,36.921875 161.523438,37.7460938 162.820312,39.3945312 C163.742188,40.5585938 164.210938,42.0117188 164.226562,43.7539063 L152.765625,43.7539063 C152.796875,45.2382813 153.269531,46.4550781 154.183594,47.4042969 C155.097656,48.3535156 156.226562,48.828125 157.570312,48.828125 C158.21875,48.828125 158.849609,48.7148438 159.462891,48.4882812 C160.076172,48.2617188 160.597656,47.9609375 161.027344,47.5859375 C161.457031,47.2109375 161.921875,46.6054688 162.421875,45.7695312 Z M162.421875,42.3359375 C162.203125,41.4609375 161.884766,40.7617188 161.466797,40.2382812 C161.048828,39.7148438 160.496094,39.2929688 159.808594,38.9726562 C159.121094,38.6523438 158.398438,38.4921875 157.640625,38.4921875 C156.390625,38.4921875 155.316406,38.8945312 154.417969,39.6992188 C153.761719,40.2851562 153.265625,41.1640625 152.929688,42.3359375 L162.421875,42.3359375 Z" id="Shape"/></g></g></g></g></svg>