<?xml version="1.0" encoding="UTF-8"?><svg width="601px" height="213px" viewBox="0 0 601 213" version="1.1" xmlns="http://www.w3.org/2000/svg" xmlns:xlink="http://www.w3.org/1999/xlink"><title>Image-Icon-Long-acting</title><g id="Screen-Design" stroke="none" stroke-width="1" fill="none" fill-rule="evenodd" stroke-linecap="round"><g id="Lesson-4-ClientR2" transform="translate(-420, -666)" stroke="#BB16A3"><g id="Image-Icon-Long-acting" transform="translate(420, 666)"><g transform="translate(33.7643, 47.197)" id="Long-acting-Icon" stroke-width="5"><g transform="translate(164, -23)"><polyline id="Stroke-1" points="109.375 109.224138 90.625 91.0201149 90.625 54.612069"/><g id="Group-8"><path d="M150.002841,90.4959275 C150.002841,122.985428 123.547875,149.320928 90.9109918,149.320928 C58.2741089,149.320928 31.8191426,122.985428 31.8191426,90.4959275 C31.8191426,58.0064275 58.2741089,31.6709275 90.9109918,31.6709275 C123.547875,31.6709275 150.002841,58.0064275 150.002841,90.4959275 Z" id="Stroke-2"/><polyline id="Stroke-4" points="200 85.9700225 181.817893 104.070022 163.635785 85.9700225"/><path d="M177.03918,119.54145 C164.884441,155.275375 130.915719,181 90.9105372,181 C40.705193,181 0,140.48315 0,90.5 C0,40.521375 40.7006475,0 90.9105372,0 C141.120427,0 181.821074,40.51685 181.821074,90.5 L181.816529,90.495475 L181.816529,99.545475" id="Stroke-6"/></g></g></g></g></g></g></svg>