<?xml version="1.0" encoding="UTF-8"?><svg width="445px" height="264px" viewBox="0 0 445 264" version="1.1" xmlns="http://www.w3.org/2000/svg" xmlns:xlink="http://www.w3.org/1999/xlink"><title>Image-Pen Needle</title><g id="Screen-Design" stroke="none" stroke-width="1" fill="none" fill-rule="evenodd"><g id="Lesson-4-R2-Exports" transform="translate(-182, -2246)"><g id="Image-Pen-Needle" transform="translate(182, 2246)"><g id="Group-5" transform="translate(121, 30)" stroke="#307FE2" stroke-linecap="round" stroke-linejoin="round" stroke-width="5.5"><path d="M192.6073,55.2235 C199.8413,69.2245 203.9273,85.1175 203.9273,101.9635 C203.9273,158.2765 158.2763,203.9275 101.9633,203.9275 C87.1383,203.9275 73.0513,200.7625 60.3423,195.0735" id="Stroke-1"/><path d="M7.159,139.569 C5.671,135.821 4.399,131.965 3.358,128.014 C1.167,119.698 -6.21724894e-15,110.967 -6.21724894e-15,101.964 C-6.21724894e-15,45.651 45.651,0 101.964,0 C111.424,0 120.583,1.288 129.276,3.699 C133.161,4.777 136.953,6.079 140.637,7.59" id="Stroke-3"/></g><g transform="translate(106, 22)" fill="#3080E3"><path d="M217.693792,1.32411022 C215.95519,-0.441370075 213.127705,-0.441370075 211.386094,1.32411022 L203.869195,8.94403296 L203.445072,8.51409735 C198.72257,3.72382179 191.900511,3.15362349 187.905936,7.1968478 L182.100568,13.0817821 L181.733596,12.7097811 C179.991986,10.9412516 177.167509,10.9412516 175.428906,12.7097811 L50.5593437,139.287705 C48.8087094,137.72957 46.1496702,137.778357 44.4802508,139.476755 L4.10135736,180.406016 C-1.36711912,185.949441 -1.36711912,194.97504 4.10135736,200.524563 L21.1895944,217.843956 C23.9238326,220.615668 27.5183482,222 31.1098559,222 C34.7043715,222 38.2988871,220.615668 41.0331254,217.843956 L81.4090108,176.911646 C82.2482325,176.063971 82.7174747,174.914427 82.7174747,173.716096 C82.7174747,172.615339 82.3053838,171.569467 81.5985125,170.749235 L138.334708,113.232387 C140.076318,111.469956 140.076318,108.603719 138.334708,106.838238 C136.593097,105.072758 133.76862,105.072758 132.02701,106.838238 L75.3088622,164.333742 L56.8880976,145.66051 L178.578243,22.2994798 L197.002016,40.9727118 L168.441408,69.9247592 C166.702806,71.6902395 166.702806,74.5534278 168.441408,76.3189081 C170.183019,78.0843884 173.010504,78.0843884 174.749106,76.3189081 L206.465067,44.1682617 C207.30128,43.3236364 207.767515,42.171043 207.767515,40.9727118 C207.767515,39.7743806 207.30128,38.6248365 206.465067,37.7741128 L206.095087,37.405161 L211.903464,31.5171774 C215.892022,27.4678548 215.320509,20.5522946 210.601016,15.7681174 L210.176893,15.3381818 L217.693792,7.71825908 C219.435403,5.95277878 219.435403,3.08959052 217.693792,1.32411022 L217.693792,1.32411022 Z M34.7284352,211.449807 C32.7341558,213.46837 29.4915719,213.46837 27.4942845,211.449807 L10.4120634,194.130415 C8.41778407,192.108802 8.41778407,188.818728 10.4090555,186.800165 L19.3396972,177.747123 C19.5322068,178.506371 19.9021863,179.232078 20.491747,179.82667 L43.2048745,202.854144 L34.7284352,211.449807 Z M49.5125727,196.459995 L26.7964371,173.432521 C26.2098844,172.837929 25.4969972,172.45983 24.7450065,172.267731 L47.6325959,149.066454 L71.9489676,173.716096 L49.5125727,196.459995 Z M188.408266,19.475931 L194.180546,13.6153902 C194.481343,13.4568323 195.855982,13.612341 197.137374,14.9082462 L204.293318,22.1622663 C205.571702,23.4612207 205.725108,24.8486016 205.595766,25.1230286 L199.784381,31.0079629 L188.408266,19.475931 Z" id="Fill-58"/><path d="M143.026829,91.5542438 C139.979763,94.6430721 139.979763,99.6559384 143.026829,102.744767 C146.073896,105.836644 151.018987,105.836644 154.066053,102.744767 C157.116127,99.6559384 157.116127,94.6430721 154.066053,91.5542438 C151.018987,88.4654156 146.073896,88.4654156 143.026829,91.5542438" id="Fill-60"/></g></g></g></g></svg>