<?xml version="1.0" encoding="UTF-8"?><svg width="445px" height="276px" viewBox="0 0 445 276" version="1.1" xmlns="http://www.w3.org/2000/svg" xmlns:xlink="http://www.w3.org/1999/xlink"><title>Image-Types-Of-Insulin</title><g id="Screen-Design" stroke="none" stroke-width="1" fill="none" fill-rule="evenodd"><g id="Lesson-4" transform="translate(-181, -218)"><g id="Image-Text-Image25" transform="translate(0, 178)"><g id="Group" transform="translate(181, 40)"><g id="Image-Insulin-Types" transform="translate(35, 1)"><g id="Syringe" transform="translate(165, 64)" fill="#2E008C"><path d="M208.742094,32.8816371 L204.275334,28.4148617 C204.272438,28.4148617 204.272438,28.4148617 204.272438,28.4119649 L181.59103,5.73047889 L177.11558,1.25791 C175.441269,-0.419303334 172.718341,-0.419303334 171.04403,1.25791 C169.363926,2.93512334 169.363926,5.65516361 171.04403,7.33237695 L172.477912,8.766264 L133.763096,47.484111 L130.596968,44.3150758 C130.594071,44.3150758 130.591175,44.3121791 130.588278,44.3092823 L124.29368,38.014663 C122.616473,36.3374497 119.896442,36.3374497 118.219234,38.014663 C116.542027,39.6918764 116.542027,42.4119166 118.219234,44.08913 L121.483851,47.3537577 L94.6195626,74.2181384 C92.942355,75.8953518 92.942355,78.6124953 94.6195626,80.2897086 C96.2967701,81.966922 99.0196978,81.966922 100.694009,80.2897086 L127.558297,53.4282246 L131.639791,57.5126301 L156.569063,82.4419876 L141.23956,97.7744404 C141.065756,97.0039072 140.692077,96.2710316 140.092454,95.6714061 L129.365857,84.9447722 C127.68865,83.2646622 124.965722,83.2646622 123.291411,84.9447722 C121.614204,86.6190888 121.614204,89.3420259 123.291411,91.0163425 L134.018008,101.745873 C134.617631,102.345498 135.350505,102.722075 136.121035,102.890086 L119.708154,119.30592 C119.537247,118.535387 119.163569,117.802511 118.561049,117.202886 L107.834452,106.473355 C106.160141,104.796142 103.437213,104.796142 101.760006,106.473355 C100.082798,108.150568 100.082798,110.870609 101.760006,112.547822 L112.486603,123.277353 C113.086226,123.876978 113.819099,124.253555 114.58963,124.421566 L98.1767489,140.8374 C98.0058417,140.066866 97.6292666,139.333991 97.0296432,138.734365 L86.3030464,128.007732 C84.6258388,126.327621 81.9029112,126.327621 80.2286004,128.007732 C78.5484961,129.684945 78.5484961,132.404985 80.2286004,134.082198 L90.9551972,144.808832 C91.5548206,145.408458 92.2876937,145.785034 93.0553276,145.955942 L77.7258244,161.285498 L48.7121614,132.271735 L69.1601893,111.823637 C70.8373968,110.146423 70.8373968,107.426383 69.1601893,105.74917 C67.4829817,104.071956 64.7629508,104.071956 63.0857433,105.74917 L39.6019408,129.238847 C38.7937527,130.041244 38.3418626,131.136212 38.3418626,132.271735 C38.3418626,133.413051 38.7937527,134.505123 39.6019408,135.310417 L41.5485444,137.259924 L33.3768648,145.428735 C28.519046,150.289467 29.3301308,158.716088 35.2249795,164.610957 L37.2700719,166.656057 L1.25790566,202.668347 C-0.419301888,204.345561 -0.419301888,207.065601 1.25790566,208.742814 C2.0979578,209.579972 3.19581905,210 4.2936803,210 C5.39443828,210 6.49519625,209.579972 7.33235166,208.742814 L43.3445179,172.730524 L45.3896104,174.775623 C48.7005745,178.086599 52.8081398,179.79278 56.6376189,179.79278 C59.6241491,179.79278 62.4426689,178.752849 64.5717665,176.620848 L72.7405494,168.452037 L74.6900497,170.398647 C75.5301019,171.238702 76.6279631,171.655833 77.7258244,171.655833 C78.8265823,171.655833 79.9273403,171.238702 80.7644957,170.398647 L162.646406,88.5164545 L165.911022,91.7810822 C166.748177,92.6211372 167.848935,93.038268 168.946797,93.038268 C170.044658,93.038268 171.148313,92.6211372 171.985468,91.7810822 C173.662676,90.1038689 173.662676,87.3838286 171.985468,85.7066153 L162.516053,76.240064 L201.23087,37.522217 L202.667648,38.9590008 C204.347753,40.6362141 207.067784,40.6333174 208.742094,38.956104 C210.419302,37.2788907 210.419302,34.5588504 208.742094,32.8816371 L208.742094,32.8816371 Z M58.4973205,170.549277 C57.2720031,171.774599 54.0015932,171.241599 51.4640564,168.704053 L41.2994255,158.53649 C38.7589919,155.996048 38.2317868,152.728524 39.4542075,151.503202 L47.6229904,143.331494 L66.6690001,162.37757 L58.4973205,170.549277 Z M178.552358,14.8407309 L195.156424,31.44775 L156.441607,70.1627003 L139.837542,53.558578 L178.552358,14.8407309 Z" id="Fill-200"/><path d="M86.0689905,98.6605536 C89.0033795,95.7261545 89.0033795,90.9639114 86.0689905,88.0295123 C83.1317047,85.0922164 78.3723748,85.0922164 75.4379858,88.0295123 C72.5007,90.9639114 72.5007,95.7261545 75.4379858,98.6605536 C78.3723748,101.594953 83.1317047,101.594953 86.0689905,98.6605536" id="Fill-202"/></g><g id="Pen-Needle" fill="#3080E3"><path d="M208.747472,1.27043008 C207.080319,-0.423476693 204.369032,-0.423476693 202.698994,1.27043008 L195.491009,8.58143703 L195.084316,8.16893124 C190.555889,3.57285604 184.014188,3.02577389 180.183774,6.9050837 L174.616983,12.5514396 L174.265092,12.1945197 C172.595055,10.4976874 169.886652,10.4976874 168.219499,12.1945197 L48.4815625,133.640907 C46.802872,132.145939 44.2531084,132.192748 42.6522953,133.822292 L3.93280843,173.092259 C-1.31093614,178.41095 -1.31093614,187.070646 3.93280843,192.395189 L20.3187891,209.012444 C22.9406614,211.67179 26.3874572,213 29.8313687,213 C33.2781645,213 36.7249603,211.67179 39.3468325,209.012444 L78.0634351,169.739552 C78.8681681,168.926243 79.3181264,167.823302 79.3181264,166.673551 C79.3181264,165.61742 78.9229707,164.613948 78.245149,163.826969 L132.64972,108.641885 C134.319757,106.950904 134.319757,104.200865 132.64972,102.506959 C130.979683,100.813052 128.27128,100.813052 126.601242,102.506959 L72.2139774,157.671563 L54.5502306,139.755354 L171.239411,21.3954468 L188.906042,39.3116559 L161.519159,67.0899717 C159.852005,68.7838784 159.852005,71.5309915 161.519159,73.2248983 C163.189196,74.918805 165.900483,74.918805 167.567636,73.2248983 L197.980201,42.3776565 C198.78205,41.5672727 199.229124,40.4614061 199.229124,39.3116559 C199.229124,38.1619057 198.78205,37.0589647 197.980201,36.2427298 L197.625426,35.8887355 L203.195102,30.239454 C207.019747,26.3542931 206.471721,19.7190935 201.946179,15.1288694 L201.539486,14.7163636 L208.747472,7.40535668 C210.417509,5.71144991 210.417509,2.96433685 208.747472,1.27043008 L208.747472,1.27043008 Z M33.3012392,202.877517 C31.3889165,204.814247 28.2795895,204.814247 26.3643824,202.877517 L9.98417042,186.260263 C8.07184773,184.320608 8.07184773,181.163914 9.98128608,179.227185 L18.5449151,170.541159 C18.7295134,171.269627 19.0842882,171.965913 19.6496204,172.5364 L41.4293318,194.630327 L33.3012392,202.877517 Z M47.4778094,188.4954 L25.6952137,166.401473 C25.1327658,165.830986 24.4491754,165.468215 23.7280884,165.283904 L45.6750919,143.023219 L68.9921608,166.673551 L47.4778094,188.4954 Z M180.66546,18.6863662 L186.200524,13.0634149 C186.488959,12.9112851 187.807106,13.0604893 189.035838,14.3038578 L195.897702,21.263796 C197.12355,22.5100901 197.270651,23.8412259 197.146624,24.1045274 L191.574064,29.7508833 L180.66546,18.6863662 Z" id="Fill-58"/><path d="M137.149014,86.6199269 C134.22717,89.5835323 134.22717,94.3931743 137.149014,97.3567798 C140.070859,100.323311 144.812727,100.323311 147.734571,97.3567798 C150.6593,94.3931743 150.6593,89.5835323 147.734571,86.6199269 C144.812727,83.6563214 140.070859,83.6563214 137.149014,86.6199269" id="Fill-60"/></g></g></g></g></g></g></svg>