<?xml version="1.0" encoding="UTF-8"?><svg width="920px" height="292px" viewBox="0 0 920 292" version="1.1" xmlns="http://www.w3.org/2000/svg" xmlns:xlink="http://www.w3.org/1999/xlink"><title>Image-Long-acting Illustration-Outlined</title><g id="Screen-Design" stroke="none" stroke-width="1" fill="none" fill-rule="evenodd"><g id="Lesson-4-Exports" transform="translate(-64, -470)"><g id="Image-Long-acting-Illustration-Outlined" transform="translate(64, 470)"><g id="Image-Long-acting-Illustration" transform="translate(79.2243, 16.3955)"><g id="X-Y-Axis-Copy"><line x1="55.3899545" y1="237.766654" x2="304.554583" y2="237.766654" id="Line" stroke="#979797" stroke-width="1.49189189" stroke-linecap="square"/><line x1="526.863144" y1="237.766654" x2="776.027772" y2="237.766654" id="Line-Copy" stroke="#979797" stroke-width="1.49189189" stroke-linecap="square"/><g id="24-hour-period" transform="translate(336.894, 227.8829)" fill="#307FE2" fill-rule="nonzero"><path d="M3.36230469,5.79003906 L0.4296875,5.79003906 C0.508463542,4.08561198 1.04378255,2.74462891 2.03564453,1.76708984 C3.02750651,0.789550781 4.30045573,0.30078125 5.85449219,0.30078125 C6.8141276,0.30078125 7.66097005,0.503092448 8.39501953,0.907714844 C9.12906901,1.31233724 9.71630859,1.89599609 10.1567383,2.65869141 C10.597168,3.42138672 10.8173828,4.19661458 10.8173828,4.984375 C10.8173828,5.92252604 10.5506185,6.93229167 10.0170898,8.01367187 C9.4835612,9.09505208 8.5078125,10.3733724 7.08984375,11.8486328 L5.31738281,13.7177734 L10.9462891,13.7177734 L10.9462891,16.5 L0,16.5 L0,15.0605469 L4.88769531,10.0761719 C6.06933594,8.88020833 6.85530599,7.91878255 7.24560547,7.19189453 C7.63590495,6.46500651 7.83105469,5.80794271 7.83105469,5.22070313 C7.83105469,4.61197917 7.62874349,4.10888672 7.22412109,3.71142578 C6.8194987,3.31396484 6.2985026,3.11523438 5.66113281,3.11523438 C5.01660156,3.11523438 4.47949219,3.35514323 4.04980469,3.83496094 C3.62011719,4.31477865 3.39095052,4.96647135 3.36230469,5.79003906 Z" id="Path"/><path d="M19.1318359,0.30078125 L22.1396484,0.30078125 L22.1396484,10.4736328 L23.546875,10.4736328 L23.546875,13.2558594 L22.1396484,13.2558594 L22.1396484,16.5 L19.1962891,16.5 L19.1962891,13.2558594 L12.2998047,13.2558594 L12.2998047,10.4736328 L19.1318359,0.30078125 Z M19.1962891,10.4736328 L19.1962891,5.17773438 L15.5869141,10.4736328 L19.1962891,10.4736328 Z" id="Shape"/><polygon id="Path" points="26.0605469 9.31347656 31.5175781 9.31347656 31.5175781 12.0419922 26.0605469 12.0419922"/><path d="M34.9013672,0.30078125 L37.8125,0.30078125 L37.8125,5.99414063 C38.3854167,5.5 38.9619141,5.12939453 39.5419922,4.88232422 C40.1220703,4.63525391 40.7093099,4.51171875 41.3037109,4.51171875 C42.4638672,4.51171875 43.4414062,4.91276042 44.2363281,5.71484375 C44.9166667,6.40950521 45.2568359,7.43001302 45.2568359,8.77636719 L45.2568359,16.5 L42.3671875,16.5 L42.3671875,11.3759766 C42.3671875,10.0224609 42.3027344,9.10579427 42.1738281,8.62597656 C42.0449219,8.14615885 41.824707,7.78808594 41.5131836,7.55175781 C41.2016602,7.31542969 40.8167318,7.19726562 40.3583984,7.19726562 C39.7639974,7.19726562 39.2537435,7.39420573 38.8276367,7.78808594 C38.4015299,8.18196615 38.1061198,8.71907552 37.9414062,9.39941406 C37.8554687,9.75032552 37.8125,10.5524089 37.8125,11.8056641 L37.8125,16.5 L34.9013672,16.5 L34.9013672,0.30078125 Z" id="Path"/><path d="M53.5820312,4.51171875 C54.6848958,4.51171875 55.7215169,4.7874349 56.6918945,5.33886719 C57.6622721,5.89029948 58.4195964,6.63867187 58.9638672,7.58398438 C59.508138,8.52929688 59.7802734,9.54980469 59.7802734,10.6455078 C59.7802734,11.7483724 59.5063477,12.7796224 58.9584961,13.7392578 C58.4106445,14.6988932 57.6640625,15.449056 56.71875,15.9897461 C55.7734375,16.5304362 54.7314453,16.8007812 53.5927734,16.8007812 C51.9169922,16.8007812 50.4864909,16.2045898 49.3012695,15.012207 C48.1160482,13.8198242 47.5234375,12.3714193 47.5234375,10.6669922 C47.5234375,8.84082031 48.1930339,7.31901042 49.5322266,6.1015625 C50.7067057,5.04166667 52.0566406,4.51171875 53.5820312,4.51171875 Z M53.625,7.27246094 C52.7154948,7.27246094 51.9581706,7.58935547 51.3530273,8.22314453 C50.7478841,8.85693359 50.4453125,9.66796875 50.4453125,10.65625 C50.4453125,11.6731771 50.7443034,12.4967448 51.3422852,13.1269531 C51.9402669,13.7571615 52.6975911,14.0722656 53.6142578,14.0722656 C54.5309245,14.0722656 55.2936198,13.7535807 55.9023438,13.1162109 C56.5110677,12.4788411 56.8154297,11.6588542 56.8154297,10.65625 C56.8154297,9.65364583 56.5164388,8.83902995 55.918457,8.21240234 C55.3204753,7.58577474 54.5559896,7.27246094 53.625,7.27246094 Z" id="Shape"/><path d="M62.1650391,4.8125 L65.1298828,4.8125 L65.1298828,10.4414062 C65.1298828,11.5371094 65.2050781,12.2980143 65.3554688,12.7241211 C65.5058594,13.1502279 65.7475586,13.4814453 66.0805664,13.7177734 C66.4135742,13.9541016 66.8235677,14.0722656 67.3105469,14.0722656 C67.797526,14.0722656 68.2111003,13.9558919 68.5512695,13.7231445 C68.8914388,13.4903971 69.1438802,13.1484375 69.3085938,12.6972656 C69.4303385,12.3606771 69.4912109,11.6409505 69.4912109,10.5380859 L69.4912109,4.8125 L72.4345703,4.8125 L72.4345703,9.76464844 C72.4345703,11.8056641 72.2734375,13.2021484 71.9511719,13.9541016 C71.5572917,14.8707682 70.9772135,15.5743815 70.2109375,16.0649414 C69.4446615,16.5555013 68.4707031,16.8007812 67.2890625,16.8007812 C66.0071615,16.8007812 64.9705404,16.5143229 64.1791992,15.9414063 C63.3878581,15.3684896 62.8310547,14.569987 62.5087891,13.5458984 C62.2796224,12.8369141 62.1650391,11.5478516 62.1650391,9.67871094 L62.1650391,4.8125 Z" id="Path"/><path d="M74.6904297,4.8125 L77.2041016,4.8125 L77.2041016,6.28417969 C77.476237,5.70410156 77.8378906,5.26367188 78.2890625,4.96289062 C78.7402344,4.66210938 79.234375,4.51171875 79.7714844,4.51171875 C80.1510417,4.51171875 80.5485026,4.61197917 80.9638672,4.8125 L80.0507812,7.33691406 C79.7070312,7.16503906 79.4241536,7.07910156 79.2021484,7.07910156 C78.7509766,7.07910156 78.3696289,7.35839844 78.0581055,7.91699219 C77.746582,8.47558594 77.5908203,9.57128906 77.5908203,11.2041016 L77.6015625,11.7734375 L77.6015625,16.5 L74.6904297,16.5 L74.6904297,4.8125 Z" id="Path"/><path d="M91.4804688,4.8125 L91.4804688,6.1015625 C92.0104167,5.57161458 92.5833333,5.17415365 93.1992188,4.90917969 C93.8151042,4.64420573 94.4739583,4.51171875 95.1757812,4.51171875 C96.7011719,4.51171875 97.9973958,5.08821615 99.0644531,6.24121094 C100.13151,7.39420573 100.665039,8.87304687 100.665039,10.6777344 C100.665039,12.4179687 100.113607,13.8735352 99.0107422,15.0444336 C97.9078776,16.215332 96.6009115,16.8007813 95.0898438,16.8007813 C94.4166667,16.8007813 93.7900391,16.6808268 93.2099609,16.440918 C92.6298828,16.2010091 92.0533854,15.8089193 91.4804688,15.2646484 L91.4804688,20.7753906 L88.5693359,20.7753906 L88.5693359,4.8125 L91.4804688,4.8125 Z M94.5634766,7.21875 C93.6396484,7.21875 92.8733724,7.53385417 92.2646484,8.1640625 C91.6559245,8.79427083 91.3515625,9.61783854 91.3515625,10.6347656 C91.3515625,11.6731771 91.6559245,12.5128581 92.2646484,13.1538086 C92.8733724,13.7947591 93.6396484,14.1152344 94.5634766,14.1152344 C95.4586589,14.1152344 96.2124023,13.789388 96.824707,13.1376953 C97.4370117,12.4860026 97.7431641,11.6552734 97.7431641,10.6455078 C97.7431641,9.64290365 97.4423828,8.8211263 96.8408203,8.18017578 C96.2392578,7.53922526 95.4801432,7.21875 94.5634766,7.21875 Z" id="Shape"/><path d="M114.801758,11.5048828 L105.380859,11.5048828 C105.516927,12.335612 105.880371,12.9962565 106.471191,13.4868164 C107.062012,13.9773763 107.815755,14.2226562 108.732422,14.2226562 C109.828125,14.2226562 110.769857,13.8395182 111.557617,13.0732422 L114.02832,14.2333984 C113.412435,15.1070964 112.674805,15.753418 111.81543,16.1723633 C110.956055,16.5913086 109.935547,16.8007812 108.753906,16.8007812 C106.920573,16.8007812 105.427409,16.2224935 104.274414,15.065918 C103.121419,13.9093424 102.544922,12.4609375 102.544922,10.7207031 C102.544922,8.9375 103.119629,7.45686849 104.269043,6.27880859 C105.418457,5.1007487 106.859701,4.51171875 108.592773,4.51171875 C110.433268,4.51171875 111.930013,5.1007487 113.083008,6.27880859 C114.236003,7.45686849 114.8125,9.01269531 114.8125,10.9462891 L114.801758,11.5048828 Z M111.858398,9.1953125 C111.665039,8.54361979 111.283691,8.01367188 110.714355,7.60546875 C110.14502,7.19726562 109.484375,6.99316406 108.732422,6.99316406 C107.916016,6.99316406 107.19987,7.22233073 106.583984,7.68066406 C106.197266,7.9671224 105.839193,8.47200521 105.509766,9.1953125 L111.858398,9.1953125 Z" id="Shape"/><path d="M116.488281,4.8125 L119.001953,4.8125 L119.001953,6.28417969 C119.274089,5.70410156 119.635742,5.26367188 120.086914,4.96289062 C120.538086,4.66210938 121.032227,4.51171875 121.569336,4.51171875 C121.948893,4.51171875 122.346354,4.61197917 122.761719,4.8125 L121.848633,7.33691406 C121.504883,7.16503906 121.222005,7.07910156 121,7.07910156 C120.548828,7.07910156 120.16748,7.35839844 119.855957,7.91699219 C119.544434,8.47558594 119.388672,9.57128906 119.388672,11.2041016 L119.399414,11.7734375 L119.399414,16.5 L116.488281,16.5 L116.488281,4.8125 Z" id="Path"/><path d="M125.361328,0 C125.876953,0 126.319173,0.186197917 126.687988,0.55859375 C127.056803,0.930989583 127.241211,1.38216146 127.241211,1.91210937 C127.241211,2.43489583 127.058594,2.88069661 126.693359,3.24951172 C126.328125,3.61832682 125.891276,3.80273438 125.382812,3.80273438 C124.860026,3.80273438 124.414225,3.61474609 124.04541,3.23876953 C123.676595,2.86279297 123.492188,2.40625 123.492188,1.86914063 C123.492188,1.35351563 123.674805,0.913085938 124.040039,0.547851563 C124.405273,0.182617188 124.845703,0 125.361328,0 Z M123.889648,4.8125 L126.833008,4.8125 L126.833008,16.5 L123.889648,16.5 L123.889648,4.8125 Z" id="Shape"/><path d="M134.975586,4.51171875 C136.078451,4.51171875 137.115072,4.7874349 138.085449,5.33886719 C139.055827,5.89029948 139.813151,6.63867187 140.357422,7.58398438 C140.901693,8.52929688 141.173828,9.54980469 141.173828,10.6455078 C141.173828,11.7483724 140.899902,12.7796224 140.352051,13.7392578 C139.804199,14.6988932 139.057617,15.449056 138.112305,15.9897461 C137.166992,16.5304362 136.125,16.8007812 134.986328,16.8007812 C133.310547,16.8007812 131.880046,16.2045898 130.694824,15.012207 C129.509603,13.8198242 128.916992,12.3714193 128.916992,10.6669922 C128.916992,8.84082031 129.586589,7.31901042 130.925781,6.1015625 C132.10026,5.04166667 133.450195,4.51171875 134.975586,4.51171875 Z M135.018555,7.27246094 C134.109049,7.27246094 133.351725,7.58935547 132.746582,8.22314453 C132.141439,8.85693359 131.838867,9.66796875 131.838867,10.65625 C131.838867,11.6731771 132.137858,12.4967448 132.73584,13.1269531 C133.333822,13.7571615 134.091146,14.0722656 135.007812,14.0722656 C135.924479,14.0722656 136.687174,13.7535807 137.295898,13.1162109 C137.904622,12.4788411 138.208984,11.6588542 138.208984,10.65625 C138.208984,9.65364583 137.909993,8.83902995 137.312012,8.21240234 C136.71403,7.58577474 135.949544,7.27246094 135.018555,7.27246094 Z" id="Shape"/><path d="M152.206055,0.30078125 L155.12793,0.30078125 L155.12793,16.5 L152.206055,16.5 L152.206055,15.2646484 C151.633138,15.8089193 151.058431,16.2010091 150.481934,16.440918 C149.905436,16.6808268 149.280599,16.8007812 148.607422,16.8007812 C147.096354,16.8007812 145.789388,16.215332 144.686523,15.0444336 C143.583659,13.8735352 143.032227,12.4179688 143.032227,10.6777344 C143.032227,8.87304688 143.565755,7.39420573 144.632812,6.24121094 C145.69987,5.08821615 146.996094,4.51171875 148.521484,4.51171875 C149.223307,4.51171875 149.882161,4.64420573 150.498047,4.90917969 C151.113932,5.17415365 151.683268,5.57161458 152.206055,6.1015625 L152.206055,0.30078125 Z M149.123047,7.21875 C148.213542,7.21875 147.458008,7.53922526 146.856445,8.18017578 C146.254883,8.8211263 145.954102,9.64290365 145.954102,10.6455078 C145.954102,11.6552734 146.260254,12.4860026 146.872559,13.1376953 C147.484863,13.789388 148.238607,14.1152344 149.133789,14.1152344 C150.057617,14.1152344 150.823893,13.7947591 151.432617,13.1538086 C152.041341,12.5128581 152.345703,11.6731771 152.345703,10.6347656 C152.345703,9.61783854 152.041341,8.79427083 151.432617,8.1640625 C150.823893,7.53385417 150.054036,7.21875 149.123047,7.21875 Z" id="Shape"/></g><g id="Insulin-levels-in-th" transform="translate(10.3877, 128.9009) rotate(-90) translate(-10.3877, -128.9009)translate(-118.5132, 118.5132)" fill="#307FE2" fill-rule="nonzero"><polygon id="Path" points="0 0.698242188 2.98632812 0.698242188 2.98632812 16.5 0 16.5"/><path d="M6.04785156,4.8125 L8.96972656,4.8125 L8.96972656,6.00488281 C9.63574219,5.44628906 10.2390951,5.05777995 10.7797852,4.83935547 C11.3204753,4.62093099 11.8736979,4.51171875 12.4394531,4.51171875 C13.5996094,4.51171875 14.5843099,4.91634115 15.3935547,5.72558594 C16.0738932,6.41308594 16.4140625,7.43001302 16.4140625,8.77636719 L16.4140625,16.5 L13.5136719,16.5 L13.5136719,11.3759766 C13.5136719,9.97949219 13.4510091,9.05208333 13.3256836,8.59375 C13.2003581,8.13541667 12.9819336,7.78629557 12.6704102,7.54638672 C12.3588867,7.30647786 11.9739583,7.18652344 11.515625,7.18652344 C10.921224,7.18652344 10.4109701,7.38525391 9.98486328,7.78271484 C9.55875651,8.18017578 9.26334635,8.72981771 9.09863281,9.43164062 C9.01269531,9.796875 8.96972656,10.5882161 8.96972656,11.8056641 L8.96972656,16.5 L6.04785156,16.5 L6.04785156,4.8125 Z" id="Path"/><path d="M26.4042969,6.4453125 L24.5888672,8.26074219 C23.851237,7.53027344 23.1816406,7.16503906 22.5800781,7.16503906 C22.250651,7.16503906 21.9928385,7.23486328 21.8066406,7.37451172 C21.6204427,7.51416016 21.5273438,7.68782552 21.5273438,7.89550781 C21.5273438,8.0530599 21.5864258,8.19807943 21.7045898,8.33056641 C21.8227539,8.46305339 22.1145833,8.64388021 22.5800781,8.87304688 L23.6542969,9.41015625 C24.7858073,9.96875 25.5628255,10.5380859 25.9853516,11.1181641 C26.4078776,11.6982422 26.6191406,12.3785807 26.6191406,13.1591797 C26.6191406,14.1975911 26.237793,15.0641276 25.4750977,15.7587891 C24.7124023,16.4534505 23.6901042,16.8007812 22.4082031,16.8007812 C20.703776,16.8007812 19.343099,16.1347656 18.3261719,14.8027344 L20.1308594,12.8369141 C20.4746094,13.2379557 20.8774414,13.5620117 21.3393555,13.809082 C21.8012695,14.0561523 22.211263,14.1796875 22.5693359,14.1796875 C22.9560547,14.1796875 23.2675781,14.0865885 23.5039063,13.9003906 C23.7402344,13.7141927 23.8583984,13.499349 23.8583984,13.2558594 C23.8583984,12.8046875 23.4322917,12.3642578 22.5800781,11.9345703 L21.5917969,11.4404297 C19.7011719,10.4879557 18.7558594,9.29557292 18.7558594,7.86328125 C18.7558594,6.93945313 19.1121419,6.14990234 19.824707,5.49462891 C20.5372721,4.83935547 21.4485677,4.51171875 22.5585938,4.51171875 C23.3177083,4.51171875 24.0320638,4.67822266 24.7016602,5.01123047 C25.3712565,5.34423828 25.9388021,5.82226563 26.4042969,6.4453125 Z" id="Path"/><path d="M28.9179688,4.8125 L31.8828125,4.8125 L31.8828125,10.4414062 C31.8828125,11.5371094 31.9580078,12.2980143 32.1083984,12.7241211 C32.2587891,13.1502279 32.5004883,13.4814453 32.8334961,13.7177734 C33.1665039,13.9541016 33.5764974,14.0722656 34.0634766,14.0722656 C34.5504557,14.0722656 34.9640299,13.9558919 35.3041992,13.7231445 C35.6443685,13.4903971 35.8968099,13.1484375 36.0615234,12.6972656 C36.1832682,12.3606771 36.2441406,11.6409505 36.2441406,10.5380859 L36.2441406,4.8125 L39.1875,4.8125 L39.1875,9.76464844 C39.1875,11.8056641 39.0263672,13.2021484 38.7041016,13.9541016 C38.3102214,14.8707682 37.7301432,15.5743815 36.9638672,16.0649414 C36.1975911,16.5555013 35.2236328,16.8007812 34.0419922,16.8007812 C32.7600911,16.8007812 31.7234701,16.5143229 30.9321289,15.9414063 C30.1407878,15.3684896 29.5839844,14.569987 29.2617188,13.5458984 C29.0325521,12.8369141 28.9179688,11.5478516 28.9179688,9.67871094 L28.9179688,4.8125 Z" id="Path"/><polygon id="Path" points="41.8193359 0.30078125 44.7519531 0.30078125 44.7519531 16.5 41.8193359 16.5"/><path d="M48.5546875,0 C49.0703125,0 49.5125326,0.186197917 49.8813477,0.55859375 C50.2501628,0.930989583 50.4345703,1.38216146 50.4345703,1.91210937 C50.4345703,2.43489583 50.2519531,2.88069661 49.8867188,3.24951172 C49.5214844,3.61832682 49.0846354,3.80273438 48.5761719,3.80273438 C48.0533854,3.80273438 47.6075846,3.61474609 47.2387695,3.23876953 C46.8699544,2.86279297 46.6855469,2.40625 46.6855469,1.86914063 C46.6855469,1.35351563 46.8681641,0.913085938 47.2333984,0.547851563 C47.5986328,0.182617188 48.0390625,0 48.5546875,0 Z M47.0830078,4.8125 L50.0263672,4.8125 L50.0263672,16.5 L47.0830078,16.5 L47.0830078,4.8125 Z" id="Shape"/><path d="M52.6796875,4.8125 L55.6015625,4.8125 L55.6015625,6.00488281 C56.2675781,5.44628906 56.870931,5.05777995 57.4116211,4.83935547 C57.9523112,4.62093099 58.5055339,4.51171875 59.0712891,4.51171875 C60.2314453,4.51171875 61.2161458,4.91634115 62.0253906,5.72558594 C62.7057292,6.41308594 63.0458984,7.43001302 63.0458984,8.77636719 L63.0458984,16.5 L60.1455078,16.5 L60.1455078,11.3759766 C60.1455078,9.97949219 60.0828451,9.05208333 59.9575195,8.59375 C59.832194,8.13541667 59.6137695,7.78629557 59.3022461,7.54638672 C58.9907227,7.30647786 58.6057943,7.18652344 58.1474609,7.18652344 C57.5530599,7.18652344 57.042806,7.38525391 56.6166992,7.78271484 C56.1905924,8.18017578 55.8951823,8.72981771 55.7304688,9.43164062 C55.6445313,9.796875 55.6015625,10.5882161 55.6015625,11.8056641 L55.6015625,16.5 L52.6796875,16.5 L52.6796875,4.8125 Z" id="Path"/><polygon id="Path" points="71.7255859 0.30078125 74.6582031 0.30078125 74.6582031 16.5 71.7255859 16.5"/><path d="M89.0205078,11.5048828 L79.5996094,11.5048828 C79.7356771,12.335612 80.0991211,12.9962565 80.6899414,13.4868164 C81.2807617,13.9773763 82.0345052,14.2226562 82.9511719,14.2226562 C84.046875,14.2226562 84.9886068,13.8395182 85.7763672,13.0732422 L88.2470703,14.2333984 C87.6311849,15.1070964 86.8935547,15.753418 86.0341797,16.1723633 C85.1748047,16.5913086 84.1542969,16.8007812 82.9726562,16.8007812 C81.1393229,16.8007812 79.6461589,16.2224935 78.4931641,15.065918 C77.3401693,13.9093424 76.7636719,12.4609375 76.7636719,10.7207031 C76.7636719,8.9375 77.3383789,7.45686849 78.487793,6.27880859 C79.637207,5.1007487 81.0784505,4.51171875 82.8115234,4.51171875 C84.6520182,4.51171875 86.148763,5.1007487 87.3017578,6.27880859 C88.4547526,7.45686849 89.03125,9.01269531 89.03125,10.9462891 L89.0205078,11.5048828 Z M86.0771484,9.1953125 C85.8837891,8.54361979 85.5024414,8.01367188 84.9331055,7.60546875 C84.3637695,7.19726562 83.703125,6.99316406 82.9511719,6.99316406 C82.1347656,6.99316406 81.4186198,7.22233073 80.8027344,7.68066406 C80.4160156,7.9671224 80.0579427,8.47200521 79.7285156,9.1953125 L86.0771484,9.1953125 Z" id="Shape"/><polygon id="Path" points="90.1376953 4.8125 93.1240234 4.8125 96.078125 11.7089844 99.0214844 4.8125 101.99707 4.8125 97.0234375 16.5 95.1220703 16.5"/><path d="M115.424805,11.5048828 L106.003906,11.5048828 C106.139974,12.335612 106.503418,12.9962565 107.094238,13.4868164 C107.685059,13.9773763 108.438802,14.2226562 109.355469,14.2226562 C110.451172,14.2226562 111.392904,13.8395182 112.180664,13.0732422 L114.651367,14.2333984 C114.035482,15.1070964 113.297852,15.753418 112.438477,16.1723633 C111.579102,16.5913086 110.558594,16.8007812 109.376953,16.8007812 C107.54362,16.8007812 106.050456,16.2224935 104.897461,15.065918 C103.744466,13.9093424 103.167969,12.4609375 103.167969,10.7207031 C103.167969,8.9375 103.742676,7.45686849 104.89209,6.27880859 C106.041504,5.1007487 107.482747,4.51171875 109.21582,4.51171875 C111.056315,4.51171875 112.55306,5.1007487 113.706055,6.27880859 C114.859049,7.45686849 115.435547,9.01269531 115.435547,10.9462891 L115.424805,11.5048828 Z M112.481445,9.1953125 C112.288086,8.54361979 111.906738,8.01367188 111.337402,7.60546875 C110.768066,7.19726562 110.107422,6.99316406 109.355469,6.99316406 C108.539062,6.99316406 107.822917,7.22233073 107.207031,7.68066406 C106.820312,7.9671224 106.46224,8.47200521 106.132812,9.1953125 L112.481445,9.1953125 Z" id="Shape"/><polygon id="Path" points="117.487305 0.30078125 120.419922 0.30078125 120.419922 16.5 117.487305 16.5"/><path d="M130.227539,6.4453125 L128.412109,8.26074219 C127.674479,7.53027344 127.004883,7.16503906 126.40332,7.16503906 C126.073893,7.16503906 125.816081,7.23486328 125.629883,7.37451172 C125.443685,7.51416016 125.350586,7.68782552 125.350586,7.89550781 C125.350586,8.0530599 125.409668,8.19807943 125.527832,8.33056641 C125.645996,8.46305339 125.937826,8.64388021 126.40332,8.87304688 L127.477539,9.41015625 C128.609049,9.96875 129.386068,10.5380859 129.808594,11.1181641 C130.23112,11.6982422 130.442383,12.3785807 130.442383,13.1591797 C130.442383,14.1975911 130.061035,15.0641276 129.29834,15.7587891 C128.535645,16.4534505 127.513346,16.8007812 126.231445,16.8007812 C124.527018,16.8007812 123.166341,16.1347656 122.149414,14.8027344 L123.954102,12.8369141 C124.297852,13.2379557 124.700684,13.5620117 125.162598,13.809082 C125.624512,14.0561523 126.034505,14.1796875 126.392578,14.1796875 C126.779297,14.1796875 127.09082,14.0865885 127.327148,13.9003906 C127.563477,13.7141927 127.681641,13.499349 127.681641,13.2558594 C127.681641,12.8046875 127.255534,12.3642578 126.40332,11.9345703 L125.415039,11.4404297 C123.524414,10.4879557 122.579102,9.29557292 122.579102,7.86328125 C122.579102,6.93945313 122.935384,6.14990234 123.647949,5.49462891 C124.360514,4.83935547 125.27181,4.51171875 126.381836,4.51171875 C127.140951,4.51171875 127.855306,4.67822266 128.524902,5.01123047 C129.194499,5.34423828 129.762044,5.82226563 130.227539,6.4453125 Z" id="Path"/><path d="M140.056641,0 C140.572266,0 141.014486,0.186197917 141.383301,0.55859375 C141.752116,0.930989583 141.936523,1.38216146 141.936523,1.91210937 C141.936523,2.43489583 141.753906,2.88069661 141.388672,3.24951172 C141.023438,3.61832682 140.586589,3.80273438 140.078125,3.80273438 C139.555339,3.80273438 139.109538,3.61474609 138.740723,3.23876953 C138.371908,2.86279297 138.1875,2.40625 138.1875,1.86914063 C138.1875,1.35351563 138.370117,0.913085938 138.735352,0.547851563 C139.100586,0.182617188 139.541016,0 140.056641,0 Z M138.584961,4.8125 L141.52832,4.8125 L141.52832,16.5 L138.584961,16.5 L138.584961,4.8125 Z" id="Shape"/><path d="M144.181641,4.8125 L147.103516,4.8125 L147.103516,6.00488281 C147.769531,5.44628906 148.372884,5.05777995 148.913574,4.83935547 C149.454264,4.62093099 150.007487,4.51171875 150.573242,4.51171875 C151.733398,4.51171875 152.718099,4.91634115 153.527344,5.72558594 C154.207682,6.41308594 154.547852,7.43001302 154.547852,8.77636719 L154.547852,16.5 L151.647461,16.5 L151.647461,11.3759766 C151.647461,9.97949219 151.584798,9.05208333 151.459473,8.59375 C151.334147,8.13541667 151.115723,7.78629557 150.804199,7.54638672 C150.492676,7.30647786 150.107747,7.18652344 149.649414,7.18652344 C149.055013,7.18652344 148.544759,7.38525391 148.118652,7.78271484 C147.692546,8.18017578 147.397135,8.72981771 147.232422,9.43164062 C147.146484,9.796875 147.103516,10.5882161 147.103516,11.8056641 L147.103516,16.5 L144.181641,16.5 L144.181641,4.8125 Z" id="Path"/><polygon id="Path" points="163.893555 0.504882812 166.81543 0.504882812 166.81543 4.8125 168.555664 4.8125 168.555664 7.33691406 166.81543 7.33691406 166.81543 16.5 163.893555 16.5 163.893555 7.33691406 162.389648 7.33691406 162.389648 4.8125 163.893555 4.8125"/><path d="M170.145508,0.30078125 L173.056641,0.30078125 L173.056641,5.99414063 C173.629557,5.5 174.206055,5.12939453 174.786133,4.88232422 C175.366211,4.63525391 175.953451,4.51171875 176.547852,4.51171875 C177.708008,4.51171875 178.685547,4.91276042 179.480469,5.71484375 C180.160807,6.40950521 180.500977,7.43001302 180.500977,8.77636719 L180.500977,16.5 L177.611328,16.5 L177.611328,11.3759766 C177.611328,10.0224609 177.546875,9.10579427 177.417969,8.62597656 C177.289062,8.14615885 177.068848,7.78808594 176.757324,7.55175781 C176.445801,7.31542969 176.060872,7.19726562 175.602539,7.19726562 C175.008138,7.19726562 174.497884,7.39420573 174.071777,7.78808594 C173.645671,8.18196615 173.35026,8.71907552 173.185547,9.39941406 C173.099609,9.75032552 173.056641,10.5524089 173.056641,11.8056641 L173.056641,16.5 L170.145508,16.5 L170.145508,0.30078125 Z" id="Path"/><path d="M195.045898,11.5048828 L185.625,11.5048828 C185.761068,12.335612 186.124512,12.9962565 186.715332,13.4868164 C187.306152,13.9773763 188.059896,14.2226562 188.976562,14.2226562 C190.072266,14.2226562 191.013997,13.8395182 191.801758,13.0732422 L194.272461,14.2333984 C193.656576,15.1070964 192.918945,15.753418 192.05957,16.1723633 C191.200195,16.5913086 190.179688,16.8007812 188.998047,16.8007812 C187.164714,16.8007812 185.671549,16.2224935 184.518555,15.065918 C183.36556,13.9093424 182.789062,12.4609375 182.789062,10.7207031 C182.789062,8.9375 183.36377,7.45686849 184.513184,6.27880859 C185.662598,5.1007487 187.103841,4.51171875 188.836914,4.51171875 C190.677409,4.51171875 192.174154,5.1007487 193.327148,6.27880859 C194.480143,7.45686849 195.056641,9.01269531 195.056641,10.9462891 L195.045898,11.5048828 Z M192.102539,9.1953125 C191.90918,8.54361979 191.527832,8.01367188 190.958496,7.60546875 C190.38916,7.19726562 189.728516,6.99316406 188.976562,6.99316406 C188.160156,6.99316406 187.44401,7.22233073 186.828125,7.68066406 C186.441406,7.9671224 186.083333,8.47200521 185.753906,9.1953125 L192.102539,9.1953125 Z" id="Shape"/><path d="M206.486328,0.30078125 L206.486328,6.1015625 C207.016276,5.57161458 207.589193,5.17415365 208.205078,4.90917969 C208.820964,4.64420573 209.479818,4.51171875 210.181641,4.51171875 C211.707031,4.51171875 213.003255,5.08821615 214.070312,6.24121094 C215.13737,7.39420573 215.670898,8.87304688 215.670898,10.6777344 C215.670898,12.4179688 215.119466,13.8735352 214.016602,15.0444336 C212.913737,16.215332 211.606771,16.8007812 210.095703,16.8007812 C209.422526,16.8007812 208.795898,16.6808268 208.21582,16.440918 C207.635742,16.2010091 207.059245,15.8089193 206.486328,15.2646484 L206.486328,16.5 L203.575195,16.5 L203.575195,0.30078125 L206.486328,0.30078125 Z M209.569336,7.21875 C208.645508,7.21875 207.879232,7.53385417 207.270508,8.1640625 C206.661784,8.79427083 206.357422,9.61783854 206.357422,10.6347656 C206.357422,11.6731771 206.661784,12.5128581 207.270508,13.1538086 C207.879232,13.7947591 208.645508,14.1152344 209.569336,14.1152344 C210.464518,14.1152344 211.218262,13.789388 211.830566,13.1376953 C212.442871,12.4860026 212.749023,11.6552734 212.749023,10.6455078 C212.749023,9.64290365 212.448242,8.8211263 211.84668,8.18017578 C211.245117,7.53922526 210.486003,7.21875 209.569336,7.21875 Z" id="Shape"/><path d="M223.587891,4.51171875 C224.690755,4.51171875 225.727376,4.7874349 226.697754,5.33886719 C227.668132,5.89029948 228.425456,6.63867187 228.969727,7.58398438 C229.513997,8.52929688 229.786133,9.54980469 229.786133,10.6455078 C229.786133,11.7483724 229.512207,12.7796224 228.964355,13.7392578 C228.416504,14.6988932 227.669922,15.449056 226.724609,15.9897461 C225.779297,16.5304362 224.737305,16.8007812 223.598633,16.8007812 C221.922852,16.8007812 220.49235,16.2045898 219.307129,15.012207 C218.121908,13.8198242 217.529297,12.3714193 217.529297,10.6669922 C217.529297,8.84082031 218.198893,7.31901042 219.538086,6.1015625 C220.712565,5.04166667 222.0625,4.51171875 223.587891,4.51171875 Z M223.630859,7.27246094 C222.721354,7.27246094 221.96403,7.58935547 221.358887,8.22314453 C220.753743,8.85693359 220.451172,9.66796875 220.451172,10.65625 C220.451172,11.6731771 220.750163,12.4967448 221.348145,13.1269531 C221.946126,13.7571615 222.703451,14.0722656 223.620117,14.0722656 C224.536784,14.0722656 225.299479,13.7535807 225.908203,13.1162109 C226.516927,12.4788411 226.821289,11.6588542 226.821289,10.65625 C226.821289,9.65364583 226.522298,8.83902995 225.924316,8.21240234 C225.326335,7.58577474 224.561849,7.27246094 223.630859,7.27246094 Z" id="Shape"/><path d="M240.818359,0.30078125 L243.740234,0.30078125 L243.740234,16.5 L240.818359,16.5 L240.818359,15.2646484 C240.245443,15.8089193 239.670736,16.2010091 239.094238,16.440918 C238.517741,16.6808268 237.892904,16.8007812 237.219727,16.8007812 C235.708659,16.8007812 234.401693,16.215332 233.298828,15.0444336 C232.195964,13.8735352 231.644531,12.4179688 231.644531,10.6777344 C231.644531,8.87304688 232.17806,7.39420573 233.245117,6.24121094 C234.312174,5.08821615 235.608398,4.51171875 237.133789,4.51171875 C237.835612,4.51171875 238.494466,4.64420573 239.110352,4.90917969 C239.726237,5.17415365 240.295573,5.57161458 240.818359,6.1015625 L240.818359,0.30078125 Z M237.735352,7.21875 C236.825846,7.21875 236.070312,7.53922526 235.46875,8.18017578 C234.867188,8.8211263 234.566406,9.64290365 234.566406,10.6455078 C234.566406,11.6552734 234.872559,12.4860026 235.484863,13.1376953 C236.097168,13.789388 236.850911,14.1152344 237.746094,14.1152344 C238.669922,14.1152344 239.436198,13.7947591 240.044922,13.1538086 C240.653646,12.5128581 240.958008,11.6731771 240.958008,10.6347656 C240.958008,9.61783854 240.653646,8.79427083 240.044922,8.1640625 C239.436198,7.53385417 238.666341,7.21875 237.735352,7.21875 Z" id="Shape"/><polygon id="Path" points="245.405273 4.8125 248.402344 4.8125 251.442383 12.1494141 254.793945 4.8125 257.801758 4.8125 250.475586 20.7753906 247.446289 20.7753906 249.852539 15.6298828"/></g></g><path d="M93.1947476,152.322483 L92.3378932,151.46569 C92.3373376,151.46569 92.3373376,151.46569 92.3373376,151.465135 L87.9863845,147.114493 L87.1278631,146.256589 C86.8066817,145.934874 86.284345,145.934874 85.9631636,146.256589 C85.6408708,146.578303 85.6408708,147.100046 85.9631636,147.42176 L86.2382238,147.696801 L78.8115971,155.123452 L78.2042418,154.515585 C78.2036862,154.515585 78.2031305,154.515029 78.2025748,154.514473 L76.9950881,153.307073 C76.673351,152.985359 76.15157,152.985359 75.8298329,153.307073 C75.5080957,153.628787 75.5080957,154.150531 75.8298329,154.472245 L76.4560812,155.098448 L71.3027301,160.251431 C70.980993,160.573145 70.980993,161.094333 71.3027301,161.416047 C71.6244673,161.737761 72.1468039,161.737761 72.4679854,161.416047 L77.6213364,156.26362 L78.4042857,157.047069 L83.1864443,161.828886 L80.2458001,164.769875 C80.2124595,164.622076 80.1407771,164.481499 80.0257519,164.366482 L77.968079,162.308957 C77.6463419,161.986687 77.1240052,161.986687 76.8028238,162.308957 C76.4810866,162.630115 76.4810866,163.152414 76.8028238,163.473573 L78.8604967,165.531654 C78.9755219,165.646671 79.1161083,165.718904 79.2639184,165.751131 L76.115451,168.899929 C76.082666,168.752129 76.0109837,168.611553 75.8954028,168.496536 L73.8377299,166.438455 C73.5165484,166.116741 72.9942118,166.116741 72.6724746,166.438455 C72.3507375,166.760169 72.3507375,167.281912 72.6724746,167.603627 L74.7301476,169.661708 C74.8451727,169.776725 74.9857591,169.848958 75.1335692,169.881185 L71.9851018,173.029983 C71.9523169,172.882183 71.8800788,172.741607 71.7650536,172.62659 L69.7073807,170.569064 C69.3856436,170.246794 68.8633069,170.246794 68.5421255,170.569064 C68.2198326,170.890778 68.2198326,171.412522 68.5421255,171.734236 L70.5997984,173.791762 C70.7148236,173.906779 70.8554099,173.979011 71.0026644,174.011794 L68.0620203,176.952228 L62.4963568,171.386962 L66.4188826,167.464717 C66.7406197,167.143003 66.7406197,166.621259 66.4188826,166.299545 C66.0971455,165.977831 65.5753645,165.977831 65.2536274,166.299545 L60.7487517,170.80521 C60.5937178,170.959122 60.5070321,171.169153 60.5070321,171.386962 C60.5070321,171.605884 60.5937178,171.815359 60.7487517,171.969826 L61.1221669,172.34377 L59.5546013,173.910668 C58.6227305,174.843028 58.7783201,176.459377 59.9091234,177.5901 L60.3014315,177.98238 L53.3932517,184.890066 C53.0715146,185.21178 53.0715146,185.733523 53.3932517,186.055237 C53.5543981,186.215817 53.7649998,186.296384 53.9756015,186.296384 C54.1867588,186.296384 54.3979162,186.215817 54.5585069,186.055237 L61.4666868,179.147552 L61.8589949,179.539832 C62.494134,180.174925 63.2820844,180.502196 64.0166898,180.502196 C64.589593,180.502196 65.130267,180.302722 65.5386898,179.893773 L67.1056997,178.326875 L67.4796705,178.700264 C67.6408169,178.861398 67.8514186,178.94141 68.0620203,178.94141 C68.2731777,178.94141 68.484335,178.861398 68.6449258,178.700264 L84.3522552,162.994058 L84.9785035,163.620261 C85.1390942,163.781396 85.3502516,163.861408 85.5608532,163.861408 C85.7714549,163.861408 85.983168,163.781396 86.1437587,163.620261 C86.4654958,163.298547 86.4654958,162.776803 86.1437587,162.455089 L84.3272497,160.639266 L91.7538764,153.212615 L92.0294924,153.488211 C92.3517852,153.809925 92.8735661,153.809369 93.1947476,153.487655 C93.5164847,153.165941 93.5164847,152.644198 93.1947476,152.322483 L93.1947476,152.322483 Z M64.8285183,178.701844 C64.5658918,178.964418 63.8649336,178.850201 63.3210545,178.306432 L61.142434,176.127629 C60.5979341,175.583239 60.4849364,174.883042 60.7469421,174.620469 L62.4977856,172.869357 L66.5799827,176.950732 L64.8285183,178.701844 Z M87.317249,148.999087 L90.4520429,152.134028 L83.1428105,159.44233 L80.0080166,156.307935 L87.317249,148.999087 Z" id="Fill-200" fill="#2E008C"/><g id="Sun" transform="translate(112.8321, 20.6964)" stroke="#FF6A39" stroke-linecap="round" stroke-linejoin="round" stroke-width="2.98378378"><line x1="55.9534579" y1="107.588358" x2="55.9525627" y2="90.3742204" id="Stroke-1"/><line x1="30.1269991" y1="110.45738" x2="41.6039511" y2="87.5051975" id="Stroke-3"/><line x1="17.215428" y1="88.9397089" x2="30.1269991" y2="77.4636175" id="Stroke-6"/><line x1="0" y1="70.2910603" x2="24.388523" y2="64.5530146" id="Stroke-7"/><line x1="7.17309501" y1="48.7733888" x2="24.388523" y2="51.6424116" id="Stroke-9"/><line x1="11.476952" y1="21.5176715" x2="31.5616181" y2="38.7318087" id="Stroke-10"/><line x1="34.4308561" y1="14.3451143" x2="41.6039511" y2="30.1247401" id="Stroke-11"/><line x1="55.9525627" y1="0" x2="55.9534579" y2="25.8212058" id="Stroke-12"/><line x1="77.4694262" y1="14.3451143" x2="70.2963311" y2="30.1247401" id="Stroke-14"/><line x1="100.42333" y1="21.5176715" x2="80.3386642" y2="38.7318087" id="Stroke-15"/><line x1="104.727187" y1="48.7733888" x2="87.5117592" y2="51.6424116" id="Stroke-16"/><line x1="111.900282" y1="70.2910603" x2="87.5117592" y2="64.5530146" id="Stroke-17"/><line x1="94.6848542" y1="88.9397089" x2="81.7732832" y2="77.4636175" id="Stroke-19"/><g id="Group-24" transform="translate(32.9962, 35.8628)"><line x1="47.3424271" y1="74.5945946" x2="36.0017556" y2="51.158702" id="Stroke-20"/><path d="M44.2670758,22.1674962 C44.2670758,9.9248037 34.3574758,0 22.1335379,0 C9.90959991,0 0,9.9248037 0,22.1674962 C0,34.4101887 9.90959991,44.3349924 22.1335379,44.3349924 C34.3574758,44.3349924 44.2670758,34.4101887 44.2670758,22.1674962 Z" id="Stroke-22"/></g></g><g id="Moon" transform="translate(617.1294, 52.0261)" stroke="#2E008B" stroke-linecap="round" stroke-linejoin="round" stroke-width="2.98378378"><path d="M64.6534964,62.1621622 C46.7998064,62.1621622 32.3267482,47.6898784 32.3267482,29.8378378 C32.3267482,17.4380405 39.3167858,6.68243243 49.5646758,1.26095946 C46.4308463,0.467459459 43.167088,0 39.786767,0 C17.8132816,0 0,17.8119459 0,39.7837838 C0,61.7556216 17.8132816,79.5675676 39.786767,79.5675676 C53.984737,79.5675676 66.4112633,72.1081081 73.4525886,60.9182973 C70.6516624,61.7099324 67.7077524,62.1621622 64.6534964,62.1621622 Z" id="Stroke-1"/><path d="M69.6268431,4.97297297 L69.6268431,7.45945946 C69.6296398,12.4324324 62.1668235,19.8918919 57.1875717,19.8918919" id="Stroke-3"/><path d="M69.6268413,7.45945946 C69.6237339,12.4324324 77.0868611,19.8918919 82.0661128,19.8918919 L84.5468799,19.8918919" id="Stroke-5"/><path d="M69.6268431,32.3243243 C69.6296398,27.3513514 62.1668235,19.8918919 57.1875717,19.8918919 L54.7068046,19.8918919" id="Stroke-7"/><path d="M69.6268413,34.8108108 L69.6268413,32.3243243 C69.6237339,27.3513514 77.0868611,19.8918919 82.0661128,19.8918919" id="Stroke-9"/><path d="M96.9802454,32.3243243 L96.9802454,34.8108108 C96.9830421,39.7837838 89.5202258,47.2432432 84.5409741,47.2432432" id="Stroke-11"/><path d="M96.9802436,34.8108108 C96.9771362,39.7837838 104.440263,47.2432432 109.419515,47.2432432 L111.900282,47.2432432" id="Stroke-13"/><path d="M96.9802454,59.6756757 C96.9830421,54.7027027 89.5202258,47.2432432 84.5409741,47.2432432 L82.060207,47.2432432" id="Stroke-15"/><path d="M96.9802436,62.1621622 L96.9802436,59.6756757 C96.9771362,54.7027027 104.440263,47.2432432 109.419515,47.2432432" id="Stroke-17"/></g><line x1="53.8979507" y1="198.977465" x2="776.027772" y2="198.977465" id="Line-2" stroke="#307FE2" stroke-width="2.23783784" stroke-linecap="square"/></g></g></g></g></svg>