<?xml version="1.0" encoding="UTF-8"?><svg width="601px" height="213px" viewBox="0 0 601 213" version="1.1" xmlns="http://www.w3.org/2000/svg" xmlns:xlink="http://www.w3.org/1999/xlink"><title>Image-Icon-Mealtime</title><g id="Screen-Design" stroke="none" stroke-width="1" fill="none" fill-rule="evenodd" stroke-linecap="round" stroke-linejoin="round"><g id="Lesson-4-ClientR2" transform="translate(-420, -1639)" stroke="#BB16A3"><g id="Image-Icon-Mealtime" transform="translate(420, 1639)"><g id="Image-Icon-Long-acting" transform="translate(188, 41)" stroke-width="5"><g id="Mealtime-Icon" transform="translate(-9, -15)"><path d="M31.2097453,0 C21.8470223,0 9.94852007,9.7174375 7.07035711,27.0022721 C4.82413281,40.4954228 0,101.147059 0,101.147059 L10.6994906,112.028353 L10.6994906,167.735761 C10.6994906,175.061603 16.687193,181 24.0738538,181 C31.4598459,181 37.448217,175.061603 37.448217,167.736426 L37.4522293,5.91843382 C37.4522293,5.91843382 37.4522293,0 31.2097453,0 Z" id="Stroke-1"/><line x1="213.789809" y1="3.12068966" x2="213.789809" y2="37.4482759" id="Stroke-3"/><line x1="229.394904" y1="3.12068966" x2="229.394904" y2="37.4482759" id="Stroke-5"/><path d="M245,3.12068966 L245,48.254246 C245,60.3958364 241.393988,62.6093718 237.095261,67.3264922 C233.570546,71.1947035 231.562279,75.79899 231.562279,80.113227 C231.562279,84.427464 236.937367,148.588133 236.937367,165.114979 C236.937367,176.022034 228.233083,181 220.812102,181 C213.39112,181 204.686837,176.022034 204.686837,165.114979 C204.686837,148.588133 210.061925,84.427464 210.061925,80.113227 C210.061925,75.79899 208.053658,71.1947035 204.528943,67.3264922 C200.230216,62.6093718 196.624204,60.3958364 196.624204,48.254246 L196.624204,3.12068966" id="Stroke-7"/><path d="M146.687898,142.570693 C139.556618,146.19253 131.497091,148.232759 122.964211,148.232759 C93.8365199,148.232759 70.2229299,124.460182 70.2229299,95.1363784 C70.2229299,84.1766218 73.521897,73.9920724 79.1737846,65.5344828" id="Stroke-9"/><path d="M99.8726115,47.19034 C106.802524,43.9441442 114.546142,42.1293103 122.716052,42.1293103 C152.330552,42.1293103 176.33758,65.9744694 176.33758,95.3892909 C176.33758,106.953364 172.62697,117.655957 166.32443,126.387931" id="Stroke-11"/><path d="M56.1783439,42.1293103 C71.8574022,23.1045836 95.9514721,10.9224138 122.971079,10.9224138 C144.619515,10.9224138 164.389111,18.7426647 179.458599,31.6366528" id="Stroke-13"/><path d="M185.700637,153.192859 C170.165543,170.256642 147.565067,181 122.406447,181 C95.6148558,181 71.7247039,168.817434 56.1783439,149.793103" id="Stroke-15"/></g></g></g></g></g></svg>