<?xml version="1.0" encoding="UTF-8"?><svg width="297px" height="297px" viewBox="0 0 297 297" version="1.1" xmlns="http://www.w3.org/2000/svg" xmlns:xlink="http://www.w3.org/1999/xlink"><title>Image-A1C</title><g id="Screen-Design" stroke="none" stroke-width="1" fill="none" fill-rule="evenodd"><g id="Lesson-3-ClientR1-Exports" transform="translate(-260, -244)"><g id="Image-A1C" transform="translate(260, 244)"><rect id="Rectangle" x="0" y="0" width="297" height="297"/><circle id="Oval" stroke="#2E008B" stroke-width="5.70175439" fill="#FFFFFF" cx="148" cy="149" r="127.149123"/><g id="less-than-7%" transform="translate(56.3125, 183)" fill="#2E008B" fill-rule="nonzero"><polygon id="Path" points="0 0.4375 4.265625 0.4375 4.265625 24 0 24"/><path d="M25.15625,16.734375 L11.453125,16.734375 C11.6510417,17.9427083 12.1796875,18.9036458 13.0390625,19.6171875 C13.8984375,20.3307292 14.9947917,20.6875 16.328125,20.6875 C17.921875,20.6875 19.2916667,20.1302083 20.4375,19.015625 L24.03125,20.703125 C23.1354167,21.9739583 22.0625,22.9140625 20.8125,23.5234375 C19.5625,24.1328125 18.078125,24.4375 16.359375,24.4375 C13.6927083,24.4375 11.5208333,23.5963542 9.84375,21.9140625 C8.16666667,20.2317708 7.328125,18.125 7.328125,15.59375 C7.328125,13 8.1640625,10.8463542 9.8359375,9.1328125 C11.5078125,7.41927083 13.6041667,6.5625 16.125,6.5625 C18.8020833,6.5625 20.9791667,7.41927083 22.65625,9.1328125 C24.3333333,10.8463542 25.171875,13.109375 25.171875,15.921875 L25.15625,16.734375 Z M20.875,13.375 C20.59375,12.4270833 20.0390625,11.65625 19.2109375,11.0625 C18.3828125,10.46875 17.421875,10.171875 16.328125,10.171875 C15.140625,10.171875 14.0989583,10.5052083 13.203125,11.171875 C12.640625,11.5885417 12.1197917,12.3229167 11.640625,13.375 L20.875,13.375 Z" id="Shape"/><path d="M39.015625,9.375 L36.375,12.015625 C35.3020833,10.953125 34.328125,10.421875 33.453125,10.421875 C32.9739583,10.421875 32.5989583,10.5234375 32.328125,10.7265625 C32.0572917,10.9296875 31.921875,11.1822917 31.921875,11.484375 C31.921875,11.7135417 32.0078125,11.9244792 32.1796875,12.1171875 C32.3515625,12.3098958 32.7760417,12.5729167 33.453125,12.90625 L35.015625,13.6875 C36.6614583,14.5 37.7916667,15.328125 38.40625,16.171875 C39.0208333,17.015625 39.328125,18.0052083 39.328125,19.140625 C39.328125,20.6510417 38.7734375,21.9114583 37.6640625,22.921875 C36.5546875,23.9322917 35.0677083,24.4375 33.203125,24.4375 C30.7239583,24.4375 28.7447917,23.46875 27.265625,21.53125 L29.890625,18.671875 C30.390625,19.2552083 30.9765625,19.7265625 31.6484375,20.0859375 C32.3203125,20.4453125 32.9166667,20.625 33.4375,20.625 C34,20.625 34.453125,20.4895833 34.796875,20.21875 C35.140625,19.9479167 35.3125,19.6354167 35.3125,19.28125 C35.3125,18.625 34.6927083,17.984375 33.453125,17.359375 L32.015625,16.640625 C29.265625,15.2552083 27.890625,13.5208333 27.890625,11.4375 C27.890625,10.09375 28.4088542,8.9453125 29.4453125,7.9921875 C30.4817708,7.0390625 31.8072917,6.5625 33.421875,6.5625 C34.5260417,6.5625 35.5651042,6.8046875 36.5390625,7.2890625 C37.5130208,7.7734375 38.3385417,8.46875 39.015625,9.375 Z" id="Path"/><path d="M53.09375,9.375 L50.453125,12.015625 C49.3802083,10.953125 48.40625,10.421875 47.53125,10.421875 C47.0520833,10.421875 46.6770833,10.5234375 46.40625,10.7265625 C46.1354167,10.9296875 46,11.1822917 46,11.484375 C46,11.7135417 46.0859375,11.9244792 46.2578125,12.1171875 C46.4296875,12.3098958 46.8541667,12.5729167 47.53125,12.90625 L49.09375,13.6875 C50.7395833,14.5 51.8697917,15.328125 52.484375,16.171875 C53.0989583,17.015625 53.40625,18.0052083 53.40625,19.140625 C53.40625,20.6510417 52.8515625,21.9114583 51.7421875,22.921875 C50.6328125,23.9322917 49.1458333,24.4375 47.28125,24.4375 C44.8020833,24.4375 42.8229167,23.46875 41.34375,21.53125 L43.96875,18.671875 C44.46875,19.2552083 45.0546875,19.7265625 45.7265625,20.0859375 C46.3984375,20.4453125 46.9947917,20.625 47.515625,20.625 C48.078125,20.625 48.53125,20.4895833 48.875,20.21875 C49.21875,19.9479167 49.390625,19.6354167 49.390625,19.28125 C49.390625,18.625 48.7708333,17.984375 47.53125,17.359375 L46.09375,16.640625 C43.34375,15.2552083 41.96875,13.5208333 41.96875,11.4375 C41.96875,10.09375 42.4869792,8.9453125 43.5234375,7.9921875 C44.5598958,7.0390625 45.8854167,6.5625 47.5,6.5625 C48.6041667,6.5625 49.6432292,6.8046875 50.6171875,7.2890625 C51.5911458,7.7734375 52.4166667,8.46875 53.09375,9.375 Z" id="Path"/><polygon id="Path" points="66.234375 0.734375 70.484375 0.734375 70.484375 7 73.015625 7 73.015625 10.671875 70.484375 10.671875 70.484375 24 66.234375 24 66.234375 10.671875 64.046875 10.671875 64.046875 7 66.234375 7"/><path d="M75.328125,0.4375 L79.5625,0.4375 L79.5625,8.71875 C80.3958333,8 81.234375,7.4609375 82.078125,7.1015625 C82.921875,6.7421875 83.7760417,6.5625 84.640625,6.5625 C86.328125,6.5625 87.75,7.14583333 88.90625,8.3125 C89.8958333,9.32291667 90.390625,10.8072917 90.390625,12.765625 L90.390625,24 L86.1875,24 L86.1875,16.546875 C86.1875,14.578125 86.09375,13.2447917 85.90625,12.546875 C85.71875,11.8489583 85.3984375,11.328125 84.9453125,10.984375 C84.4921875,10.640625 83.9322917,10.46875 83.265625,10.46875 C82.4010417,10.46875 81.6588542,10.7552083 81.0390625,11.328125 C80.4192708,11.9010417 79.9895833,12.6822917 79.75,13.671875 C79.625,14.1822917 79.5625,15.3489583 79.5625,17.171875 L79.5625,24 L75.328125,24 L75.328125,0.4375 Z" id="Path"/><path d="M107.078125,7 L111.328125,7 L111.328125,24 L107.078125,24 L107.078125,22.203125 C106.244792,22.9947917 105.408854,23.5651042 104.570312,23.9140625 C103.731771,24.2630208 102.822917,24.4375 101.84375,24.4375 C99.6458333,24.4375 97.7447917,23.5859375 96.140625,21.8828125 C94.5364583,20.1796875 93.734375,18.0625 93.734375,15.53125 C93.734375,12.90625 94.5104167,10.7552083 96.0625,9.078125 C97.6145833,7.40104167 99.5,6.5625 101.71875,6.5625 C102.739583,6.5625 103.697917,6.75520833 104.59375,7.140625 C105.489583,7.52604167 106.317708,8.10416667 107.078125,8.875 L107.078125,7 Z M102.59375,10.5 C101.270833,10.5 100.171875,10.9661458 99.296875,11.8984375 C98.421875,12.8307292 97.984375,14.0260417 97.984375,15.484375 C97.984375,16.953125 98.4296875,18.1614583 99.3203125,19.109375 C100.210938,20.0572917 101.307292,20.53125 102.609375,20.53125 C103.953125,20.53125 105.067708,20.0651042 105.953125,19.1328125 C106.838542,18.2005208 107.28125,16.9791667 107.28125,15.46875 C107.28125,13.9895833 106.838542,12.7916667 105.953125,11.875 C105.067708,10.9583333 103.947917,10.5 102.59375,10.5 Z" id="Shape"/><path d="M115.640625,7 L119.890625,7 L119.890625,8.734375 C120.859375,7.921875 121.736979,7.35677083 122.523438,7.0390625 C123.309896,6.72135417 124.114583,6.5625 124.9375,6.5625 C126.625,6.5625 128.057292,7.15104167 129.234375,8.328125 C130.223958,9.328125 130.71875,10.8072917 130.71875,12.765625 L130.71875,24 L126.5,24 L126.5,16.546875 C126.5,14.515625 126.408854,13.1666667 126.226562,12.5 C126.044271,11.8333333 125.726562,11.3255208 125.273438,10.9765625 C124.820313,10.6276042 124.260417,10.453125 123.59375,10.453125 C122.729167,10.453125 121.986979,10.7421875 121.367188,11.3203125 C120.747396,11.8984375 120.317708,12.6979167 120.078125,13.71875 C119.953125,14.25 119.890625,15.4010417 119.890625,17.171875 L119.890625,24 L115.640625,24 L115.640625,7 Z" id="Path"/><polygon id="Path" points="143.5625 1.015625 158.640625 1.015625 158.640625 3.3125 148.265625 24.578125 144.5625 22.78125 153.1875 5.125 143.5625 5.125"/><path d="M180.6875,0 L183.84375,0 L165.625,25.5625 L162.46875,25.5625 L178.046875,3.609375 C177.109375,3.765625 176.229167,3.8828125 175.40625,3.9609375 C174.583333,4.0390625 173.822917,4.078125 173.125,4.078125 C172.40625,4.078125 171.645833,4.04166667 170.84375,3.96875 C171.072917,4.69791667 171.1875,5.359375 171.1875,5.953125 C171.1875,7.47395833 170.658854,8.765625 169.601562,9.828125 C168.544271,10.890625 167.255208,11.421875 165.734375,11.421875 C164.203125,11.421875 162.901042,10.890625 161.828125,9.828125 C160.755208,8.765625 160.21875,7.47916667 160.21875,5.96875 C160.21875,4.98958333 160.458333,4.08072917 160.9375,3.2421875 C161.416667,2.40364583 162.091146,1.7265625 162.960938,1.2109375 C163.830729,0.6953125 164.692708,0.4375 165.546875,0.4375 C166.192708,0.4375 167.083333,0.5625 168.21875,0.8125 C170.229167,1.25 172,1.46875 173.53125,1.46875 C174.916667,1.46875 176.205729,1.34635417 177.398438,1.1015625 C178.591146,0.856770833 179.6875,0.489583333 180.6875,0 Z M165.703125,3.296875 C164.973958,3.296875 164.351562,3.5546875 163.835938,4.0703125 C163.320312,4.5859375 163.0625,5.203125 163.0625,5.921875 C163.0625,6.65104167 163.320312,7.2734375 163.835938,7.7890625 C164.351562,8.3046875 164.973958,8.5625 165.703125,8.5625 C166.432292,8.5625 167.054688,8.3046875 167.570312,7.7890625 C168.085938,7.2734375 168.34375,6.65104167 168.34375,5.921875 C168.34375,5.19270833 168.085938,4.57291667 167.570312,4.0625 C167.054688,3.55208333 166.432292,3.296875 165.703125,3.296875 Z M180.9375,13.640625 C182.447917,13.640625 183.739583,14.1770833 184.8125,15.25 C185.885417,16.3229167 186.421875,17.6197917 186.421875,19.140625 C186.421875,20.6510417 185.885417,21.9427083 184.8125,23.015625 C183.739583,24.0885417 182.447917,24.625 180.9375,24.625 C179.416667,24.625 178.122396,24.0885417 177.054688,23.015625 C175.986979,21.9427083 175.453125,20.6510417 175.453125,19.140625 C175.453125,17.6197917 175.986979,16.3229167 177.054688,15.25 C178.122396,14.1770833 179.416667,13.640625 180.9375,13.640625 Z M180.921875,16.46875 C180.182292,16.46875 179.554688,16.7291667 179.039062,17.25 C178.523438,17.7708333 178.265625,18.3958333 178.265625,19.125 C178.265625,19.8541667 178.523438,20.4791667 179.039062,21 C179.554688,21.5208333 180.182292,21.78125 180.921875,21.78125 C181.651042,21.78125 182.273438,21.5208333 182.789062,21 C183.304688,20.4791667 183.5625,19.8541667 183.5625,19.125 C183.5625,18.3958333 183.304688,17.7708333 182.789062,17.25 C182.273438,16.7291667 181.651042,16.46875 180.921875,16.46875 Z" id="Shape"/></g><g id="A1C" transform="translate(85.1685, 121.3477)" fill="#2E008B" fill-rule="nonzero"><path d="M22.1298828,1.12011719 L42.8974609,45.6523438 L38.1142578,45.6523438 L31.1210938,31 L11.9277344,31 L4.96484375,45.6523438 L0,45.6523438 L21.0400391,1.12011719 L22.1298828,1.12011719 Z M21.5849609,10.5654297 L13.9257812,26.7011719 L29.1533203,26.7011719 L21.5849609,10.5654297 Z" id="Shape"/><polygon id="Path" points="55.8544922 1.12011719 64.6035156 1.12011719 64.6035156 45.6523438 60.1835938 45.6523438 60.1835938 5.47949219 53.1904297 5.47949219"/><path d="M125.634766,9.38476563 L122.123047,12.0791016 C120.185547,9.5563151 117.859538,7.64404297 115.14502,6.34228516 C112.430501,5.04052734 109.448568,4.38964844 106.199219,4.38964844 C102.647135,4.38964844 99.3574219,5.24235026 96.3300781,6.94775391 C93.3027344,8.65315755 90.956543,10.9438477 89.2915039,13.8198242 C87.6264648,16.6958008 86.7939453,19.930013 86.7939453,23.5224609 C86.7939453,28.9514974 88.6557617,33.4824219 92.3793945,37.1152344 C96.1030273,40.7480469 100.800456,42.5644531 106.47168,42.5644531 C112.708008,42.5644531 117.92513,40.1223958 122.123047,35.2382812 L125.634766,37.9023437 C123.414714,40.7278646 120.644694,42.9125977 117.324707,44.456543 C114.00472,46.0004883 110.296224,46.7724609 106.199219,46.7724609 C98.4088542,46.7724609 92.2633464,44.1790365 87.7626953,38.9921875 C83.9886068,34.6126302 82.1015625,29.3248698 82.1015625,23.1289063 C82.1015625,16.610026 84.387207,11.1254883 88.9584961,6.67529297 C93.5297852,2.22509766 99.2565104,0 106.138672,0 C110.296224,0 114.05013,0.822428385 117.400391,2.46728516 C120.750651,4.11214193 123.495443,6.41796875 125.634766,9.38476563 Z" id="Path"/></g><path d="M146.904452,104.340425 C146.986265,104.449409 147.080198,104.540229 147.183221,104.619948 C147.207462,104.64013 147.235743,104.653249 147.263014,104.671413 C147.355937,104.734987 147.4529,104.786451 147.555923,104.827825 C147.576124,104.835897 147.592284,104.850025 147.612485,104.857089 C147.645816,104.870207 147.680157,104.875253 147.713488,104.884335 C147.743789,104.892408 147.77207,104.90048 147.802371,104.906535 C147.902364,104.927726 148.003367,104.940845 148.10336,104.940845 L148.10437,104.940845 L148.10538,104.940845 L148.10841,104.940845 C148.247795,104.939836 148.384149,104.913599 148.517473,104.875253 C148.554845,104.864153 148.590196,104.851034 148.626557,104.837916 C148.74069,104.794524 148.849774,104.739023 148.951787,104.668386 C148.967948,104.657285 148.985118,104.655267 149.000269,104.643158 C149.006329,104.639121 149.011379,104.632058 149.018449,104.628021 C149.04572,104.60683 149.068951,104.579584 149.096222,104.556375 C149.152783,104.505919 149.206315,104.454455 149.253787,104.397945 C149.260857,104.388863 149.270957,104.382808 149.278027,104.372717 L162.524595,87.6608755 C163.038701,87.0140371 162.928608,86.0725392 162.280167,85.5599122 C161.631727,85.0462761 160.690377,85.1562689 160.176271,85.8041164 L149.602248,99.1445271 L149.602248,53.4965075 C149.602248,52.6700479 148.931586,52 148.10437,52 C147.277154,52 146.606493,52.6700479 146.606493,53.4965075 L146.606493,98.9416964 L136.697071,85.689078 C136.201145,85.0271031 135.262825,84.8928917 134.601255,85.3863456 C133.938674,85.8808086 133.803329,86.8192793 134.297235,87.4812543 L146.904452,104.340425 Z" id="Fill-176" stroke="#BB16A3" stroke-width="4" fill="#BB16A3"/></g></g></g></svg>