<?xml version="1.0" encoding="UTF-8"?><svg width="445px" height="228px" viewBox="0 0 445 228" version="1.1" xmlns="http://www.w3.org/2000/svg" xmlns:xlink="http://www.w3.org/1999/xlink"><title>Type-2z</title><g id="Screen-Design" stroke="none" stroke-width="1" fill="none" fill-rule="evenodd"><g id="Lesson-2-ClientR2-Exports" transform="translate(-181, -421)"><g id="Image-Text-@25%" transform="translate(181, 421)"><g id="Type-2" transform="translate(0, 0)"><g id="Image-Type-1-Diabetes" transform="translate(108, 0)"><circle id="Oval" stroke="#307FE2" stroke-width="5" fill="#FFFFFF" cx="114" cy="114" r="111.5"/><g id="Type" transform="translate(43.5, 64)" fill="#2E008B" fill-rule="nonzero"><polygon id="Path" points="0.887207031 5.46777344 25.4995117 5.46777344 25.4995117 13.8232422 17.3862305 13.8232422 17.3862305 50 8.78857422 50 8.78857422 13.8232422 0.887207031 13.8232422"/><polygon id="Path" points="26.7407227 17.0625 35.1870117 17.0625 43.7543945 37.7392578 53.199707 17.0625 61.6762695 17.0625 41.0297852 62.0488281 32.4926758 62.0488281 39.2739258 47.5478516"/><path d="M74.5727539,17.0625 L74.5727539,20.6953125 C76.0662435,19.2018229 77.6808268,18.0817057 79.4165039,17.3349609 C81.152181,16.5882161 83.0089518,16.2148438 84.9868164,16.2148438 C89.2856445,16.2148438 92.9386393,17.8395182 95.9458008,21.0888672 C98.9529622,24.3382161 100.456543,28.5058594 100.456543,33.5917969 C100.456543,38.4960937 98.9025065,42.5981445 95.7944336,45.8979492 C92.6863607,49.1977539 89.0030924,50.8476563 84.7446289,50.8476563 C82.8474935,50.8476563 81.081543,50.5096029 79.4467773,49.8334961 C77.8120117,49.1573893 76.1873372,48.0524089 74.5727539,46.5185547 L74.5727539,62.0488281 L66.3686523,62.0488281 L66.3686523,17.0625 L74.5727539,17.0625 Z M83.2612305,23.84375 C80.6577148,23.84375 78.4982096,24.7317708 76.7827148,26.5078125 C75.0672201,28.2838542 74.2094727,30.6048177 74.2094727,33.4707031 C74.2094727,36.3971354 75.0672201,38.7635091 76.7827148,40.5698242 C78.4982096,42.3761393 80.6577148,43.2792969 83.2612305,43.2792969 C85.7840169,43.2792969 87.9082031,42.3610026 89.6337891,40.5244141 C91.359375,38.6878255 92.222168,36.3466797 92.222168,33.5009766 C92.222168,30.6754557 91.3745117,28.3595378 89.6791992,26.5532227 C87.9838867,24.7469076 85.8445638,23.84375 83.2612305,23.84375 Z" id="Shape"/><path d="M140.296387,35.9228516 L113.746582,35.9228516 C114.130046,38.2639974 115.154297,40.1258138 116.819336,41.5083008 C118.484375,42.8907878 120.608561,43.5820312 123.191895,43.5820312 C126.279785,43.5820312 128.933757,42.5022786 131.153809,40.3427734 L138.116699,43.6123047 C136.381022,46.0745443 134.302246,47.8959961 131.880371,49.0766602 C129.458496,50.2573242 126.58252,50.8476562 123.252441,50.8476562 C118.085775,50.8476562 113.877767,49.2179362 110.628418,45.9584961 C107.379069,42.699056 105.754395,38.6171875 105.754395,33.7128906 C105.754395,28.6875 107.374023,24.5148112 110.613281,21.1948242 C113.852539,17.8748372 117.914225,16.2148438 122.79834,16.2148438 C127.985189,16.2148438 132.203288,17.8748372 135.452637,21.1948242 C138.701986,24.5148112 140.32666,28.8994141 140.32666,34.3486328 L140.296387,35.9228516 Z M132.001465,29.4140625 C131.456543,27.577474 130.381836,26.0839844 128.777344,24.9335938 C127.172852,23.7832031 125.311035,23.2080078 123.191895,23.2080078 C120.891113,23.2080078 118.872884,23.8538411 117.137207,25.1455078 C116.047363,25.9527995 115.038249,27.375651 114.109863,29.4140625 L132.001465,29.4140625 Z" id="Shape"/></g><g id="2" transform="translate(97.5, 131)" fill="#2E008B" fill-rule="nonzero"><path d="M10.9458008,19.8173828 L2.68115234,19.8173828 C2.90315755,15.0139974 4.41178385,11.2348633 7.20703125,8.47998047 C10.0022786,5.72509766 13.589681,4.34765625 17.9692383,4.34765625 C20.6736654,4.34765625 23.0602214,4.91780599 25.1289063,6.05810547 C27.1975911,7.19840495 28.8525391,8.84326172 30.09375,10.9926758 C31.3349609,13.1420898 31.9555664,15.3268229 31.9555664,17.546875 C31.9555664,20.1907552 31.203776,23.0364583 29.7001953,26.0839844 C28.1966146,29.1315104 25.4467773,32.7340495 21.4506836,36.8916016 L16.4555664,42.1591797 L32.3188477,42.1591797 L32.3188477,50 L1.47021484,50 L1.47021484,45.9433594 L15.2446289,31.8964844 C18.574707,28.5260417 20.7897135,25.816569 21.8896484,23.7680664 C22.9895833,21.7195638 23.5395508,19.8678385 23.5395508,18.2128906 C23.5395508,16.4973958 22.969401,15.0795898 21.8291016,13.9594727 C20.6888021,12.8393555 19.2205404,12.2792969 17.4243164,12.2792969 C15.6079102,12.2792969 14.0942383,12.9554036 12.8833008,14.3076172 C11.6723633,15.6598307 11.0265299,17.4964193 10.9458008,19.8173828 Z" id="Path"/></g></g></g></g></g></g></svg>