<?xml version="1.0" encoding="UTF-8"?><svg width="445px" height="228px" viewBox="0 0 445 228" version="1.1" xmlns="http://www.w3.org/2000/svg" xmlns:xlink="http://www.w3.org/1999/xlink"><title>Type-1z</title><g id="Screen-Design" stroke="none" stroke-width="1" fill="none" fill-rule="evenodd"><g id="Lesson-2-ClientR2-Exports" transform="translate(-181, -153)"><g id="Image-Text-@25%" transform="translate(181, 153)"><g id="Type-1" transform="translate(0, 0)"><g id="Image-Type-1-Diabetes" transform="translate(108, 0)"><circle id="Oval" stroke="#307FE2" stroke-width="5" fill="#FFFFFF" cx="114" cy="114" r="111.5"/><g id="Type" transform="translate(28, 64)" fill="#2E008B" fill-rule="nonzero"><polygon id="Path" points="16.387207 5.46777344 40.9995117 5.46777344 40.9995117 13.8232422 32.8862305 13.8232422 32.8862305 50 24.2885742 50 24.2885742 13.8232422 16.387207 13.8232422"/><polygon id="Path" points="42.2407227 17.0625 50.6870117 17.0625 59.2543945 37.7392578 68.699707 17.0625 77.1762695 17.0625 56.5297852 62.0488281 47.9926758 62.0488281 54.7739258 47.5478516"/><path d="M90.0727539,17.0625 L90.0727539,20.6953125 C91.5662435,19.2018229 93.1808268,18.0817057 94.9165039,17.3349609 C96.652181,16.5882161 98.5089518,16.2148438 100.486816,16.2148438 C104.785645,16.2148438 108.438639,17.8395182 111.445801,21.0888672 C114.452962,24.3382161 115.956543,28.5058594 115.956543,33.5917969 C115.956543,38.4960937 114.402507,42.5981445 111.294434,45.8979492 C108.186361,49.1977539 104.503092,50.8476563 100.244629,50.8476563 C98.3474935,50.8476563 96.581543,50.5096029 94.9467773,49.8334961 C93.3120117,49.1573893 91.6873372,48.0524089 90.0727539,46.5185547 L90.0727539,62.0488281 L81.8686523,62.0488281 L81.8686523,17.0625 L90.0727539,17.0625 Z M98.7612305,23.84375 C96.1577148,23.84375 93.9982096,24.7317708 92.2827148,26.5078125 C90.5672201,28.2838542 89.7094727,30.6048177 89.7094727,33.4707031 C89.7094727,36.3971354 90.5672201,38.7635091 92.2827148,40.5698242 C93.9982096,42.3761393 96.1577148,43.2792969 98.7612305,43.2792969 C101.284017,43.2792969 103.408203,42.3610026 105.133789,40.5244141 C106.859375,38.6878255 107.722168,36.3466797 107.722168,33.5009766 C107.722168,30.6754557 106.874512,28.3595378 105.179199,26.5532227 C103.483887,24.7469076 101.344564,23.84375 98.7612305,23.84375 Z" id="Shape"/><path d="M155.796387,35.9228516 L129.246582,35.9228516 C129.630046,38.2639974 130.654297,40.1258138 132.319336,41.5083008 C133.984375,42.8907878 136.108561,43.5820312 138.691895,43.5820312 C141.779785,43.5820312 144.433757,42.5022786 146.653809,40.3427734 L153.616699,43.6123047 C151.881022,46.0745443 149.802246,47.8959961 147.380371,49.0766602 C144.958496,50.2573242 142.08252,50.8476562 138.752441,50.8476562 C133.585775,50.8476562 129.377767,49.2179362 126.128418,45.9584961 C122.879069,42.699056 121.254395,38.6171875 121.254395,33.7128906 C121.254395,28.6875 122.874023,24.5148112 126.113281,21.1948242 C129.352539,17.8748372 133.414225,16.2148438 138.29834,16.2148438 C143.485189,16.2148438 147.703288,17.8748372 150.952637,21.1948242 C154.201986,24.5148112 155.82666,28.8994141 155.82666,34.3486328 L155.796387,35.9228516 Z M147.501465,29.4140625 C146.956543,27.577474 145.881836,26.0839844 144.277344,24.9335938 C142.672852,23.7832031 140.811035,23.2080078 138.691895,23.2080078 C136.391113,23.2080078 134.372884,23.8538411 132.637207,25.1455078 C131.547363,25.9527995 130.538249,27.375651 129.609863,29.4140625 L147.501465,29.4140625 Z" id="Shape"/></g><g id="1" transform="translate(97.5, 131)" fill="#2E008B" fill-rule="nonzero"><polygon id="Path" points="10.340332 5.46777344 23.0249023 5.46777344 23.0249023 50 14.6088867 50 14.6088867 13.4296875 5.43603516 13.4296875"/></g></g></g></g></g></g></svg>